<?xml version="1.0" encoding="UTF-8"?>
<svg version="1.1" xmlns="http://www.w3.org/2000/svg" width="312" height="313">
<path d="M0 0 C102.96 0 205.92 0 312 0 C312 103.29 312 206.58 312 313 C209.04 313 106.08 313 0 313 C0 209.71 0 106.42 0 0 Z " fill="#1D4999" transform="translate(0,0)"/>
<path d="M0 0 C1.67578125 1.5625 1.67578125 1.5625 3.86328125 4.4375 C3.86328125 5.4275 3.86328125 6.4175 3.86328125 7.4375 C4.52328125 7.4375 5.18328125 7.4375 5.86328125 7.4375 C9.03561731 18.63094595 6.06370734 30.87255473 0.67578125 40.9375 C-0.24295742 42.44906393 -1.1831332 43.94767422 -2.13671875 45.4375 C-3.12865234 47.05785156 -3.12865234 47.05785156 -4.140625 48.7109375 C-11.81524947 61.11089654 -21.17119093 71.84539708 -31.13671875 82.4375 C-31.7915625 83.14648438 -32.44640625 83.85546875 -33.12109375 84.5859375 C-39.18202992 90.93178947 -46.17926482 96.1274189 -53.13671875 101.4375 C-53.97460938 102.08589844 -54.8125 102.73429687 -55.67578125 103.40234375 C-60.65060764 107.21265085 -60.65060764 107.21265085 -63.22265625 108.40234375 C-65.4641199 109.42159946 -65.4641199 109.42159946 -67.13671875 112.4375 C-68.73916162 113.11939058 -70.34492478 113.7943282 -71.96484375 114.43359375 C-74.59344756 115.64861386 -76.9047227 117.15914639 -79.32421875 118.75 C-90.51006856 126.02772622 -102.46935892 131.04435898 -115.13671875 135.0625 C-116.09578125 135.37445313 -117.05484375 135.68640625 -118.04296875 136.0078125 C-130.41092209 139.94924818 -146.84265272 142.6435477 -159.0234375 136.7109375 C-164.04917503 133.68248938 -169.08346536 130.58176935 -172.13671875 125.4375 C-172.4296875 122.640625 -172.4296875 122.640625 -172.32421875 119.6875 C-172.29714844 118.70265625 -172.27007812 117.7178125 -172.2421875 116.703125 C-172.20738281 115.95546875 -172.17257813 115.2078125 -172.13671875 114.4375 C-170.13671875 115.4375 -170.13671875 115.4375 -168.88671875 118.6875 C-166.88201378 123.59348654 -163.49114209 126.36526262 -158.68359375 128.5546875 C-153.51778203 129.84045121 -148.50233538 129.7660798 -143.19921875 129.75 C-141.61077148 129.77416992 -141.61077148 129.77416992 -139.99023438 129.79882812 C-133.80946557 129.80268388 -129.64767271 129.18607102 -124.13671875 126.4375 C-121.046875 125.70703125 -121.046875 125.70703125 -118.19921875 125.25 C-117.24144531 125.09144531 -116.28367188 124.93289062 -115.296875 124.76953125 C-114.58402344 124.65996094 -113.87117188 124.55039063 -113.13671875 124.4375 C-113.13671875 123.7775 -113.13671875 123.1175 -113.13671875 122.4375 C-111.77546875 121.8496875 -111.77546875 121.8496875 -110.38671875 121.25 C-109.75765625 120.97800781 -109.12859375 120.70601563 -108.48046875 120.42578125 C-106.69717874 119.6738273 -104.90350733 118.9464403 -103.10546875 118.23046875 C-102.04328125 117.80378906 -100.98109375 117.37710938 -99.88671875 116.9375 C-98.36304688 116.33421875 -98.36304688 116.33421875 -96.80859375 115.71875 C-94.28821677 114.51014817 -92.84698388 113.61420107 -91.13671875 111.4375 C-90.64171875 109.9525 -90.64171875 109.9525 -90.13671875 108.4375 C-100.36671875 108.4375 -110.59671875 108.4375 -121.13671875 108.4375 C-121.15734375 105.653125 -121.17796875 102.86875 -121.19921875 100 C-121.20832275 99.12158447 -121.21742676 98.24316895 -121.22680664 97.33813477 C-121.23394966 95.37104026 -121.18703768 93.40396379 -121.13671875 91.4375 C-120.80671875 91.1075 -120.47671875 90.7775 -120.13671875 90.4375 C-117.82671875 90.4375 -115.51671875 90.4375 -113.13671875 90.4375 C-113.13671875 78.5575 -113.13671875 66.6775 -113.13671875 54.4375 C-115.44671875 54.4375 -117.75671875 54.4375 -120.13671875 54.4375 C-122.17938304 52.39483571 -121.32179819 48.30058566 -121.32421875 45.5 C-121.33646484 44.75814453 -121.34871094 44.01628906 -121.36132812 43.25195312 C-121.36660353 41.31236371 -121.25860777 39.3732629 -121.13671875 37.4375 C-118.7390869 35.03986815 -117.80398377 35.09469414 -114.51171875 34.8125 C-113.69445312 34.73773438 -112.8771875 34.66296875 -112.03515625 34.5859375 C-111.40867188 34.53695312 -110.7821875 34.48796875 -110.13671875 34.4375 C-110.34296875 33.839375 -110.54921875 33.24125 -110.76171875 32.625 C-111.13671875 30.4375 -111.13671875 30.4375 -109.13671875 27.4375 C-106.4737786 25.66220656 -104.17966801 24.45181642 -101.13671875 23.4375 C-101.13671875 22.7775 -101.13671875 22.1175 -101.13671875 21.4375 C-100.12480469 21.02371094 -99.11289063 20.60992187 -98.0703125 20.18359375 C-94.28510849 18.56081959 -90.74379754 16.58920191 -87.19921875 14.5 C-64.21223255 1.20664787 -64.21223255 1.20664787 -51.13671875 0.4375 C-51.13671875 -0.2225 -51.13671875 -0.8825 -51.13671875 -1.5625 C-48.92961892 -2.21253625 -46.72097983 -2.85734745 -44.51171875 -3.5 C-43.28195313 -3.85964844 -42.0521875 -4.21929687 -40.78515625 -4.58984375 C-27.14499001 -8.22624781 -11.87064116 -8.68054198 0 0 Z " fill="#214C9A" transform="translate(236.13671875,88.5625)"/>
<path d="M0 0 C1.67578125 1.5625 1.67578125 1.5625 3.86328125 4.4375 C3.86328125 5.4275 3.86328125 6.4175 3.86328125 7.4375 C4.52328125 7.4375 5.18328125 7.4375 5.86328125 7.4375 C9.03561731 18.63094595 6.06370734 30.87255473 0.67578125 40.9375 C-0.24295742 42.44906393 -1.1831332 43.94767422 -2.13671875 45.4375 C-3.12865234 47.05785156 -3.12865234 47.05785156 -4.140625 48.7109375 C-11.81524947 61.11089654 -21.17119093 71.84539708 -31.13671875 82.4375 C-31.7915625 83.14648438 -32.44640625 83.85546875 -33.12109375 84.5859375 C-39.18202992 90.93178947 -46.17926482 96.1274189 -53.13671875 101.4375 C-53.97460938 102.08589844 -54.8125 102.73429687 -55.67578125 103.40234375 C-60.65060764 107.21265085 -60.65060764 107.21265085 -63.22265625 108.40234375 C-65.4641199 109.42159946 -65.4641199 109.42159946 -67.13671875 112.4375 C-68.73916162 113.11939058 -70.34492478 113.7943282 -71.96484375 114.43359375 C-74.59344756 115.64861386 -76.9047227 117.15914639 -79.32421875 118.75 C-90.51006856 126.02772622 -102.46935892 131.04435898 -115.13671875 135.0625 C-116.09578125 135.37445313 -117.05484375 135.68640625 -118.04296875 136.0078125 C-130.41092209 139.94924818 -146.84265272 142.6435477 -159.0234375 136.7109375 C-164.04917503 133.68248938 -169.08346536 130.58176935 -172.13671875 125.4375 C-172.4296875 122.640625 -172.4296875 122.640625 -172.32421875 119.6875 C-172.29714844 118.70265625 -172.27007812 117.7178125 -172.2421875 116.703125 C-172.20738281 115.95546875 -172.17257813 115.2078125 -172.13671875 114.4375 C-170.13671875 115.4375 -170.13671875 115.4375 -168.88671875 118.6875 C-166.88201378 123.59348654 -163.49114209 126.36526262 -158.68359375 128.5546875 C-153.51778203 129.84045121 -148.50233538 129.7660798 -143.19921875 129.75 C-141.61077148 129.77416992 -141.61077148 129.77416992 -139.99023438 129.79882812 C-133.80946557 129.80268388 -129.64767271 129.18607102 -124.13671875 126.4375 C-121.046875 125.70703125 -121.046875 125.70703125 -118.19921875 125.25 C-117.24144531 125.09144531 -116.28367188 124.93289062 -115.296875 124.76953125 C-114.58402344 124.65996094 -113.87117188 124.55039063 -113.13671875 124.4375 C-113.13671875 123.7775 -113.13671875 123.1175 -113.13671875 122.4375 C-110.80602165 121.43106262 -108.4719687 120.43330056 -106.13671875 119.4375 C-105.15960938 119.01597656 -104.1825 118.59445313 -103.17578125 118.16015625 C-102.13164062 117.71542969 -101.0875 117.27070313 -100.01171875 116.8125 C-99.01914063 116.38710937 -98.0265625 115.96171875 -97.00390625 115.5234375 C-94.36860269 114.52532525 -91.91077146 113.89476144 -89.13671875 113.4375 C-89.13671875 112.7775 -89.13671875 112.1175 -89.13671875 111.4375 C-87.48600479 110.41138051 -85.81701869 109.41441857 -84.13671875 108.4375 C-83.6675 107.95152344 -83.19828125 107.46554688 -82.71484375 106.96484375 C-80.97531442 105.28128937 -79.3907661 104.44704196 -77.19921875 103.4375 C-74.82866093 102.30866294 -72.93065973 101.28156345 -70.82421875 99.6875 C-69.13671875 98.4375 -69.13671875 98.4375 -66.13671875 98.4375 C-66.0490625 97.85226563 -65.96140625 97.26703125 -65.87109375 96.6640625 C-64.93885979 93.83760846 -63.6387753 92.73436781 -61.38671875 90.8125 C-60.71125 90.22210938 -60.03578125 89.63171875 -59.33984375 89.0234375 C-57.13671875 87.4375 -57.13671875 87.4375 -54.7734375 86.64453125 C-50.86811733 84.85676246 -48.52352692 81.92445632 -45.69921875 78.75 C-45.15201172 78.14994141 -44.60480469 77.54988281 -44.04101562 76.93164062 C-40.77268566 73.33067589 -37.59294932 69.65980898 -34.45654297 65.94360352 C-33.26980926 64.58937484 -31.98888399 63.3190969 -30.69921875 62.0625 C-25.21833937 56.44794064 -20.86670047 50.80845065 -18.13671875 43.4375 C-17.62109375 42.2825 -17.10546875 41.1275 -16.57421875 39.9375 C-15.14117352 36.44834639 -14.10219732 33.07661154 -13.13671875 29.4375 C-12.47671875 29.4375 -11.81671875 29.4375 -11.13671875 29.4375 C-11.1699035 26.55947679 -11.2372551 23.6889901 -11.32421875 20.8125 C-11.33001953 20.00425781 -11.33582031 19.19601563 -11.34179688 18.36328125 C-11.56198937 12.34468628 -12.8051592 9.64548653 -17.13671875 5.4375 C-22.9590669 1.10806164 -29.36819439 1.26855084 -36.38671875 1.3125 C-37.13236084 1.31443359 -37.87800293 1.31636719 -38.64624023 1.31835938 C-44.19694812 1.36168197 -49.6263239 1.73776732 -55.13671875 2.4375 C-54.80671875 1.7775 -54.47671875 1.1175 -54.13671875 0.4375 C-53.14671875 0.4375 -52.15671875 0.4375 -51.13671875 0.4375 C-51.13671875 -0.2225 -51.13671875 -0.8825 -51.13671875 -1.5625 C-48.92961892 -2.21253625 -46.72097983 -2.85734745 -44.51171875 -3.5 C-43.28195313 -3.85964844 -42.0521875 -4.21929687 -40.78515625 -4.58984375 C-27.14499001 -8.22624781 -11.87064116 -8.68054198 0 0 Z " fill="#F4F6FA" transform="translate(236.13671875,88.5625)"/>
<path d="M0 0 C11.52164009 -0.18451025 11.52164009 -0.18451025 17 1 C17 1.66 17 2.32 17 3 C17.71671875 3.04511719 18.4334375 3.09023437 19.171875 3.13671875 C23.03055181 4.31457452 24.83793302 6.75408573 27.25 9.8125 C27.69601563 10.34681641 28.14203125 10.88113281 28.6015625 11.43164062 C34.65953912 18.89396637 33.91592099 28.79975082 33 38 C31.98665865 43.19628157 30.38811386 48.27086185 28 53 C27.01 53.33 26.02 53.66 25 54 C24.19787372 55.87387216 24.19787372 55.87387216 23.8125 58.0625 C23.65394531 58.79597656 23.49539062 59.52945313 23.33203125 60.28515625 C23.22246094 60.85105469 23.11289063 61.41695312 23 62 C22.34 62 21.68 62 21 62 C20.75121094 62.7115625 20.50242188 63.423125 20.24609375 64.15625 C18.85756571 67.3250538 17.15499654 69.745321 15.0625 72.5 C14.67642578 73.0256958 14.29035156 73.5513916 13.89257812 74.09301758 C11.77483905 76.92016569 9.62135515 79.42526746 6.99609375 81.79296875 C0.43669227 87.97176167 -1.58430876 92.6448559 -2.0625 101.78051758 C-2.14075574 106.12462824 -2.12020275 110.45561755 -1.96923828 114.79785156 C-2 117 -2 117 -3 118 C-6.125 118.5625 -6.125 118.5625 -10 118 C-12.70782719 115.60642742 -14.86488187 112.9073949 -17 110 C-21.62335641 110.28020342 -23.79974108 112.33939261 -27.07275391 115.30664062 C-30.40469082 118.23422036 -34.05569534 120.7118819 -37.6875 123.25 C-38.43322266 123.77851563 -39.17894531 124.30703125 -39.94726562 124.8515625 C-45.56074973 128.79752635 -45.56074973 128.79752635 -48.11645508 129.97558594 C-50.32967747 130.98977849 -50.32967747 130.98977849 -52 134 C-54.3828125 134.94921875 -54.3828125 134.94921875 -57.125 135.6875 C-58.49011719 136.06455078 -58.49011719 136.06455078 -59.8828125 136.44921875 C-60.93082031 136.72185547 -60.93082031 136.72185547 -62 137 C-62 137.66 -62 138.32 -62 139 C-69.81985075 142.97852056 -77.45777512 146.23384395 -85.83984375 148.83984375 C-88.35533575 149.76333092 -90.44292761 150.75262658 -92.77734375 152.01953125 C-97.27460994 154.31863242 -101.65035644 155.09660823 -106.625 155.75 C-107.49801758 155.87213867 -108.37103516 155.99427734 -109.27050781 156.12011719 C-119.24158851 157.4273797 -129.04306375 157.5931098 -139 156 C-139 155.34 -139 154.68 -139 154 C-140.65 154 -142.3 154 -144 154 C-144.33 153.01 -144.66 152.02 -145 151 C-146.32407669 150.31513275 -147.65909241 149.65129797 -149 149 C-151.25 147 -151.25 147 -153 145 C-153 144.34 -153 143.68 -153 143 C-151.35 143.66 -149.7 144.32 -148 145 C-148.33 143.35 -148.66 141.7 -149 140 C-148.52691406 140.39832031 -148.05382812 140.79664063 -147.56640625 141.20703125 C-136.34659537 150.19600254 -124.82971353 149.89537002 -111.0234375 148.75390625 C-99.33137494 146.99828695 -85.67162217 142.6029733 -75.5 136.5 C-73 135 -73 135 -69.875 133.75 C-65.45992228 131.93769736 -61.63468889 129.2434706 -57.65625 126.63671875 C-55.44409372 125.2736401 -53.41345898 124.23800016 -51 123.3125 C-47.70884923 121.87262154 -47.04827966 120.81638454 -45 118 C-43.30074418 117.02220438 -41.59972327 116.04720656 -39.88574219 115.09545898 C-29.51049902 109.06830775 -20.62581357 100.23694492 -12 92 C-11.34515625 91.39800781 -10.6903125 90.79601562 -10.015625 90.17578125 C-3.95143129 84.44367434 0.96129638 77.62192323 6 71 C6.75023437 70.02160156 7.50046875 69.04320312 8.2734375 68.03515625 C14.50635744 59.71265587 19.85359117 50.96015509 23 41 C23.5878125 39.2365625 23.5878125 39.2365625 24.1875 37.4375 C25.71647084 31.15734703 25.15053755 24.42293559 25 18 C24.34 18 23.68 18 23 18 C22.566875 17.2575 22.13375 16.515 21.6875 15.75 C17.56958212 9.03931901 11.13494854 7.34915994 4 5 C5.32 4.67 6.64 4.34 8 4 C8 3.34 8 2.68 8 2 C5.36 1.67 2.72 1.34 0 1 C0 0.67 0 0.34 0 0 Z " fill="#4468AA" transform="translate(217,78)"/>
<path d="M0 0 C11.22 0 22.44 0 34 0 C34 4.95 34 9.9 34 15 C33.67 15.33 33.34 15.66 33 16 C30.36 16 27.72 16 25 16 C25 28.54 25 41.08 25 54 C27.97 54 30.94 54 34 54 C34 58.62 34 63.24 34 68 C29.66641418 70.16679291 27.59314121 70.23437001 22.828125 70.1953125 C22.1457074 70.1924826 21.46328979 70.18965271 20.76019287 70.18673706 C18.58994693 70.17558098 16.42012029 70.15048557 14.25 70.125 C12.77474556 70.11496426 11.29948463 70.10583944 9.82421875 70.09765625 C6.21585603 70.07736175 2.60839496 70.03820653 -1 70 C-1 64.72 -1 59.44 -1 54 C1.64 54 4.28 54 7 54 C7 41.46 7 28.92 7 16 C4.69 16 2.38 16 0 16 C0 10.72 0 5.44 0 0 Z " fill="#F5F7FA" transform="translate(117,126)"/>
<path d="M0 0 C7 0 7 0 9.63061523 1.80419922 C10.8324646 3.04194092 10.8324646 3.04194092 12.05859375 4.3046875 C13.37827148 5.64466797 13.37827148 5.64466797 14.72460938 7.01171875 C16.06749023 8.42904297 16.06749023 8.42904297 17.4375 9.875 C18.35982422 10.81214844 19.28214844 11.74929687 20.23242188 12.71484375 C27 19.67778497 27 19.67778497 27 22 C27.87398437 22.14501953 27.87398437 22.14501953 28.765625 22.29296875 C31.46553668 23.14731143 32.75371035 24.32047593 34.75 26.3125 C35.67039062 27.20388672 35.67039062 27.20388672 36.609375 28.11328125 C38 30 38 30 38 34 C36.42578125 35.88671875 36.42578125 35.88671875 34.3125 37.6875 C33.62800781 38.28949219 32.94351563 38.89148438 32.23828125 39.51171875 C29.7449094 41.16961521 27.97926072 41.7784021 25 42 C22.875 40.125 22.875 40.125 21 38 C19.515 37.505 19.515 37.505 18 37 C18.15082031 37.97839844 18.30164063 38.95679688 18.45703125 39.96484375 C19.3789944 50.26854178 19.3789944 50.26854178 16.75634766 53.56152344 C13.20038527 56.63962248 9.1227234 58.77966439 5 61 C4.34 61.66 3.68 62.32 3 63 C2.01 63 1.02 63 0 63 C0 42.21 0 21.42 0 0 Z " fill="#F6F7FA" transform="translate(155,126)"/>
<path d="M0 0 C2.64 0 5.28 0 8 0 C8 0.66 8 1.32 8 2 C5.69 2 3.38 2 1 2 C1 22.79 1 43.58 1 65 C5.78145058 62.13112965 10.12411461 58.9866257 14.57421875 55.64453125 C17 54 17 54 19 54 C19 49.05 19 44.1 19 39 C23 40 23 40 24.4375 41.625 C25.94267758 43.24533794 25.94267758 43.24533794 28.3125 43.0625 C31.62201256 41.75408806 33.32718171 39.90223687 35.66796875 37.27734375 C37 36 37 36 39 36 C38.67 34.35 38.34 32.7 38 31 C38.66 31 39.32 31 40 31 C40.01981934 30.16227051 40.03963867 29.32454102 40.06005859 28.46142578 C40.13810612 25.35634166 40.22479635 22.25165461 40.31738281 19.14697266 C40.37454036 17.14113029 40.42168596 15.13501082 40.46875 13.12890625 C40.50742188 11.87207031 40.54609375 10.61523438 40.5859375 9.3203125 C40.63306885 7.57645264 40.63306885 7.57645264 40.68115234 5.79736328 C41 3 41 3 43 1 C44.97119141 0.77294922 44.97119141 0.77294922 47.3515625 0.8046875 C48.20234375 0.81113281 49.053125 0.81757812 49.9296875 0.82421875 C51.26386719 0.84935547 51.26386719 0.84935547 52.625 0.875 C53.97078125 0.88853516 53.97078125 0.88853516 55.34375 0.90234375 C57.56276586 0.9259503 59.78125077 0.9588769 62 1 C62 2.65 62 4.3 62 6 C63.32 5.67 64.64 5.34 66 5 C61.9155291 15.68246235 55.7199364 25.45491257 46.671875 32.59375 C43.39603717 35.34912762 40.76358719 38.74536219 38 42 C36.46873094 43.8005612 34.92673498 45.59204624 33.375 47.375 C32.66085938 48.20773438 31.94671875 49.04046875 31.2109375 49.8984375 C28.85353563 52.13921878 27.02199511 52.90152876 24 54 C22.00278636 55.36166997 22.00278636 55.36166997 20.25 56.9375 C19.65703125 57.44152344 19.0640625 57.94554687 18.453125 58.46484375 C16.74909748 60.04853832 16.74909748 60.04853832 16 63 C13.68229203 64.46630504 11.43090884 65.75207161 9 67 C8.28328125 67.37769531 7.5665625 67.75539063 6.828125 68.14453125 C1.29880742 71 1.29880742 71 -1 71 C-1.495 72.485 -1.495 72.485 -2 74 C-4.5625 75.1875 -4.5625 75.1875 -7 76 C-7 76.66 -7 77.32 -7 78 C-8.32 77.67 -9.64 77.34 -11 77 C-10.01 76.505 -10.01 76.505 -9 76 C-8.505 74.515 -8.505 74.515 -8 73 C-18.23 73 -28.46 73 -39 73 C-39 67.39 -39 61.78 -39 56 C-38.67 56 -38.34 56 -38 56 C-38 61.28 -38 66.56 -38 72 C-33.65818425 71.87996156 -29.31661561 71.75724715 -24.97509766 71.62768555 C-23.4989061 71.58443965 -22.02266785 71.54275744 -20.54638672 71.50268555 C-18.42140652 71.44473154 -16.29665907 71.38111054 -14.171875 71.31640625 C-12.8940918 71.27974854 -11.61630859 71.24309082 -10.29980469 71.20532227 C-6.8487208 71.09096884 -6.8487208 71.09096884 -3 70 C-3 65.38 -3 60.76 -3 56 C-2.67 56 -2.34 56 -2 56 C-1.505 61.445 -1.505 61.445 -1 67 C-0.67 44.89 -0.34 22.78 0 0 Z " fill="#3E63A7" transform="translate(154,124)"/>
<path d="M0 0 C5.57835866 1.0175907 9.22777494 4.99147827 12.875 9.125 C16.99162031 15.98603385 16.04238532 27.65478481 14.55322266 35.29101562 C13.42302706 39.67894874 12.04602111 43.94830185 10 48 C8.515 48.495 8.515 48.495 7 49 C6.19787372 50.87387216 6.19787372 50.87387216 5.8125 53.0625 C5.65394531 53.79597656 5.49539062 54.52945313 5.33203125 55.28515625 C5.22246094 55.85105469 5.11289063 56.41695312 5 57 C4.34 57 3.68 57 3 57 C2.75121094 57.7115625 2.50242187 58.423125 2.24609375 59.15625 C0.85756571 62.3250538 -0.84500346 64.745321 -2.9375 67.5 C-3.32357422 68.0256958 -3.70964844 68.5513916 -4.10742188 69.09301758 C-6.22516095 71.92016569 -8.37864485 74.42526746 -11.00390625 76.79296875 C-17.56330773 82.97176167 -19.58430876 87.6448559 -20.0625 96.78051758 C-20.14075574 101.12462824 -20.12020275 105.45561755 -19.96923828 109.79785156 C-20 112 -20 112 -21 113 C-24.125 113.5625 -24.125 113.5625 -28 113 C-30.70782719 110.60642742 -32.86488187 107.9073949 -35 105 C-39.62710633 105.28043069 -41.80960287 107.3458082 -45.0859375 110.31542969 C-48.35583967 113.19327726 -51.93424126 115.63088252 -55.5 118.125 C-56.22058594 118.63675781 -56.94117188 119.14851563 -57.68359375 119.67578125 C-61.99576283 122.70911538 -66.27448964 125.64894163 -71 128 C-71.99 127.67 -72.98 127.34 -74 127 C-69.81342693 122.47850108 -65.08501653 119.151464 -59.7109375 116.18359375 C-55.82775024 113.98567988 -52.40722901 111.35595846 -48.9375 108.5625 C-48.35162109 108.09779297 -47.76574219 107.63308594 -47.16210938 107.15429688 C-44.36178542 104.92584818 -41.60080772 102.66333331 -38.87890625 100.33984375 C-36 98 -36 98 -33.4765625 96.5234375 C-30.36670258 94.61043218 -27.9187112 92.2106405 -25.375 89.625 C-24.89804688 89.15578125 -24.42109375 88.6865625 -23.9296875 88.203125 C-21.78959981 86.05114794 -20.01341614 84.02291064 -18.4765625 81.3984375 C-17 79 -17 79 -14.62109375 77.09765625 C-11.49244482 74.59380458 -9.32927211 71.69717778 -7.0625 68.4375 C-6.62719971 67.81617188 -6.19189941 67.19484375 -5.7434082 66.5546875 C4.97354681 51.03591525 12.64168501 33.55294366 9.57421875 14.33203125 C8.09945858 9.07537077 5.46665646 5.92669895 1.42578125 2.3125 C0.95527344 1.879375 0.48476562 1.44625 0 1 C0 0.67 0 0.34 0 0 Z " fill="#E3E8F2" transform="translate(235,83)"/>
<path d="M0 0 C0.72711182 0.00404846 1.45422363 0.00809692 2.20336914 0.01226807 C2.95046143 0.01035461 3.69755371 0.00844116 4.46728516 0.00646973 C6.04761085 0.00510809 7.62794772 0.00880307 9.20825195 0.01715088 C11.63135836 0.02785107 14.05372337 0.01725527 16.47680664 0.00445557 C18.01066245 0.00577717 19.54451779 0.00833957 21.07836914 0.01226807 C21.80548096 0.0082196 22.53259277 0.00417114 23.28173828 0 C28.41094553 0.04796946 28.41094553 0.04796946 30.64086914 2.27789307 C30.91934204 5.02401733 30.91934204 5.02401733 30.9597168 8.5635376 C30.96976242 9.20756531 30.97980804 9.85159302 30.99015808 10.51513672 C31.02108497 12.64698379 31.03805108 14.77870477 31.05493164 16.91070557 C31.0736357 18.38759453 31.09320854 19.86447272 31.11361694 21.34133911 C31.1650249 25.23093324 31.20460399 29.12056204 31.24176025 33.01031494 C31.28174581 36.97850178 31.33286292 40.94654329 31.38305664 44.91461182 C31.4799184 52.70227265 31.56429009 60.49000358 31.64086914 68.27789307 C30.65086914 67.78289307 30.65086914 67.78289307 29.64086914 67.27789307 C29.64086914 63.64789307 29.64086914 60.01789307 29.64086914 56.27789307 C26.34086914 56.27789307 23.04086914 56.27789307 19.64086914 56.27789307 C19.64086914 43.73789307 19.64086914 31.19789307 19.64086914 18.27789307 C23.60086914 17.78289307 23.60086914 17.78289307 27.64086914 17.27789307 C27.97086914 12.32789307 28.30086914 7.37789307 28.64086914 2.27789307 C17.42086914 2.27789307 6.20086914 2.27789307 -5.35913086 2.27789307 C-5.35913086 7.55789307 -5.35913086 12.83789307 -5.35913086 18.27789307 C-3.04913086 18.27789307 -0.73913086 18.27789307 1.64086914 18.27789307 C1.64086914 30.81789307 1.64086914 43.35789307 1.64086914 56.27789307 C-0.99913086 56.27789307 -3.63913086 56.27789307 -6.35913086 56.27789307 C-6.35913086 55.94789307 -6.35913086 55.61789307 -6.35913086 55.27789307 C-4.04913086 55.27789307 -1.73913086 55.27789307 0.64086914 55.27789307 C0.64086914 43.39789307 0.64086914 31.51789307 0.64086914 19.27789307 C-1.66913086 19.27789307 -3.97913086 19.27789307 -6.35913086 19.27789307 C-8.40179515 17.23522878 -7.5442103 13.14097873 -7.54663086 10.34039307 C-7.55887695 9.5985376 -7.57112305 8.85668213 -7.58374023 8.09234619 C-7.58901564 6.15275677 -7.48101988 4.21365597 -7.35913086 2.27789307 C-4.87062412 -0.21061367 -3.39703026 0.03176976 0 0 Z " fill="#2E57A0" transform="translate(122.359130859375,123.72210693359375)"/>
<path d="M0 0 C-0.33 8.25 -0.66 16.5 -1 25 C-2.65 25 -4.3 25 -6 25 C-6 24.34 -6 23.68 -6 23 C-6.5775 22.9175 -7.155 22.835 -7.75 22.75 C-10 22 -10 22 -11.9375 19.875 C-13.82171413 17.76543721 -13.82171413 17.76543721 -16.3125 17.875 C-18.87575958 18.94799238 -20.11377527 19.86339156 -22.13671875 21.6875 C-26.06763088 25.12261678 -30.22527669 28.13498781 -34.5 31.125 C-35.58087891 31.89263672 -35.58087891 31.89263672 -36.68359375 32.67578125 C-40.99576283 35.70911538 -45.27448964 38.64894163 -50 41 C-50.99 40.67 -51.98 40.34 -53 40 C-48.81342693 35.47850108 -44.08501653 32.151464 -38.7109375 29.18359375 C-34.82775024 26.98567988 -31.40722901 24.35595846 -27.9375 21.5625 C-27.35162109 21.09779297 -26.76574219 20.63308594 -26.16210938 20.15429688 C-23.31222869 17.8864118 -20.49789805 15.58374517 -17.71484375 13.234375 C-15 11 -15 11 -12.625 9.6875 C-9.16535447 7.46344216 -6.58147156 4.62852145 -3.76953125 1.64453125 C-2 0 -2 0 0 0 Z " fill="#F8F9FC" transform="translate(214,170)"/>
<path d="M0 0 C-0.33 0.99 -0.66 1.98 -1 3 C-3.0625 3.6875 -3.0625 3.6875 -5 4 C-5 4.66 -5 5.32 -5 6 C-12.81985075 9.97852056 -20.45777512 13.23384395 -28.83984375 15.83984375 C-31.35533575 16.76333092 -33.44292761 17.75262658 -35.77734375 19.01953125 C-40.27460994 21.31863242 -44.65035644 22.09660823 -49.625 22.75 C-50.93452637 22.93320801 -50.93452637 22.93320801 -52.27050781 23.12011719 C-62.24158851 24.4273797 -72.04306375 24.5931098 -82 23 C-82 22.34 -82 21.68 -82 21 C-83.65 21 -85.3 21 -87 21 C-87.33 20.01 -87.66 19.02 -88 18 C-89.32407669 17.31513275 -90.65909241 16.65129797 -92 16 C-94.25 14 -94.25 14 -96 12 C-96 11.34 -96 10.68 -96 10 C-93.525 10.99 -93.525 10.99 -91 12 C-91.33 10.35 -91.66 8.7 -92 7 C-91.22076172 7.61488281 -91.22076172 7.61488281 -90.42578125 8.2421875 C-86.7576223 11.07636576 -83.48550294 13.59828033 -79 15 C-82.05263664 15.98120464 -83.94736336 15.98120464 -87 15 C-87 15.66 -87 16.32 -87 17 C-79.83200174 19.58036262 -73.52892383 20.41928611 -65.9375 20.25 C-64.5443457 20.24226563 -64.5443457 20.24226563 -63.12304688 20.234375 C-57.35155246 20.16957226 -51.72505128 19.72661859 -46 19 C-46 18.34 -46 17.68 -46 17 C-44.97519531 16.73445313 -43.95039062 16.46890625 -42.89453125 16.1953125 C-41.53381011 15.83870972 -40.17313547 15.48192949 -38.8125 15.125 C-38.13896484 14.95097656 -37.46542969 14.77695313 -36.77148438 14.59765625 C-33.83852818 13.82507267 -31.01292735 13.00522864 -28.19921875 11.8671875 C-26 11 -26 11 -23 11 C-23 10.34 -23 9.68 -23 9 C-21.60587891 8.52820313 -21.60587891 8.52820313 -20.18359375 8.046875 C-14.39650652 6.0434204 -5.65634197 0 0 0 Z " fill="#879EC8" transform="translate(160,211)"/>
<path d="M0 0 C5.94 0 11.88 0 18 0 C18 6.75565252 18 6.75565252 15.8828125 9.8671875 C15.44066406 10.52460938 14.99851563 11.18203125 14.54296875 11.859375 C14.07503906 12.52453125 13.60710937 13.1896875 13.125 13.875 C12.66480469 14.56335938 12.20460937 15.25171875 11.73046875 15.9609375 C10.54997672 17.68548237 9.28131909 19.34898885 8 21 C7.34 21 6.68 21 6 21 C5.690625 21.78375 5.38125 22.5675 5.0625 23.375 C4 26 4 26 3 28 C2.01 28 1.02 28 0 28 C0 18.76 0 9.52 0 0 Z " fill="#F9FAFC" transform="translate(196,126)"/>
<path d="M0 0 C-1.47604169 3.89138264 -3.31832936 5.15916468 -7 7 C-14.04587156 10 -14.04587156 10 -18 10 C-18 10.66 -18 11.32 -18 12 C-20.8928729 13.00935129 -23.78878515 14.00768744 -26.6875 15 C-27.50412109 15.28617188 -28.32074219 15.57234375 -29.16210938 15.8671875 C-36.67644333 18.42266949 -36.67644333 18.42266949 -41 18 C-41 18.66 -41 19.32 -41 20 C-47.74998927 21.72722346 -53.98030071 22.36534393 -60.9375 22.375 C-61.86240234 22.39949219 -62.78730469 22.42398438 -63.74023438 22.44921875 C-70.3194467 22.47688187 -76.29473499 21.47443073 -82 18 C-82.33 17.01 -82.66 16.02 -83 15 C-81.90558594 15.2165625 -81.90558594 15.2165625 -80.7890625 15.4375 C-58.13179663 19.46545838 -33.53632951 16.52179771 -13.5 4.5 C-9.01000187 1.80600112 -5.27421831 0 0 0 Z " fill="#5677B2" transform="translate(155,210)"/>
<path d="M0 0 C2.64 0 5.28 0 8 0 C8 0.66 8 1.32 8 2 C5.69 2 3.38 2 1 2 C1 22.79 1 43.58 1 65 C5.78145058 62.13112965 10.12411461 58.9866257 14.57421875 55.64453125 C17 54 17 54 19 54 C19 49.05 19 44.1 19 39 C19.99 39.33 20.98 39.66 22 40 C21.34 40 20.68 40 20 40 C20 44.95 20 49.9 20 55 C20.99 55.495 20.99 55.495 22 56 C21.195625 56.598125 20.39125 57.19625 19.5625 57.8125 C16.77672016 59.80947276 16.77672016 59.80947276 16 63 C13.68229203 64.46630504 11.43090884 65.75207161 9 67 C8.28328125 67.37769531 7.5665625 67.75539063 6.828125 68.14453125 C1.29880742 71 1.29880742 71 -1 71 C-1.495 72.485 -1.495 72.485 -2 74 C-4.5625 75.1875 -4.5625 75.1875 -7 76 C-7 76.66 -7 77.32 -7 78 C-8.32 77.67 -9.64 77.34 -11 77 C-10.01 76.505 -10.01 76.505 -9 76 C-8.505 74.515 -8.505 74.515 -8 73 C-18.23 73 -28.46 73 -39 73 C-39 67.39 -39 61.78 -39 56 C-38.67 56 -38.34 56 -38 56 C-38 61.28 -38 66.56 -38 72 C-33.65818425 71.87996156 -29.31661561 71.75724715 -24.97509766 71.62768555 C-23.4989061 71.58443965 -22.02266785 71.54275744 -20.54638672 71.50268555 C-18.42140652 71.44473154 -16.29665907 71.38111054 -14.171875 71.31640625 C-12.8940918 71.27974854 -11.61630859 71.24309082 -10.29980469 71.20532227 C-6.8487208 71.09096884 -6.8487208 71.09096884 -3 70 C-3 65.38 -3 60.76 -3 56 C-2.67 56 -2.34 56 -2 56 C-1.505 61.445 -1.505 61.445 -1 67 C-0.67 44.89 -0.34 22.78 0 0 Z " fill="#6382B9" transform="translate(154,124)"/>
<path d="M0 0 C11.52164009 -0.18451025 11.52164009 -0.18451025 17 1 C17 1.66 17 2.32 17 3 C17.78375 3.103125 18.5675 3.20625 19.375 3.3125 C22 4 22 4 24 7 C22.68 7 21.36 7 20 7 C20.48210937 7.4125 20.96421875 7.825 21.4609375 8.25 C27.15603765 13.45694871 28.71686681 17.65862449 29.2109375 25.234375 C29.5334495 36.59672094 26.95429019 45.87078321 22 56 C21.67386719 56.72832031 21.34773438 57.45664063 21.01171875 58.20703125 C20 60 20 60 17.875 60.75 C17.25625 60.8325 16.6375 60.915 16 61 C16.66155644 58.04638438 17.62193501 55.40456608 18.8125 52.625 C23.53303697 40.8150119 25.63700725 30.63397717 25 18 C24.34 18 23.68 18 23 18 C22.566875 17.2575 22.13375 16.515 21.6875 15.75 C17.56958212 9.03931901 11.13494854 7.34915994 4 5 C5.32 4.67 6.64 4.34 8 4 C8 3.34 8 2.68 8 2 C5.36 1.67 2.72 1.34 0 1 C0 0.67 0 0.34 0 0 Z " fill="#3A60A6" transform="translate(217,78)"/>
<path d="M0 0 C0 3 0 3 -1 6 C-0.01 5.67 0.98 5.34 2 5 C0.7088962 9.50231069 -1.00375944 12.76217317 -3.8125 16.5 C-4.52535156 17.44875 -5.23820312 18.3975 -5.97265625 19.375 C-6.64167969 20.24125 -7.31070313 21.1075 -8 22 C-8.74056641 22.9590625 -8.74056641 22.9590625 -9.49609375 23.9375 C-11.22755955 26.09508979 -12.89096241 27.9198253 -15.125 29.5625 C-17.14034094 30.91170449 -17.14034094 30.91170449 -18.23046875 33.1953125 C-20.46446507 36.73617201 -23.19402853 39.41070139 -26.1875 42.3125 C-26.74630859 42.86228516 -27.30511719 43.41207031 -27.88085938 43.97851562 C-29.24937412 45.32363696 -30.62406833 46.66246643 -32 48 C-32.66 47.67 -33.32 47.34 -34 47 C-33.4946875 46.51789063 -32.989375 46.03578125 -32.46875 45.5390625 C-31.8190625 44.90742188 -31.169375 44.27578125 -30.5 43.625 C-29.8503125 42.99851563 -29.200625 42.37203125 -28.53125 41.7265625 C-26.77882569 40.13524093 -26.77882569 40.13524093 -27 38 C-27.66 37.67 -28.32 37.34 -29 37 C-28.071875 36.13375 -27.14375 35.2675 -26.1875 34.375 C-16.2233228 24.4108228 -7.08777904 12.12269525 0 0 Z " fill="#6885BA" transform="translate(234,133)"/>
<path d="M0 0 C1.10118164 -0.01836914 1.10118164 -0.01836914 2.22460938 -0.03710938 C7.08951004 -0.05005942 11.07118574 0.64466313 15.6875 2.1875 C13.11362393 3.47443804 11.35783052 3.25306108 8.48046875 3.1796875 C-7.58098574 2.88911004 -19.75282009 4.05965056 -34.73046875 10.19921875 C-37.3125 11.1875 -37.3125 11.1875 -39.3125 11.1875 C-39.3125 11.8475 -39.3125 12.5075 -39.3125 13.1875 C-39.97636719 13.44144531 -40.64023438 13.69539063 -41.32421875 13.95703125 C-45.92003696 15.74839397 -50.08858979 17.62755442 -54.3125 20.1875 C-55.3025 20.1875 -56.2925 20.1875 -57.3125 20.1875 C-56.16263782 16.73791345 -55.69893295 16.5365368 -52.6640625 14.84765625 C-51.5342395 14.21537109 -51.5342395 14.21537109 -50.3815918 13.5703125 C-49.5750415 13.13460937 -48.76849121 12.69890625 -47.9375 12.25 C-47.12128174 11.80269531 -46.30506348 11.35539062 -45.46411133 10.89453125 C-39.57337372 7.72452308 -33.68940048 5.21401069 -27.3125 3.1875 C-26.08660156 2.64802734 -26.08660156 2.64802734 -24.8359375 2.09765625 C-22.09969294 1.11074451 -20.14117915 1.0132852 -17.25 1.125 C-13.7913251 1.25630604 -13.7913251 1.25630604 -10.40380859 0.69628906 C-6.97951841 -0.13679765 -3.50425341 0.00302874 0 0 Z " fill="#90A5CC" transform="translate(199.3125,88.8125)"/>
<path d="M0 0 C5.57835866 1.0175907 9.22777494 4.99147827 12.875 9.125 C15.57769319 13.62948866 15.21673049 18.65976447 15.25 23.75 C15.270625 24.5234375 15.29125 25.296875 15.3125 26.09375 C15.35026935 31.72138278 14.24005286 35.83608867 12 41 C11.01 41 10.02 41 9 41 C8 39 8 39 8.9375 35.75 C11.24497627 27.07325706 11.59074209 15.99422329 7 8 C5.24880326 5.94137094 3.43954312 4.11362863 1.42578125 2.3125 C0.95527344 1.879375 0.48476562 1.44625 0 1 C0 0.67 0 0.34 0 0 Z " fill="#AFBFDB" transform="translate(235,83)"/>
<path d="M0 0 C0 3 0 3 -1 5 C-0.34 5.33 0.32 5.66 1 6 C0.319375 6.20625 -0.36125 6.4125 -1.0625 6.625 C-3.66954535 7.8453191 -5.06627792 8.82320202 -7.15234375 10.703125 C-11.07825523 14.13205307 -15.23168121 17.13946754 -19.5 20.125 C-20.58087891 20.89263672 -20.58087891 20.89263672 -21.68359375 21.67578125 C-25.99576283 24.70911538 -30.27448964 27.64894163 -35 30 C-35.99 29.67 -36.98 29.34 -38 29 C-33.81342693 24.47850108 -29.08501653 21.151464 -23.7109375 18.18359375 C-19.82775024 15.98567988 -16.40722901 13.35595846 -12.9375 10.5625 C-12.35162109 10.09779297 -11.76574219 9.63308594 -11.16210938 9.15429688 C-7.39552051 6.15691151 -3.68820392 3.09315123 0 0 Z " fill="#BECBE1" transform="translate(199,181)"/>
<path d="M0 0 C6.27 0 12.54 0 19 0 C19 1.65 19 3.3 19 5 C20.32 4.67 21.64 4.34 23 4 C20.55562408 10.39298319 17.57182008 15.84321001 13.4375 21.3125 C12.65246094 22.36050781 11.86742187 23.40851563 11.05859375 24.48828125 C9 27 9 27 7 28 C8 26 9 24 10 22 C9.01 22 8.02 22 7 22 C8.70909452 17.18189937 11.36547188 13.63282172 14.44140625 9.59765625 C16.43858858 6.62870303 16.43858858 6.62870303 17 1 C11.39 1 5.78 1 0 1 C0 0.67 0 0.34 0 0 Z " fill="#5777B3" transform="translate(197,125)"/>
<path d="M0 0 C-0.33 0.99 -0.66 1.98 -1 3 C-3.0625 3.6875 -3.0625 3.6875 -5 4 C-5 4.66 -5 5.32 -5 6 C-13.03969222 10.09036973 -20.92862633 13.38161984 -29.5234375 16.1328125 C-31.91321724 16.76865423 -31.91321724 16.76865423 -33 18 C-34.99958364 18.04080783 -37.00045254 18.04254356 -39 18 C-38.34 17.67 -37.68 17.34 -37 17 C-37 16.34 -37 15.68 -37 15 C-35.23141309 14.32739649 -33.46003984 13.66211605 -31.6875 13 C-30.70136719 12.62875 -29.71523437 12.2575 -28.69921875 11.875 C-26 11 -26 11 -23 11 C-23 10.34 -23 9.68 -23 9 C-22.07058594 8.68546875 -21.14117187 8.3709375 -20.18359375 8.046875 C-14.39650652 6.0434204 -5.65634197 0 0 0 Z " fill="#9CAFD2" transform="translate(160,211)"/>
<path d="M0 0 C11.22 0 22.44 0 34 0 C34 4.95 34 9.9 34 15 C33.67 15.33 33.34 15.66 33 16 C30.36 16 27.72 16 25 16 C25 28.54 25 41.08 25 54 C24.67 54 24.34 54 24 54 C23.97535225 48.46411467 23.95716504 42.928261 23.94506836 37.39233398 C23.94002756 35.5075627 23.93319502 33.62279535 23.92456055 31.73803711 C23.91248383 29.03498364 23.90676932 26.33198169 23.90234375 23.62890625 C23.89718246 22.78099014 23.89202118 21.93307404 23.88670349 21.0594635 C23.88650805 19.03928932 23.93793789 17.01922066 24 15 C25 14 25 14 28.5625 13.9375 C29.696875 13.958125 30.83125 13.97875 32 14 C32 9.71 32 5.42 32 1 C21.44 1 10.88 1 0 1 C0 0.67 0 0.34 0 0 Z " fill="#B9C6DF" transform="translate(117,126)"/>
<path d="M0 0 C-0.57862635 3.90572783 -2.52099209 6.01060811 -5 9 C-5.41121094 9.74765625 -5.82242188 10.4953125 -6.24609375 11.265625 C-8.48702658 14.7592842 -11.21870008 17.43461739 -14.1875 20.3125 C-15.02571289 21.13717773 -15.02571289 21.13717773 -15.88085938 21.97851562 C-17.24937412 23.32363696 -18.62406833 24.66246643 -20 26 C-20.66 25.67 -21.32 25.34 -22 25 C-21.4946875 24.51789063 -20.989375 24.03578125 -20.46875 23.5390625 C-19.49421875 22.59160156 -19.49421875 22.59160156 -18.5 21.625 C-17.8503125 20.99851563 -17.200625 20.37203125 -16.53125 19.7265625 C-14.77882569 18.13524093 -14.77882569 18.13524093 -15 16 C-15.66 15.67 -16.32 15.34 -17 15 C-16.56429687 14.57589844 -16.12859375 14.15179688 -15.6796875 13.71484375 C-11.99663409 10.08759418 -8.53616686 6.38391895 -5.26171875 2.3828125 C-3.56865531 0.52725691 -2.52030706 0 0 0 Z " fill="#4F71B0" transform="translate(222,155)"/>
<path d="M0 0 C0.33 0 0.66 0 1 0 C1 4.29 1 8.58 1 13 C1.33 13 1.66 13 2 13 C1.57557192 20.3567533 -0.94671962 26.34175619 -4 33 C-4.33902344 33.763125 -4.67804688 34.52625 -5.02734375 35.3125 C-6 37 -6 37 -8.125 37.75 C-8.74375 37.8325 -9.3625 37.915 -10 38 C-9.33844356 35.04638438 -8.37806499 32.40456608 -7.1875 29.625 C-3.32268265 20.06169283 -0.47644596 10.33887741 0 0 Z " fill="#4469AB" transform="translate(243,101)"/>
<path d="M0 0 C0.66 0 1.32 0 2 0 C1.84144531 0.55945313 1.68289062 1.11890625 1.51953125 1.6953125 C0.2476511 7.33748759 0.06292251 12.38939806 3 17.4375 C3.66 18.283125 4.32 19.12875 5 20 C5 20.99 5 21.98 5 23 C2.69 22.34 0.38 21.68 -2 21 C-2 20.01 -2 19.02 -2 18 C-2.66 18 -3.32 18 -4 18 C-4.33 14.37 -4.66 10.74 -5 7 C-4.34 7 -3.68 7 -3 7 C-2.67 7.66 -2.34 8.32 -2 9 C-1.7834375 7.0509375 -1.7834375 7.0509375 -1.5625 5.0625 C-1.125 1.125 -1.125 1.125 0 0 Z " fill="#365DA4" transform="translate(64,200)"/>
<path d="M0 0 C-2.52054855 2.70058773 -4.69271121 4.40337783 -8 6 C-8.33 6.66 -8.66 7.32 -9 8 C-7.68 8.33 -6.36 8.66 -5 9 C-6.98 9.66 -8.96 10.32 -11 11 C-11 10.34 -11 9.68 -11 9 C-11.78375 9.515625 -12.5675 10.03125 -13.375 10.5625 C-14.24125 11.036875 -15.1075 11.51125 -16 12 C-16.66 11.67 -17.32 11.34 -18 11 C-17.34 10.01 -16.68 9.02 -16 8 C-16.66 7.67 -17.32 7.34 -18 7 C-16.14035356 5.62482456 -14.26155066 4.27552802 -12.375 2.9375 C-11.33085937 2.18339844 -10.28671875 1.42929688 -9.2109375 0.65234375 C-5.51194433 -1.25115273 -3.92788548 -1.12646565 0 0 Z " fill="#6986BB" transform="translate(171,202)"/>
<path d="M0 0 C0.66 0.99 1.32 1.98 2 3 C1.19046875 3.72574219 0.3809375 4.45148438 -0.453125 5.19921875 C-4.44898816 9.99397275 -3.74325924 15.86377505 -3.75 21.8125 C-3.78298736 24.08989667 -3.81925846 26.367249 -3.859375 28.64453125 C-3.86420898 29.64846924 -3.86904297 30.65240723 -3.87402344 31.68676758 C-4 34 -4 34 -5 35 C-7.33297433 35.04092937 -9.66705225 35.04241723 -12 35 C-12.495 33.515 -12.495 33.515 -13 32 C-12.34 32 -11.68 32 -11 32 C-11 32.66 -11 33.32 -11 34 C-9.35 34 -7.7 34 -6 34 C-6.0314209 33.25427734 -6.0628418 32.50855469 -6.09521484 31.74023438 C-6.22074308 28.32713756 -6.29822797 24.91452746 -6.375 21.5 C-6.45041016 19.74042969 -6.45041016 19.74042969 -6.52734375 17.9453125 C-6.6466237 10.86803564 -6.0861743 6.64336053 -1.29931641 1.27539062 C-0.65615479 0.64407227 -0.65615479 0.64407227 0 0 Z " fill="#C5D0E5" transform="translate(219,161)"/>
<path d="M0 0 C0 0.99 0 1.98 0 3 C-10.86520329 5.93465298 -20.82565057 6.34207192 -32 6 C-32 5.67 -32 5.34 -32 5 C-28.91747911 4.49490361 -25.83386475 3.99682001 -22.75 3.5 C-21.87730469 3.35691406 -21.00460938 3.21382812 -20.10546875 3.06640625 C-19.26113281 2.93105469 -18.41679688 2.79570312 -17.546875 2.65625 C-16.77182617 2.53056641 -15.99677734 2.40488281 -15.19824219 2.27539062 C-13 2 -13 2 -9 2 C-9 1.34 -9 0.68 -9 0 C-5.62182575 -0.84454356 -3.32534757 -1.10844919 0 0 Z " fill="#99ADD1" transform="translate(123,228)"/>
<path d="M0 0 C3.25768503 0.59425903 5.090635 1.62818977 7.5625 3.8125 C8.14128906 4.31394531 8.72007812 4.81539063 9.31640625 5.33203125 C12.54373258 8.52940559 13.91626353 9.95050295 14.29296875 14.671875 C14.27316751 16.03156035 14.23759202 17.3910934 14.1875 18.75 C14.17396484 19.44738281 14.16042969 20.14476563 14.14648438 20.86328125 C14.1112945 22.57585541 14.05749155 24.28802941 14 26 C13.34 26 12.68 26 12 26 C11.67 21.71 11.34 17.42 11 13 C10.34 13 9.68 13 9 13 C8.814375 12.319375 8.62875 11.63875 8.4375 10.9375 C6.68097458 7.34807849 4.35055268 5.16582497 1.4609375 2.453125 C0.97882813 1.97359375 0.49671875 1.4940625 0 1 C0 0.67 0 0.34 0 0 Z " fill="#BAC8E0" transform="translate(235,83)"/>
<path d="M0 0 C-3.14009617 1.00931662 -4.85751024 0.80931277 -8 0 C-10.7851308 -0.14884563 -13.52671608 -0.23798473 -16.3125 -0.25 C-17.49996826 -0.25592163 -17.49996826 -0.25592163 -18.71142578 -0.26196289 C-25.38366563 -0.19722922 -31.49583648 0.85682267 -37.9609375 2.44140625 C-40.82250288 2.96737521 -42.31587272 2.99828379 -45 2 C-42.79290017 1.34996375 -40.58426108 0.70515255 -38.375 0.0625 C-37.14523438 -0.29714844 -35.91546875 -0.65679687 -34.6484375 -1.02734375 C-23.32085503 -4.04722387 -10.90465306 -4.67342274 0 0 Z " fill="#9EB1D3" transform="translate(230,85)"/>
<path d="M0 0 C4 1 4 1 5.75 3.75 C6.95912205 6.89371734 7.62350327 8.70433985 7 12 C5.1875 13.8125 5.1875 13.8125 3 15 C2.01 15 1.02 15 0 15 C0 10.05 0 5.1 0 0 Z " fill="#28529E" transform="translate(174,164)"/>
<path d="M0 0 C5.94 0 11.88 0 18 0 C18 0.33 18 0.66 18 1 C12.72 1 7.44 1 2 1 C2 8.92 2 16.84 2 25 C2.66 25.33 3.32 25.66 4 26 C3.67 26.66 3.34 27.32 3 28 C2.01 28 1.02 28 0 28 C0 18.76 0 9.52 0 0 Z " fill="#B4C2DD" transform="translate(196,126)"/>
<path d="M0 0 C0.33 0 0.66 0 1 0 C1 5.28 1 10.56 1 16 C11.89 15.67 22.78 15.34 34 15 C34 15.66 34 16.32 34 17 C35.32 16.67 36.64 16.34 38 16 C36.71034824 17.37562854 35.37310707 18.70766393 34 20 C33.34 20 32.68 20 32 20 C32 20.66 32 21.32 32 22 C30.68 21.67 29.36 21.34 28 21 C28.66 20.67 29.32 20.34 30 20 C30.33 19.01 30.66 18.02 31 17 C20.77 17 10.54 17 0 17 C0 11.39 0 5.78 0 0 Z " fill="#5677B2" transform="translate(115,180)"/>
<path d="M0 0 C0.66 0.33 1.32 0.66 2 1 C1.319375 1.763125 0.63875 2.52625 -0.0625 3.3125 C-0.701875 4.199375 -1.34125 5.08625 -2 6 C-1.67 6.99 -1.34 7.98 -1 9 C-2.11878383 10.17262904 -3.24523051 11.33795138 -4.375 12.5 C-5.00148437 13.1496875 -5.62796875 13.799375 -6.2734375 14.46875 C-8 16 -8 16 -10 16 C-11.12880057 12.68885166 -12.21302675 9.41021743 -13 6 C-11.7315625 6.4640625 -11.7315625 6.4640625 -10.4375 6.9375 C-7.04556472 7.35489043 -7.04556472 7.35489043 -5.04296875 5.5078125 C-3.28595343 3.72574808 -1.6126389 1.91321952 0 0 Z " fill="#6180B7" transform="translate(191,160)"/>
<path d="M0 0 C1.43793392 0.31049726 2.8753318 0.6234776 4.3125 0.9375 C5.11300781 1.11152344 5.91351563 1.28554687 6.73828125 1.46484375 C9 2 9 2 12 3 C13.40664926 3.14492123 14.8181133 3.24628931 16.23046875 3.31640625 C17.43413086 3.37924805 17.43413086 3.37924805 18.66210938 3.44335938 C19.49548828 3.48267578 20.32886719 3.52199219 21.1875 3.5625 C22.03248047 3.60568359 22.87746094 3.64886719 23.74804688 3.69335938 C25.83184433 3.79931518 27.91590103 3.9001502 30 4 C30 4.66 30 5.32 30 6 C26.47932649 6.08782542 22.95893856 6.14066643 19.4375 6.1875 C17.9515332 6.22520508 17.9515332 6.22520508 16.43554688 6.26367188 C10.52235402 6.32260735 6.15114661 6.03133319 1 3 C0.67 2.01 0.34 1.02 0 0 Z " fill="#234D9B" transform="translate(72,225)"/>
<path d="M0 0 C0.99 0.33 1.98 0.66 3 1 C2.34 1 1.68 1 1 1 C1 5.95 1 10.9 1 16 C1.66 16.33 2.32 16.66 3 17 C1.7934375 17.8971875 1.7934375 17.8971875 0.5625 18.8125 C-2.22327984 20.80947276 -2.22327984 20.80947276 -3 24 C-6.0625 25.1875 -6.0625 25.1875 -9 26 C-8.34 24.68 -7.68 23.36 -7 22 C-7.99 21.67 -8.98 21.34 -10 21 C-8.71283353 19.99421411 -7.42011342 18.99553202 -6.125 18 C-5.40570313 17.443125 -4.68640625 16.88625 -3.9453125 16.3125 C-2 15 -2 15 0 15 C0 10.05 0 5.1 0 0 Z " fill="#5374B1" transform="translate(173,163)"/>
<path d="M0 0 C0.66 0.33 1.32 0.66 2 1 C0.03617993 2.50559539 -1.78263366 3.89131683 -4 5 C-4 5.66 -4 6.32 -4 7 C-4.66386719 7.25394531 -5.32773438 7.50789063 -6.01171875 7.76953125 C-10.60753696 9.56089397 -14.77608979 11.44005442 -19 14 C-19.99 14 -20.98 14 -22 14 C-20.82133987 10.46401962 -20.22233937 10.26885005 -17.0703125 8.5546875 C-16.27496094 8.11769531 -15.47960937 7.68070312 -14.66015625 7.23046875 C-13.82355469 6.78316406 -12.98695313 6.33585937 -12.125 5.875 C-11.29613281 5.41996094 -10.46726563 4.96492188 -9.61328125 4.49609375 C-6.4235922 2.75954252 -3.45257921 1.15085974 0 0 Z " fill="#6684BA" transform="translate(164,95)"/>
<path d="M0 0 C2 1 2 1 3.25 4.25 C4.93279669 8.36820095 7.31221674 10.46916835 11 13 C14.21265916 14.32350658 14.21265916 14.32350658 17 15 C13.57056481 16.18771723 11.62215325 15.80226223 8.25 14.5625 C7.45078125 14.27503906 6.6515625 13.98757812 5.828125 13.69140625 C5.22484375 13.46324219 4.6215625 13.23507813 4 13 C3.67 13.66 3.34 14.32 3 15 C0.03090402 11.72698081 -0.34354794 9.61934238 -0.1875 5.25 C-0.16042969 4.26515625 -0.13335937 3.2803125 -0.10546875 2.265625 C-0.07066406 1.51796875 -0.03585938 0.7703125 0 0 Z " fill="#95A9CF" transform="translate(64,203)"/>
<path d="M0 0 C0.33 0.99 0.66 1.98 1 3 C-0.71711584 4.82537533 -2.44710422 6.63454827 -4.1875 8.4375 C-4.91163086 9.2119043 -4.91163086 9.2119043 -5.65039062 10.00195312 C-8.62286043 13.05422078 -10.69253741 14.69288658 -15 15 C-5.6 1.86666667 -5.6 1.86666667 0 0 Z " fill="#4367AA" transform="translate(207,170)"/>
<path d="M0 0 C6.27 0 12.54 0 19 0 C19 1.65 19 3.3 19 5 C20.32 4.67 21.64 4.34 23 4 C21.68775452 7.93673644 20.08089673 10.22719294 17 13 C14.25328031 7.96434723 15.1965002 7.31224928 17 1 C11.39 1 5.78 1 0 1 C0 0.67 0 0.34 0 0 Z " fill="#5777B3" transform="translate(197,125)"/>
<path d="M0 0 C0.99 0.66 1.98 1.32 3 2 C2.43410156 2.33773437 1.86820313 2.67546875 1.28515625 3.0234375 C0.55167969 3.46945313 -0.18179688 3.91546875 -0.9375 4.375 C-1.66839844 4.81585938 -2.39929688 5.25671875 -3.15234375 5.7109375 C-5.13772272 6.8773984 -5.13772272 6.8773984 -6 9 C-9.29150026 10.52384271 -12.55931072 11.85310357 -16 13 C-15.02839102 9.7318607 -14.37551865 8.26960313 -11.5625 6.25 C-9 5 -9 5 -6 4 C-6 3.34 -6 2.68 -6 2 C-3.1875 0.875 -3.1875 0.875 0 0 Z " fill="#3159A2" transform="translate(141,108)"/>
<path d="M0 0 C0.33 0 0.66 0 1 0 C0.67 3.3 0.34 6.6 0 10 C-0.99 10.33 -1.98 10.66 -3 11 C-3.80212628 12.87387216 -3.80212628 12.87387216 -4.1875 15.0625 C-4.34605469 15.79597656 -4.50460938 16.52945313 -4.66796875 17.28515625 C-4.77753906 17.85105469 -4.88710937 18.41695312 -5 19 C-5.66 19 -6.32 19 -7 19 C-8.35281097 15.92542961 -7.92902928 14.80483052 -6.75 11.5625 C-4.74841444 7.48784368 -2.51500165 3.77250247 0 0 Z " fill="#C3CEE4" transform="translate(245,121)"/>
<path d="M0 0 C11.52164009 -0.18451025 11.52164009 -0.18451025 17 1 C17 1.66 17 2.32 17 3 C17.78375 3.103125 18.5675 3.20625 19.375 3.3125 C22 4 22 4 24 7 C22.8553125 6.7525 22.8553125 6.7525 21.6875 6.5 C18.96403764 5.90854604 18.96403764 5.90854604 16 6 C13.25061364 5.20718004 10.53374789 4.37935521 7.8125 3.5 C7.06291016 3.26152344 6.31332031 3.02304688 5.54101562 2.77734375 C3.69278343 2.18873477 1.84622607 1.59487146 0 1 C0 0.67 0 0.34 0 0 Z " fill="#819AC6" transform="translate(217,78)"/>
<path d="M0 0 C-0.33 0.99 -0.66 1.98 -1 3 C-3.0625 3.6875 -3.0625 3.6875 -5 4 C-5 4.66 -5 5.32 -5 6 C-10.04140164 8.81532819 -14.22621075 10.5188509 -20 11 C-16.79298285 7.35785992 -13.18921926 5.3226043 -8.875 3.25 C-8.24207031 2.93417969 -7.60914063 2.61835938 -6.95703125 2.29296875 C-2.28175731 0 -2.28175731 0 0 0 Z " fill="#B4C3DD" transform="translate(160,211)"/>
<path d="M0 0 C0.99 0.33 1.98 0.66 3 1 C5.04102015 5.50105768 5.21732794 9.4816192 5.125 14.375 C5.10695312 15.62023437 5.08890625 16.86546875 5.0703125 18.1484375 C5.04710937 19.08945313 5.02390625 20.03046875 5 21 C4.34 21 3.68 21 3 21 C2.67 22.32 2.34 23.64 2 25 C2.03480469 23.24623047 2.03480469 23.24623047 2.0703125 21.45703125 C2.08907821 19.90886058 2.10727755 18.36068297 2.125 16.8125 C2.14175781 16.04357422 2.15851563 15.27464844 2.17578125 14.48242188 C2.21317118 10.12649503 1.86434931 7.01495699 0 3 C0 2.01 0 1.02 0 0 Z " fill="#2A539F" transform="translate(241,93)"/>
<path d="M0 0 C0 1.66666667 0 3.33333333 0 5 C1.32 4.01 2.64 3.02 4 2 C2.34136495 6.32504836 -0.871041 9.09418825 -4.125 12.25 C-4.68832031 12.80429688 -5.25164062 13.35859375 -5.83203125 13.9296875 C-7.21686028 15.29104485 -8.60783204 16.64614859 -10 18 C-10.66 17.67 -11.32 17.34 -12 17 C-11.4946875 16.51789063 -10.989375 16.03578125 -10.46875 15.5390625 C-9.8190625 14.90742188 -9.169375 14.27578125 -8.5 13.625 C-7.8503125 12.99851563 -7.200625 12.37203125 -6.53125 11.7265625 C-4.77882569 10.13524093 -4.77882569 10.13524093 -5 8 C-5.66 7.67 -6.32 7.34 -7 7 C-4.69 4.69 -2.38 2.38 0 0 Z " fill="#7B95C3" transform="translate(212,163)"/>
<path d="M0 0 C1.36959468 3.11271517 0.90994332 4.25666155 -0.25 7.5625 C-2.63878327 12.25475285 -2.63878327 12.25475285 -5 14 C-5.66 14 -6.32 14 -7 14 C-6.33989524 11.15449988 -5.48275034 8.47674001 -4.4375 5.75 C-4.03337891 4.69039062 -4.03337891 4.69039062 -3.62109375 3.609375 C-3.41613281 3.07828125 -3.21117187 2.5471875 -3 2 C-2.01 2 -1.02 2 0 2 C0 1.34 0 0.68 0 0 Z " fill="#4267AA" transform="translate(240,125)"/>
<path d="M0 0 C0.33 0 0.66 0 1 0 C1.33 3.63 1.66 7.26 2 11 C3.65 11 5.3 11 7 11 C6 14 6 14 3.0625 15.6875 C0 17 0 17 -2 17 C-2 16.01 -2 15.02 -2 14 C-1.34 14 -0.68 14 0 14 C0 9.38 0 4.76 0 0 Z " fill="#3B61A6" transform="translate(151,180)"/>
<path d="M0 0 C0.7578125 1.7109375 0.7578125 1.7109375 1 4 C-0.6953125 6.2890625 -0.6953125 6.2890625 -3.125 8.625 C-3.91132813 9.40101563 -4.69765625 10.17703125 -5.5078125 10.9765625 C-7.96084994 12.96821359 -10.01902244 14.01341312 -13 15 C-8.70214922 9.96836982 -4.36574458 4.97281557 0 0 Z " fill="#CBD5E7" transform="translate(203,153)"/>
<path d="M0 0 C0.66 0 1.32 0 2 0 C2.19335938 0.67546875 2.38671875 1.3509375 2.5859375 2.046875 C2.84632812 2.93890625 3.10671875 3.8309375 3.375 4.75 C3.63023438 5.63171875 3.88546875 6.5134375 4.1484375 7.421875 C4.9209934 9.76080572 5.83625676 11.83442562 7 14 C6.01 14.33 5.02 14.66 4 15 C3.67 13.68 3.34 12.36 3 11 C2.34 11 1.68 11 1 11 C0.67 7.37 0.34 3.74 0 0 Z " fill="#4267AA" transform="translate(59,207)"/>
<path d="M0 0 C0 2 0 4 0 6 C0.99 5.34 1.98 4.68 3 4 C1.33248852 7.94139078 -1.22710649 10.7892812 -4 14 C-4 11 -4 11 -3 8 C-3.99 8.33 -4.98 8.66 -6 9 C-4.47291037 5.56404834 -2.40072955 2.88087546 0 0 Z " fill="#819AC6" transform="translate(225,147)"/>
<path d="M0 0 C0.66 1.32 1.32 2.64 2 4 C1.34 4 0.68 4 0 4 C0 5.65 0 7.3 0 9 C-3.96 10.98 -3.96 10.98 -8 13 C-6.54997977 8.89160936 -4.6020866 5.49655387 -2 2 C-1.34 2 -0.68 2 0 2 C0 1.34 0 0.68 0 0 Z " fill="#466AAB" transform="translate(240,138)"/>
<path d="M0 0 C0.77923828 0.61488281 0.77923828 0.61488281 1.57421875 1.2421875 C5.2423777 4.07636576 8.51449706 6.59828033 13 8 C9.90281114 8.99552499 8.09728725 8.89921243 5 8 C4.01 8 3.02 8 2 8 C-0.1519437 4.77208445 -0.20086443 3.71599191 0 0 Z " fill="#6C89BD" transform="translate(68,218)"/>
<path d="M0 0 C1.25425781 0.00902344 2.50851563 0.01804687 3.80078125 0.02734375 C4.75339844 0.03894531 5.70601562 0.05054687 6.6875 0.0625 C6.6875 0.3925 6.6875 0.7225 6.6875 1.0625 C4.7075 1.3925 2.7275 1.7225 0.6875 2.0625 C0.6875 2.3925 0.6875 2.7225 0.6875 3.0625 C-3.6025 3.0625 -7.8925 3.0625 -12.3125 3.0625 C-12.3125 2.4025 -12.3125 1.7425 -12.3125 1.0625 C-8.15623632 0.05323521 -4.26884906 -0.03989579 0 0 Z " fill="#3B61A6" transform="translate(219.3125,76.9375)"/>
<path d="M0 0 C0.66 0 1.32 0 2 0 C2 0.66 2 1.32 2 2 C2.99 2.33 3.98 2.66 5 3 C2.36 5.64 -0.28 8.28 -3 11 C-3.66 10.01 -4.32 9.02 -5 8 C-4.0409375 7.13375 -4.0409375 7.13375 -3.0625 6.25 C-1.01776132 4.01937599 -0.41794801 2.92563609 0 0 Z " fill="#3E63A8" transform="translate(193,157)"/>
<path d="M0 0 C3.44968669 1.53319408 6.06948331 3.64129144 9 6 C10.6502694 7.0268343 12.31243867 8.03567924 14 9 C12.375 9.75 12.375 9.75 10 10 C6.14809405 7.8333029 2.89788879 5.34371784 0 2 C0 1.34 0 0.68 0 0 Z " fill="#9EB1D3" transform="translate(64,221)"/>
<path d="M0 0 C1.4391134 0.28359887 2.87625518 0.57721399 4.3125 0.875 C5.11300781 1.03742188 5.91351563 1.19984375 6.73828125 1.3671875 C9 2 9 2 12 4 C12 4.66 12 5.32 12 6 C4 5.07692308 4 5.07692308 1 3 C0.67 2.01 0.34 1.02 0 0 Z " fill="#335BA2" transform="translate(72,225)"/>
<path d="M0 0 C3 2 3 2 4 5 C4.0685495 6.89470816 4.08480372 8.7916834 4.0625 10.6875 C4.05347656 11.68136719 4.04445312 12.67523438 4.03515625 13.69921875 C4.02355469 14.45847656 4.01195312 15.21773437 4 16 C3.34 16 2.68 16 2 16 C1.34 10.72 0.68 5.44 0 0 Z " fill="#E8ECF4" transform="translate(245,93)"/>
<path d="M0 0 C0.66 0.33 1.32 0.66 2 1 C0.03617993 2.50559539 -1.78263366 3.89131683 -4 5 C-4 5.66 -4 6.32 -4 7 C-6.31 7.33 -8.62 7.66 -11 8 C-10 5 -10 5 -7.78515625 3.578125 C-6.88667969 3.13984375 -5.98820313 2.7015625 -5.0625 2.25 C-4.16660156 1.80140625 -3.27070313 1.3528125 -2.34765625 0.890625 C-1.18556641 0.44976562 -1.18556641 0.44976562 0 0 Z " fill="#7C95C3" transform="translate(164,95)"/>
<path d="M0 0 C0.81210938 0.67482422 0.81210938 0.67482422 1.640625 1.36328125 C4.26836455 3.1861668 6.73180147 4.14550289 9.75 5.1875 C11.22726563 5.70376953 11.22726563 5.70376953 12.734375 6.23046875 C13.48203125 6.48441406 14.2296875 6.73835937 15 7 C11.57056481 8.18771723 9.62215325 7.80226223 6.25 6.5625 C5.45078125 6.27503906 4.6515625 5.98757812 3.828125 5.69140625 C2.92320313 5.34916016 2.92320313 5.34916016 2 5 C1.67 5.66 1.34 6.32 1 7 C0.67 4.69 0.34 2.38 0 0 Z " fill="#C2CEE3" transform="translate(66,211)"/>
<path d="M0 0 C11.52164009 -0.18451025 11.52164009 -0.18451025 17 1 C17 1.66 17 2.32 17 3 C10.93107371 3.25287193 5.83799592 2.69832609 0 1 C0 0.67 0 0.34 0 0 Z " fill="#6583B9" transform="translate(217,78)"/>
<path d="M0 0 C-4.61012242 2.95047835 -7.36529617 4.5497272 -13 4 C-12.34 3.67 -11.68 3.34 -11 3 C-11 2.34 -11 1.68 -11 1 C-3.375 -1.125 -3.375 -1.125 0 0 Z " fill="#B6C4DE" transform="translate(134,225)"/>
<path d="M0 0 C0.33 1.98 0.66 3.96 1 6 C-0.98 6.66 -2.96 7.32 -5 8 C-4.34 6.68 -3.68 5.36 -3 4 C-3.99 3.67 -4.98 3.34 -6 3 C-2.25 0 -2.25 0 0 0 Z " fill="#738EC0" transform="translate(169,181)"/>
<path d="M0 0 C1.98 1.65 3.96 3.3 6 5 C5.67 5.66 5.34 6.32 5 7 C4.34 6.67 3.68 6.34 3 6 C2.67 6.99 2.34 7.98 2 9 C-0.875 4.25 -0.875 4.25 -2 2 C-1.34 2 -0.68 2 0 2 C0 1.34 0 0.68 0 0 Z " fill="#486CAC" transform="translate(238,87)"/>
<path d="M0 0 C-4.87793583 3.25195722 -9.22391379 3.11325659 -15 3 C-10.42919136 0.44034716 -5.14097791 -2.05639116 0 0 Z " fill="#204C9A" transform="translate(122,226)"/>
<path d="M0 0 C0.99 0 1.98 0 3 0 C1.4169423 4.2742558 -1.50568404 6.26531794 -5 9 C-4.42636089 5.12793601 -2.65894107 2.81534937 0 0 Z " fill="#29529E" transform="translate(215,161)"/>
<path d="M0 0 C0.33 0.66 0.66 1.32 1 2 C0.67 2.99 0.34 3.98 0 5 C0.99 4.67 1.98 4.34 3 4 C1.73058503 7.91402949 0.48832306 9.79072873 -3 12 C-2 10 -1 8 0 6 C-0.99 6 -1.98 6 -3 6 C-1.125 1.125 -1.125 1.125 0 0 Z " fill="#7F98C5" transform="translate(207,141)"/>
<path d="M0 0 C0.66 0 1.32 0 2 0 C2 0.66 2 1.32 2 2 C3.32 1.67 4.64 1.34 6 1 C4.71034824 2.37562854 3.37310707 3.70766393 2 5 C1.34 5 0.68 5 0 5 C0 5.66 0 6.32 0 7 C-1.32 6.67 -2.64 6.34 -4 6 C-3.34 5.67 -2.68 5.34 -2 5 C-1.27840576 3.35636866 -0.60648579 1.68949614 0 0 Z " fill="#6684BA" transform="translate(147,195)"/>
<path d="M0 0 C0.66 0.33 1.32 0.66 2 1 C1.01 1.8971875 1.01 1.8971875 0 2.8125 C-2.3373846 4.87501834 -2.3373846 4.87501834 -2 8 C-2.99 8.495 -2.99 8.495 -4 9 C-4 8.34 -4 7.68 -4 7 C-5.65 7.66 -7.3 8.32 -9 9 C-6 6 -3 3 0 0 Z " fill="#5E7DB6" transform="translate(195,179)"/>
<path d="M0 0 C0.33 0.99 0.66 1.98 1 3 C-0.98 4.98 -2.96 6.96 -5 9 C-5.99 8.67 -6.98 8.34 -8 8 C-7.04578192 6.85073734 -6.08647955 5.70569459 -5.125 4.5625 C-4.59132812 3.92441406 -4.05765625 3.28632813 -3.5078125 2.62890625 C-2 1 -2 1 0 0 Z " fill="#26519D" transform="translate(207,170)"/>
<path d="M0 0 C-0.625 1.9375 -0.625 1.9375 -2 4 C-5.125 4.75 -5.125 4.75 -8 5 C-5.96115496 0.48541456 -5.19128917 0 0 0 Z " fill="#345BA3" transform="translate(155,210)"/>
<path d="M0 0 C0 0.99 0 1.98 0 3 C-2.3125 4.75 -2.3125 4.75 -5 6 C-5.99 5.67 -6.98 5.34 -8 5 C-5.47211993 2.20127563 -3.79588866 0.54226981 0 0 Z " fill="#C5D0E5" transform="translate(169,205)"/>
<path d="M0 0 C0.66 0 1.32 0 2 0 C1.4739075 3.78786597 0.61896089 6.17152224 -2 9 C-2.66 9 -3.32 9 -4 9 C-3.67 7.35 -3.34 5.7 -3 4 C-2.34 4 -1.68 4 -1 4 C-0.67 2.68 -0.34 1.36 0 0 Z " fill="#28529D" transform="translate(231,140)"/>
<path d="M0 0 C0 0.66 0 1.32 0 2 C-4.15267176 5.11450382 -4.15267176 5.11450382 -7.3125 4.6875 C-7.869375 4.460625 -8.42625 4.23375 -9 4 C-6.31059578 0.90718514 -4.07621501 0 0 0 Z " fill="#2B549F" transform="translate(165,205)"/>
<path d="M0 0 C0.99 0 1.98 0 3 0 C1.79618552 2.49361571 0.54571278 4.68143083 -1 7 C-1.66 7 -2.32 7 -3 7 C-2.38722388 4.03824877 -1.74627478 2.61941217 0 0 Z " fill="#2B549F" transform="translate(204,147)"/>
<path d="M0 0 C2.97 0.495 2.97 0.495 6 1 C6.33 2.32 6.66 3.64 7 5 C3.74572241 4.43891766 2.12035493 3.54442592 0 1 C0 0.67 0 0.34 0 0 Z " fill="#3059A1" transform="translate(231,84)"/>
<path d="M0 0 C0.66 0.66 1.32 1.32 2 2 C-0.3125 4.0625 -0.3125 4.0625 -3 6 C-3.99 5.67 -4.98 5.34 -6 5 C-4.02 3.35 -2.04 1.7 0 0 Z " fill="#27519E" transform="translate(165,184)"/>
<path d="M0 0 C1.0326802 2.78823655 1.04509293 3.8677274 0.0625 6.75 C-0.288125 7.4925 -0.63875 8.235 -1 9 C-1.66 9 -2.32 9 -3 9 C-2.67 6.69 -2.34 4.38 -2 2 C-1.34 2 -0.68 2 0 2 C0 1.34 0 0.68 0 0 Z " fill="#365DA4" transform="translate(240,125)"/>
<path d="M0 0 C0.99 0.66 1.98 1.32 3 2 C-2.2734375 5.22265625 -2.2734375 5.22265625 -4 6 C-4.66 5.67 -5.32 5.34 -6 5 C-5.67 4.34 -5.34 3.68 -5 3 C-4.34 3 -3.68 3 -3 3 C-3 2.34 -3 1.68 -3 1 C-2.01 0.67 -1.02 0.34 0 0 Z " fill="#4D70AE" transform="translate(141,108)"/>
<path d="M0 0 C-2.94017338 1.52453435 -5.85472185 2.95157395 -9 4 C-9.99 3.67 -10.98 3.34 -12 3 C-4.71428571 -1.71428571 -4.71428571 -1.71428571 0 0 Z " fill="#A7B8D7" transform="translate(173,95)"/>
<path d="M0 0 C2.01136276 2.55991624 3.62845496 5.04590299 5 8 C4.01 8.33 3.02 8.66 2 9 C0.14223235 5.86501708 -0.20140476 3.62528568 0 0 Z " fill="#708CBE" transform="translate(61,213)"/>
<path d="M0 0 C0 0.66 0 1.32 0 2 C-3.22791555 4.1519437 -4.28400809 4.20086443 -8 4 C-5.29881977 1.17603885 -4.05589853 0 0 0 Z " fill="#29539E" transform="translate(132,221)"/>
<path d="M0 0 C-1 3 -1 3 -2.875 4.1875 C-5 5 -5 5 -8 5 C-8 4.34 -8 3.68 -8 3 C-2.25 0 -2.25 0 0 0 Z " fill="#CFD8E9" transform="translate(160,211)"/>
<path d="M0 0 C0.66 0.33 1.32 0.66 2 1 C2 1.99 2 2.98 2 4 C0.02 4.99 0.02 4.99 -2 6 C-2.99 5.34 -3.98 4.68 -5 4 C-3.35 2.68 -1.7 1.36 0 0 Z " fill="#A6B8D7" transform="translate(172,201)"/>
<path d="M0 0 C0.33 0 0.66 0 1 0 C1.125 2.875 1.125 2.875 1 6 C0.34 6.66 -0.32 7.32 -1 8 C-1.66 7.34 -2.32 6.68 -3 6 C-2.01 4.02 -1.02 2.04 0 0 Z " fill="#DAE2EE" transform="translate(245,121)"/>
<path d="M0 0 C0.99 0.33 1.98 0.66 3 1 C2.34 1 1.68 1 1 1 C0.67 2.65 0.34 4.3 0 6 C-0.99 6 -1.98 6 -3 6 C-2.67 4.68 -2.34 3.36 -2 2 C-1.34 2 -0.68 2 0 2 C0 1.34 0 0.68 0 0 Z " fill="#3A60A6" transform="translate(135,110)"/>
</svg>
