<?xml version="1.0" encoding="UTF-8"?>
<svg version="1.1" xmlns="http://www.w3.org/2000/svg" width="767" height="315">
<path d="M0 0 C1.53937405 0.00002842 3.07874811 0.00005657 4.61812216 0.00008446 C41.9664499 0.00089294 79.31477379 0.01038629 116.66309889 0.02392192 C140.79012888 0.03266545 164.9171582 0.03880671 189.04418945 0.04272461 C190.69197605 0.04299525 192.33976265 0.04326595 193.98754925 0.04353672 C207.40051219 0.04572906 220.81347516 0.04777023 234.22643814 0.04977521 C294.98559722 0.05896375 355.74474783 0.07908241 416.50390625 0.09765625 C416.50390625 104.04765625 416.50390625 207.99765625 416.50390625 315.09765625 C284.41639376 315.13803489 284.41639376 315.13803489 232.32706034 315.14582121 C218.72269467 315.14786009 205.11832901 315.14994674 191.51396336 315.15218224 C189.87075143 315.15245213 188.22753949 315.1527205 186.58432756 315.15298734 C162.49163139 315.15691124 138.39893729 315.16351316 114.30624241 315.17224474 C76.97385515 315.18572993 39.64146914 315.19459349 2.3090793 315.19526988 C0.76939015 315.1952983 -0.770299 315.19533212 -2.30998815 315.19537134 C-70.52849462 315.19708562 -138.7463777 315.15984302 -206.96435547 314.87060547 C-208.13520279 314.865675 -209.30605011 314.86074452 -210.51237765 314.85566464 C-256.84059221 314.65930497 -303.16824669 314.36733753 -349.49609375 314.09765625 C-349.49609375 210.80765625 -349.49609375 107.51765625 -349.49609375 1.09765625 C-242.20972018 0.47312632 -242.20972018 0.47312632 -206.96435547 0.32470703 C-205.73631041 0.31950024 -204.50826534 0.31429345 -203.2430068 0.30892888 C-135.49552893 0.02369182 -67.74798527 -0.0017256 0 0 Z " fill="#FEFEFE" transform="translate(349.49609375,-0.09765625)"/>
<path d="M0 0 C1.53937405 0.00002842 3.07874811 0.00005657 4.61812216 0.00008446 C41.9664499 0.00089294 79.31477379 0.01038629 116.66309889 0.02392192 C140.79012888 0.03266545 164.9171582 0.03880671 189.04418945 0.04272461 C190.69197605 0.04299525 192.33976265 0.04326595 193.98754925 0.04353672 C207.40051219 0.04572906 220.81347516 0.04777023 234.22643814 0.04977521 C294.98559722 0.05896375 355.74474783 0.07908241 416.50390625 0.09765625 C416.50390625 104.04765625 416.50390625 207.99765625 416.50390625 315.09765625 C284.41639376 315.13803489 284.41639376 315.13803489 232.32706034 315.14582121 C218.72269467 315.14786009 205.11832901 315.14994674 191.51396336 315.15218224 C189.87075143 315.15245213 188.22753949 315.1527205 186.58432756 315.15298734 C162.49163139 315.15691124 138.39893729 315.16351316 114.30624241 315.17224474 C76.97385515 315.18572993 39.64146914 315.19459349 2.3090793 315.19526988 C0.76939015 315.1952983 -0.770299 315.19533212 -2.30998815 315.19537134 C-70.52849462 315.19708562 -138.7463777 315.15984302 -206.96435547 314.87060547 C-208.13520279 314.865675 -209.30605011 314.86074452 -210.51237765 314.85566464 C-256.84059221 314.65930497 -303.16824669 314.36733753 -349.49609375 314.09765625 C-349.49609375 210.80765625 -349.49609375 107.51765625 -349.49609375 1.09765625 C-242.20972018 0.47312632 -242.20972018 0.47312632 -206.96435547 0.32470703 C-205.73631041 0.31950024 -204.50826534 0.31429345 -203.2430068 0.30892888 C-135.49552893 0.02369182 -67.74798527 -0.0017256 0 0 Z M-140.49609375 2.09765625 C-140.49609375 104.72765625 -140.49609375 207.35765625 -140.49609375 313.09765625 C42.32390625 313.09765625 225.14390625 313.09765625 413.50390625 313.09765625 C413.50390625 246.76765625 413.50390625 180.43765625 413.50390625 112.09765625 C404.92390625 112.09765625 396.34390625 112.09765625 387.50390625 112.09765625 C387.50390625 138.16765625 387.50390625 164.23765625 387.50390625 191.09765625 C385.85390625 191.09765625 384.20390625 191.09765625 382.50390625 191.09765625 C382.50390625 165.02765625 382.50390625 138.95765625 382.50390625 112.09765625 C373.59390625 112.09765625 364.68390625 112.09765625 355.50390625 112.09765625 C355.50390625 110.77765625 355.50390625 109.45765625 355.50390625 108.09765625 C374.64390625 108.09765625 393.78390625 108.09765625 413.50390625 108.09765625 C413.50390625 73.11765625 413.50390625 38.13765625 413.50390625 2.09765625 C230.68390625 2.09765625 47.86390625 2.09765625 -140.49609375 2.09765625 Z " fill="#1D4999" transform="translate(349.49609375,-0.09765625)"/>
<path d="M0 0 C11.52164009 -0.18451025 11.52164009 -0.18451025 17 1 C17 1.66 17 2.32 17 3 C18.35351562 3.34998047 18.35351562 3.34998047 19.734375 3.70703125 C23.44185078 5.17494331 24.82424393 6.56935292 27.25 9.6875 C28.24773437 10.93080078 28.24773437 10.93080078 29.265625 12.19921875 C34.26059431 20.26541919 34.44023629 31.03106446 32.54882812 40.18310547 C31.39388054 44.59608428 30.01815675 48.90115207 28 53 C27.01 53.33 26.02 53.66 25 54 C24.67 55.98 24.34 57.96 24 60 C23.34 60 22.68 60 22 60 C21.62875 61.051875 21.62875 61.051875 21.25 62.125 C19.83875682 65.37085932 17.96085422 68.05871867 16 71 C15.690625 71.86625 15.38125 72.7325 15.0625 73.625 C14 76 14 76 11.73046875 77.79296875 C8.77796981 80.17946646 6.61097837 82.72043154 4.25 85.6875 C0 91 0 91 -1 92 C-1.15806531 93.92478813 -1.251135 95.8549921 -1.31640625 97.78515625 C-1.35830078 98.95498047 -1.40019531 100.12480469 -1.44335938 101.33007812 C-1.48267578 102.56177734 -1.52199219 103.79347656 -1.5625 105.0625 C-1.62727539 106.91584961 -1.62727539 106.91584961 -1.69335938 108.80664062 C-1.79984198 111.87097335 -1.90185424 114.93539073 -2 118 C-9.35229759 118.49015317 -9.35229759 118.49015317 -12.3125 116.25 C-12.869375 115.5075 -13.42625 114.765 -14 114 C-14.5775 113.2575 -15.155 112.515 -15.75 111.75 C-16.36875 110.88375 -16.36875 110.88375 -17 110 C-22.27395157 110.38955324 -25.15298311 113.27139025 -29 116.5625 C-34.88574641 121.45889819 -40.84744654 125.58064285 -47.48828125 129.37890625 C-50.22852508 130.91130814 -50.22852508 130.91130814 -52 134 C-54.3828125 134.94921875 -54.3828125 134.94921875 -57.125 135.6875 C-58.49011719 136.06455078 -58.49011719 136.06455078 -59.8828125 136.44921875 C-60.93082031 136.72185547 -60.93082031 136.72185547 -62 137 C-62 137.66 -62 138.32 -62 139 C-69.94384644 143.04160608 -77.73749971 146.32045883 -86.23046875 149.03515625 C-88.92094916 149.90261175 -88.92094916 149.90261175 -91.01953125 151.02734375 C-105.00441125 157.89565759 -123.98345336 158.40341656 -139 156 C-139 155.34 -139 154.68 -139 154 C-140.65 154 -142.3 154 -144 154 C-144.33 153.01 -144.66 152.02 -145 151 C-146.33066073 150.65615279 -147.66440439 150.32415003 -149 150 C-150.703125 148.51171875 -150.703125 148.51171875 -152.25 146.6875 C-152.77078125 146.09324219 -153.2915625 145.49898437 -153.828125 144.88671875 C-155 143 -155 143 -155 139 C-154.34 139 -153.68 139 -153 139 C-152.07510999 140.21354995 -151.20950122 141.47260707 -150.375 142.75 C-146.5421663 148.07076423 -142.07176423 149.97607859 -136 152 C-117.78985886 153.30316379 -102.08283828 151.4816814 -85.13671875 144.734375 C-83 144 -83 144 -80 144 C-80 143.34 -80 142.68 -80 142 C-79.04738281 141.67386719 -78.09476562 141.34773437 -77.11328125 141.01171875 C-75.84625231 140.57060497 -74.57933087 140.12918229 -73.3125 139.6875 C-71.45044922 139.04361328 -71.45044922 139.04361328 -69.55078125 138.38671875 C-66.43027107 137.16803766 -63.8395468 135.74465848 -61 134 C-60.34 134 -59.68 134 -59 134 C-59 133.34 -59 132.68 -59 132 C-57.13256509 130.7168915 -55.20211328 129.52518881 -53.25 128.375 C-52.04848753 127.65399368 -50.8479879 126.9312972 -49.6484375 126.20703125 C-49.03709961 125.83916504 -48.42576172 125.47129883 -47.79589844 125.09228516 C-32.26322312 115.64514141 -18.79277997 103.84383834 -5.9375 91.0625 C-5.36467285 90.4943457 -4.7918457 89.92619141 -4.20166016 89.34082031 C-1.23731739 86.4461369 -1.23731739 86.4461369 1 83 C-4.52120889 85.84087487 -8.33559664 89.05675123 -12.5625 93.5625 C-19.21914437 100.44061238 -26.34503641 106.2778195 -34 112 C-34.83015625 112.64066406 -35.6603125 113.28132813 -36.515625 113.94140625 C-41.48933186 117.76379208 -41.48933186 117.76379208 -44.0859375 118.96484375 C-46.32740115 119.98409946 -46.32740115 119.98409946 -48 123 C-49.59553381 123.67895056 -51.19448045 124.3508608 -52.80859375 124.984375 C-55.54892695 126.25440465 -57.97372898 127.84593534 -60.5 129.5 C-63.50228823 131.45783598 -66.3543659 133.29784821 -69.6875 134.625 C-72.37018366 135.7385668 -74.25540499 136.7911754 -76.61328125 138.39453125 C-81.04028194 141.19480055 -85.47705278 142.6715451 -90.5 144.0625 C-91.37221191 144.3114502 -92.24442383 144.56040039 -93.14306641 144.81689453 C-94.91676169 145.31862741 -96.69231677 145.81383511 -98.46972656 146.30224609 C-100.77523686 146.93801881 -103.07111525 147.60068466 -105.3671875 148.26953125 C-115.55386923 151.13778028 -125.57202425 152.37966794 -136 150 C-136 149.34 -136 148.68 -136 148 C-138.31 147.67 -140.62 147.34 -143 147 C-143.33 146.01 -143.66 145.02 -144 144 C-144.62390625 143.70738281 -145.2478125 143.41476563 -145.890625 143.11328125 C-148.70360043 141.62865533 -149.37297888 140.02229347 -150.75 137.1875 C-151.17796875 136.33542969 -151.6059375 135.48335937 -152.046875 134.60546875 C-153.04444794 131.87849681 -153.18599776 129.87779864 -153 127 C-150.84008263 129.01838433 -149.40754758 130.95117226 -147.9375 133.5 C-145.2298891 137.24473671 -142.65413502 138.49020634 -138.20703125 139.5703125 C-127.80327426 140.96423853 -117.15931795 140.66500391 -107 138 C-104.62577091 137.45496421 -102.25073542 136.91343198 -99.875 136.375 C-97.91632552 135.91812674 -95.95786872 135.46031396 -94 135 C-94 134.34 -94 133.68 -94 133 C-92.63875 132.4121875 -92.63875 132.4121875 -91.25 131.8125 C-90.6209375 131.54050781 -89.991875 131.26851562 -89.34375 130.98828125 C-87.56045999 130.2363273 -85.76678858 129.5089403 -83.96875 128.79296875 C-82.9065625 128.36628906 -81.844375 127.93960938 -80.75 127.5 C-79.22632812 126.89671875 -79.22632812 126.89671875 -77.671875 126.28125 C-75.15149802 125.07264817 -73.71026513 124.17670107 -72 122 C-71.505 120.515 -71.505 120.515 -71 119 C-81.23 119 -91.46 119 -102 119 C-102.020625 116.215625 -102.04125 113.43125 -102.0625 110.5625 C-102.071604 109.68408447 -102.08070801 108.80566895 -102.09008789 107.90063477 C-102.09723091 105.93354026 -102.05031893 103.96646379 -102 102 C-101.67 101.67 -101.34 101.34 -101 101 C-98.69 101 -96.38 101 -94 101 C-94 89.12 -94 77.24 -94 65 C-96.31 65 -98.62 65 -101 65 C-103.04266429 62.95733571 -102.18507944 58.86308566 -102.1875 56.0625 C-102.19974609 55.32064453 -102.21199219 54.57878906 -102.22460938 53.81445312 C-102.22988478 51.87486371 -102.12188902 49.9357629 -102 48 C-98.99382731 44.99382731 -96.17618402 45.40414684 -92 45 C-91.814375 44.13375 -91.814375 44.13375 -91.625 43.25 C-90.5745259 39.46829322 -89.79309311 37.55516518 -86.5 35.25 C-84 34 -84 34 -82 34 C-82 33.34 -82 32.68 -82 32 C-81.46375 31.74347656 -80.9275 31.48695312 -80.375 31.22265625 C-75.55711847 28.86918451 -70.86879307 26.36788802 -66.23071289 23.68164062 C-59.42004745 19.7428641 -52.84337421 16.52797718 -45.37890625 13.97265625 C-42.84660359 13.24208132 -42.84660359 13.24208132 -42 11 C-40.1015625 10.34570312 -40.1015625 10.34570312 -37.625 9.78125 C-36.72136719 9.57113281 -35.81773437 9.36101562 -34.88671875 9.14453125 C-33.93410156 8.93183594 -32.98148437 8.71914062 -32 8.5 C-31.07832031 8.28730469 -30.15664062 8.07460937 -29.20703125 7.85546875 C-27.35764395 7.43029226 -25.50661912 7.01217789 -23.65405273 6.60107422 C-21.98947124 6.22408961 -20.32906045 5.82759553 -18.67602539 5.40283203 C-12.87208573 3.9507217 -7.40379521 3.76118953 -1.4375 3.875 C-0.52419922 3.88402344 0.38910156 3.89304687 1.33007812 3.90234375 C3.55367319 3.92562747 5.77668677 3.9583229 8 4 C8 3.34 8 2.68 8 2 C5.36 1.67 2.72 1.34 0 1 C0 0.67 0 0.34 0 0 Z " fill="#244E9C" transform="translate(171,79)"/>
<path d="M0 0 C184.47 0 368.94 0 559 0 C559 103.95 559 207.9 559 315 C374.53 315 190.06 315 0 315 C0 211.05 0 107.1 0 0 Z M2 2 C2 104.63 2 207.26 2 313 C184.82 313 367.64 313 556 313 C556 246.67 556 180.34 556 112 C547.42 112 538.84 112 530 112 C530 138.07 530 164.14 530 191 C528.35 191 526.7 191 525 191 C525 164.93 525 138.86 525 112 C516.09 112 507.18 112 498 112 C498 110.68 498 109.36 498 108 C517.14 108 536.28 108 556 108 C556 73.02 556 38.04 556 2 C373.18 2 190.36 2 2 2 Z " fill="#002060" transform="translate(207,0)"/>
<path d="M0 0 C5.29443851 3.3038938 8.6499742 7.07041774 10.54296875 13.078125 C13.20194943 25.34020121 8.59475207 37.97897275 2.015625 48.2578125 C1.02369141 49.87816406 1.02369141 49.87816406 0.01171875 51.53125 C-7.66290572 63.93120904 -17.01884718 74.66570958 -26.984375 85.2578125 C-27.63921875 85.96679688 -28.2940625 86.67578125 -28.96875 87.40625 C-35.02968617 93.75210197 -42.02692107 98.9477314 -48.984375 104.2578125 C-49.82226562 104.90621094 -50.66015625 105.55460937 -51.5234375 106.22265625 C-56.49826389 110.03296335 -56.49826389 110.03296335 -59.0703125 111.22265625 C-61.31177615 112.24191196 -61.31177615 112.24191196 -62.984375 115.2578125 C-64.57990881 115.93676306 -66.17885545 116.6086733 -67.79296875 117.2421875 C-70.53330195 118.51221715 -72.95810398 120.10374784 -75.484375 121.7578125 C-78.48666323 123.71564848 -81.3387409 125.55566071 -84.671875 126.8828125 C-87.35455866 127.9963793 -89.23977999 129.0489879 -91.59765625 130.65234375 C-96.02465694 133.45261305 -100.46142778 134.9293576 -105.484375 136.3203125 C-106.35658691 136.5692627 -107.22879883 136.81821289 -108.12744141 137.07470703 C-109.90113669 137.57643991 -111.67669177 138.07164761 -113.45410156 138.56005859 C-115.75961186 139.19583131 -118.05549025 139.85849716 -120.3515625 140.52734375 C-130.53824423 143.39559278 -140.55639925 144.63748044 -150.984375 142.2578125 C-150.984375 141.5978125 -150.984375 140.9378125 -150.984375 140.2578125 C-153.294375 139.9278125 -155.604375 139.5978125 -157.984375 139.2578125 C-158.314375 138.2678125 -158.644375 137.2778125 -158.984375 136.2578125 C-159.60828125 135.96519531 -160.2321875 135.67257813 -160.875 135.37109375 C-163.68797543 133.88646783 -164.35735388 132.28010597 -165.734375 129.4453125 C-166.16234375 128.59324219 -166.5903125 127.74117187 -167.03125 126.86328125 C-168.02882294 124.13630931 -168.17037276 122.13561114 -167.984375 119.2578125 C-165.82445763 121.27619683 -164.39192258 123.20898476 -162.921875 125.7578125 C-160.2142641 129.50254921 -157.63851002 130.74801884 -153.19140625 131.828125 C-142.78764926 133.22205103 -132.14369295 132.92281641 -121.984375 130.2578125 C-119.61014591 129.71277671 -117.23511042 129.17124448 -114.859375 128.6328125 C-112.90070052 128.17593924 -110.94224372 127.71812646 -108.984375 127.2578125 C-108.984375 126.5978125 -108.984375 125.9378125 -108.984375 125.2578125 C-107.623125 124.67 -107.623125 124.67 -106.234375 124.0703125 C-105.6053125 123.79832031 -104.97625 123.52632813 -104.328125 123.24609375 C-102.54483499 122.4941398 -100.75116358 121.7667528 -98.953125 121.05078125 C-97.8909375 120.62410156 -96.82875 120.19742188 -95.734375 119.7578125 C-94.21070312 119.15453125 -94.21070312 119.15453125 -92.65625 118.5390625 C-90.11145052 117.3187493 -88.8500404 116.30368422 -86.984375 114.2578125 C-82.11168515 110.59270231 -78.08556855 108.6391371 -71.984375 108.2578125 C-71.943125 107.6596875 -71.901875 107.0615625 -71.859375 106.4453125 C-70.984375 104.2578125 -70.984375 104.2578125 -68.109375 102.5078125 C-64.984375 101.2578125 -64.984375 101.2578125 -61.984375 101.2578125 C-61.89671875 100.67257813 -61.8090625 100.08734375 -61.71875 99.484375 C-60.78651604 96.65792096 -59.48643155 95.55468031 -57.234375 93.6328125 C-56.55890625 93.04242188 -55.8834375 92.45203125 -55.1875 91.84375 C-52.984375 90.2578125 -52.984375 90.2578125 -50.62109375 89.46484375 C-46.71577358 87.67707496 -44.37118317 84.74476882 -41.546875 81.5703125 C-40.99966797 80.97025391 -40.45246094 80.37019531 -39.88867188 79.75195312 C-36.62225671 76.15309808 -33.44443035 72.48442142 -30.31030273 68.77001953 C-29.10186848 67.39181262 -27.79677955 66.09990694 -26.484375 64.8203125 C-17.26863919 55.37418329 -12.47336798 44.86886534 -8.984375 32.2578125 C-8.324375 32.2578125 -7.664375 32.2578125 -6.984375 32.2578125 C-7.19813582 19.67694384 -7.19813582 19.67694384 -12.984375 8.9453125 C-19.70274235 3.27669005 -27.00014718 4.12520285 -35.359375 4.1953125 C-36.89271484 4.20208008 -36.89271484 4.20208008 -38.45703125 4.20898438 C-40.96620694 4.2207095 -43.4752599 4.23712074 -45.984375 4.2578125 C-42.95054004 0.84647981 -39.84439984 0.36363571 -35.484375 -0.3671875 C-10.09942049 -4.91230316 -10.09942049 -4.91230316 0 0 Z " fill="#F2F4F9" transform="translate(185.984375,86.7421875)"/>
<path d="M0 0 C0 1.65 0 3.3 0 5 C-0.92232422 5.16435547 -0.92232422 5.16435547 -1.86328125 5.33203125 C-3.07564453 5.56986328 -3.07564453 5.56986328 -4.3125 5.8125 C-5.51326172 6.03873047 -5.51326172 6.03873047 -6.73828125 6.26953125 C-9.23445587 7.07572236 -10.32422106 8.02052002 -12 10 C-11.360625 10.763125 -10.72125 11.52625 -10.0625 12.3125 C-6.1497871 17.41088348 -6.4073991 22.81155346 -7 29 C-8.55812457 34.58484408 -11.46188002 37.90057865 -16.21875 41.08984375 C-21.711787 43.89659292 -27.85444516 43.39335172 -33.75 42.3125 C-37.00074428 41.67843109 -37.00074428 41.67843109 -39.4375 43.4375 C-39.953125 43.953125 -40.46875 44.46875 -41 45 C-40.67 46.65 -40.34 48.3 -40 50 C-36.04896704 51.40914806 -32.30735318 52.37891431 -28.15625 52.96484375 C-27.07472656 53.12533203 -25.99320313 53.28582031 -24.87890625 53.45117188 C-22.62684965 53.77531181 -20.37423924 54.09562709 -18.12109375 54.41210938 C-5.73516884 56.26483116 -5.73516884 56.26483116 -1.12109375 60.87890625 C0.96259918 64.82122423 -0.01627439 68.79867186 -1 73 C-3.64252759 77.86225077 -7.91687682 80.15488056 -13 82 C-23.45266166 84.17104802 -34.45553161 84.24136908 -44 79 C-47.94136233 75.56675755 -48.88724954 73.39810575 -49.3125 68.125 C-49.27127929 64.92156198 -48.99623604 63.99381636 -47.25 61.125 C-45.18548797 59.17518309 -43.55559827 58.14561302 -41 57 C-40.67 56.34 -40.34 55.68 -40 55 C-40.804375 54.71125 -41.60875 54.4225 -42.4375 54.125 C-45 53 -45 53 -46 51 C-46.42799814 47.14801671 -46.33963486 45.49813113 -44.125 42.25 C-42.76944977 40.81471152 -41.3959888 39.3959888 -40 38 C-40.639375 37.236875 -41.27875 36.47375 -41.9375 35.6875 C-46.17262897 30.16899861 -45.59243889 23.68139417 -45 17 C-42.50327397 11.72913393 -38.80915189 8.56063994 -33.75 5.75 C-28.59319035 4.34359737 -23.55757245 4.65088893 -18.375 5.8125 C-14.14723105 6.04737605 -12.7274723 4.86082963 -9.578125 2.2265625 C-6.53573609 -0.1380665 -3.69283668 -0.0998064 0 0 Z " fill="#13306B" transform="translate(259,128)"/>
<path d="M0 0 C184.47 0 368.94 0 559 0 C559 103.95 559 207.9 559 315 C557 313 557 313 556.75160301 310.75746191 C556.75236245 309.81347716 556.75312189 308.86949242 556.75390434 307.89690208 C556.7499226 306.80924175 556.74594086 305.72158142 556.74183846 304.60096169 C556.74766378 303.39704466 556.75348911 302.19312763 556.75949097 300.95272827 C556.75777893 299.68411453 556.75606689 298.41550079 556.75430298 297.10844421 C556.74979925 293.56849743 556.75786794 290.02867074 556.76785454 286.48873922 C556.77655845 282.61979537 556.77366727 278.75085747 556.7722187 274.88190651 C556.77115329 267.36408009 556.78040827 259.84630125 556.79322136 252.32848708 C556.80759329 243.63671124 556.80920931 234.94496418 556.81079102 226.25317383 C556.82130161 203.29377498 556.8492237 180.33438678 556.875 157.375 C556.91625 106.10125 556.9575 54.8275 557 2 C373.85 2 190.7 2 2 2 C2 104.63 2 207.26 2 313 C1.67 313 1.34 313 1 313 C0.67 209.71 0.34 106.42 0 0 Z " fill="#001D5F" transform="translate(207,0)"/>
<path d="M0 0 C11.52164009 -0.18451025 11.52164009 -0.18451025 17 1 C17 1.66 17 2.32 17 3 C18.35351562 3.34998047 18.35351562 3.34998047 19.734375 3.70703125 C23.44185078 5.17494331 24.82424393 6.56935292 27.25 9.6875 C28.24773437 10.93080078 28.24773437 10.93080078 29.265625 12.19921875 C34.26059431 20.26541919 34.44023629 31.03106446 32.54882812 40.18310547 C31.39388054 44.59608428 30.01815675 48.90115207 28 53 C27.01 53.33 26.02 53.66 25 54 C24.67 55.98 24.34 57.96 24 60 C23.34 60 22.68 60 22 60 C21.62875 61.051875 21.62875 61.051875 21.25 62.125 C19.83875682 65.37085932 17.96085422 68.05871867 16 71 C15.690625 71.86625 15.38125 72.7325 15.0625 73.625 C14 76 14 76 11.73046875 77.79296875 C8.77796981 80.17946646 6.61097837 82.72043154 4.25 85.6875 C0 91 0 91 -1 92 C-1.15806531 93.92478813 -1.251135 95.8549921 -1.31640625 97.78515625 C-1.35830078 98.95498047 -1.40019531 100.12480469 -1.44335938 101.33007812 C-1.48267578 102.56177734 -1.52199219 103.79347656 -1.5625 105.0625 C-1.62727539 106.91584961 -1.62727539 106.91584961 -1.69335938 108.80664062 C-1.79984198 111.87097335 -1.90185424 114.93539073 -2 118 C-9.35229759 118.49015317 -9.35229759 118.49015317 -12.3125 116.25 C-12.869375 115.5075 -13.42625 114.765 -14 114 C-14.5775 113.2575 -15.155 112.515 -15.75 111.75 C-16.36875 110.88375 -16.36875 110.88375 -17 110 C-22.27395157 110.38955324 -25.15298311 113.27139025 -29 116.5625 C-34.88574641 121.45889819 -40.84744654 125.58064285 -47.48828125 129.37890625 C-50.22852508 130.91130814 -50.22852508 130.91130814 -52 134 C-54.3828125 134.94921875 -54.3828125 134.94921875 -57.125 135.6875 C-58.49011719 136.06455078 -58.49011719 136.06455078 -59.8828125 136.44921875 C-60.93082031 136.72185547 -60.93082031 136.72185547 -62 137 C-62 137.66 -62 138.32 -62 139 C-69.94384644 143.04160608 -77.73749971 146.32045883 -86.23046875 149.03515625 C-88.92094916 149.90261175 -88.92094916 149.90261175 -91.01953125 151.02734375 C-105.00441125 157.89565759 -123.98345336 158.40341656 -139 156 C-139 155.34 -139 154.68 -139 154 C-140.65 154 -142.3 154 -144 154 C-144.33 153.01 -144.66 152.02 -145 151 C-146.33066073 150.65615279 -147.66440439 150.32415003 -149 150 C-150.703125 148.51171875 -150.703125 148.51171875 -152.25 146.6875 C-152.77078125 146.09324219 -153.2915625 145.49898437 -153.828125 144.88671875 C-155 143 -155 143 -155 139 C-154.34 139 -153.68 139 -153 139 C-152.07510999 140.21354995 -151.20950122 141.47260707 -150.375 142.75 C-146.5421663 148.07076423 -142.07176423 149.97607859 -136 152 C-117.78985886 153.30316379 -102.08283828 151.4816814 -85.13671875 144.734375 C-83 144 -83 144 -80 144 C-80 143.34 -80 142.68 -80 142 C-79.04738281 141.67386719 -78.09476562 141.34773437 -77.11328125 141.01171875 C-75.84625231 140.57060497 -74.57933087 140.12918229 -73.3125 139.6875 C-71.45044922 139.04361328 -71.45044922 139.04361328 -69.55078125 138.38671875 C-66.43027107 137.16803766 -63.8395468 135.74465848 -61 134 C-60.34 134 -59.68 134 -59 134 C-59 133.34 -59 132.68 -59 132 C-57.13256509 130.7168915 -55.20211328 129.52518881 -53.25 128.375 C-52.04848753 127.65399368 -50.8479879 126.9312972 -49.6484375 126.20703125 C-49.03709961 125.83916504 -48.42576172 125.47129883 -47.79589844 125.09228516 C-32.26322312 115.64514141 -18.79277997 103.84383834 -5.9375 91.0625 C-5.36467285 90.4943457 -4.7918457 89.92619141 -4.20166016 89.34082031 C-1.23731739 86.4461369 -1.23731739 86.4461369 1 83 C-1.475 83.99 -1.475 83.99 -4 85 C-2.3759051 81.20142248 0.06406586 78.42574184 2.75 75.3125 C11.34656466 65.17071055 18.99960158 53.79597641 23 41 C23.30744141 40.05060547 23.30744141 40.05060547 23.62109375 39.08203125 C25.93997422 31.0698994 26.06449985 23.51948048 22.2578125 15.97265625 C19.27878899 11.30058521 14.88162114 8.26038138 9.65234375 6.50390625 C-1.08618735 4.46374349 -11.655639 5.86360126 -22 9 C-24.66156982 9.68887689 -27.32989174 10.34458389 -30 11 C-29.40050537 10.98952637 -28.80101074 10.97905273 -28.18334961 10.96826172 C-25.4347767 10.92637163 -22.68627126 10.90056997 -19.9375 10.875 C-18.52307617 10.84986328 -18.52307617 10.84986328 -17.08007812 10.82421875 C-11.63476062 10.78627229 -7.14500612 11.18747357 -2 13 C-4.60184784 14.30092392 -6.47270755 14.09674212 -9.3828125 14.0625 C-10.46820313 14.05476563 -11.55359375 14.04703125 -12.671875 14.0390625 C-14.95052385 14.01328593 -17.22916978 13.98724977 -19.5078125 13.9609375 C-31.0780391 13.80165872 -31.0780391 13.80165872 -42.0390625 17.125 C-44.37911406 18.16916643 -46.7644023 18.9793432 -49.1875 19.8125 C-54.55429691 21.71277664 -59.47160758 24.21022886 -64.46875 26.92578125 C-67 28 -67 28 -70 27 C-68.52876855 24.0575371 -66.37191474 23.54262714 -63.4375 22.125 C-62.35082031 21.59648438 -61.26414062 21.06796875 -60.14453125 20.5234375 C-59.10683594 20.02070312 -58.06914063 19.51796875 -57 19 C-55.54054701 18.25218111 -54.08201605 17.50255586 -52.625 16.75 C-50.2474271 15.5488045 -48.12715493 14.71434161 -45.5625 13.875 C-42.84914167 13.28322227 -42.84914167 13.28322227 -42 11 C-40.1015625 10.34570312 -40.1015625 10.34570312 -37.625 9.78125 C-36.72136719 9.57113281 -35.81773437 9.36101562 -34.88671875 9.14453125 C-33.93410156 8.93183594 -32.98148437 8.71914062 -32 8.5 C-31.07832031 8.28730469 -30.15664062 8.07460937 -29.20703125 7.85546875 C-27.35764395 7.43029226 -25.50661912 7.01217789 -23.65405273 6.60107422 C-21.98947124 6.22408961 -20.32906045 5.82759553 -18.67602539 5.40283203 C-12.87208573 3.9507217 -7.40379521 3.76118953 -1.4375 3.875 C-0.52419922 3.88402344 0.38910156 3.89304687 1.33007812 3.90234375 C3.55367319 3.92562747 5.77668677 3.9583229 8 4 C8 3.34 8 2.68 8 2 C5.36 1.67 2.72 1.34 0 1 C0 0.67 0 0.34 0 0 Z " fill="#3E63A8" transform="translate(171,79)"/>
<path d="M0 0 C10.89 0 21.78 0 33 0 C33 5.28 33 10.56 33 16 C30.36 16 27.72 16 25 16 C25 28.54 25 41.08 25 54 C27.97 54 30.94 54 34 54 C34 58.62 34 63.24 34 68 C29.66641418 70.16679291 27.59314121 70.23437001 22.828125 70.1953125 C22.1457074 70.1924826 21.46328979 70.18965271 20.76019287 70.18673706 C18.58994693 70.17558098 16.42012029 70.15048557 14.25 70.125 C12.77474556 70.11496426 11.29948463 70.10583944 9.82421875 70.09765625 C6.21585603 70.07736175 2.60839496 70.03820653 -1 70 C-1 64.72 -1 59.44 -1 54 C1.64 54 4.28 54 7 54 C7 41.46 7 28.92 7 16 C4.69 16 2.38 16 0 16 C0 10.72 0 5.44 0 0 Z " fill="#F2F5F9" transform="translate(71,127)"/>
<path d="M0 0 C6.41637902 3.67389444 10.33071895 9.68793819 12.375 16.75 C12.7938517 20.26835426 12.6875 23.8318018 12.6875 27.375 C-0.5125 27.375 -13.7125 27.375 -27.3125 27.375 C-26.36268503 39.99196797 -26.36268503 39.99196797 -19.1875 49.3125 C-13.95406414 53.06692138 -9.63431527 52.84062945 -3.3125 52.375 C2.14655359 50.75750264 4.08988566 47.75762881 6.8046875 43.01953125 C7.09601563 42.47683594 7.38734375 41.93414062 7.6875 41.375 C9.3375 41.705 10.9875 42.035 12.6875 42.375 C10.89080732 48.30408585 7.17287997 52.86976988 1.9140625 56.0546875 C-4.18643715 58.55101786 -11.59310109 58.72856041 -17.82421875 56.4609375 C-24.54300593 52.49365364 -28.89623225 46.72664484 -31.58203125 39.48046875 C-33.915142 29.56162891 -33.67600238 18.23643871 -28.3125 9.375 C-21.86630345 -0.46593911 -11.20547938 -5.02241825 0 0 Z " fill="#0F2C68" transform="translate(301.3125,134.625)"/>
<path d="M0 0 C5.74019719 4.39464559 8.92276244 10.55246681 10.81640625 17.390625 C10.81640625 20.360625 10.81640625 23.330625 10.81640625 26.390625 C-2.71359375 26.390625 -16.24359375 26.390625 -30.18359375 26.390625 C-28.18464208 40.0025815 -28.18464208 40.0025815 -20.12109375 49.953125 C-15.1183695 52.33380737 -9.56612332 52.11677989 -4.18359375 51.390625 C1.2886076 48.94767797 3.23254229 45.55835292 5.81640625 40.390625 C7.13640625 40.720625 8.45640625 41.050625 9.81640625 41.390625 C9.39470207 46.16993909 7.27780434 49.22418314 3.81640625 52.390625 C-2.45611865 57.20994082 -9.5500239 57.32893832 -17.18359375 56.390625 C-23.2732608 54.61585865 -27.73470999 49.51493549 -31.18359375 44.390625 C-35.69616897 35.34952907 -35.49918668 23.66894099 -33.18359375 14.015625 C-30.75710847 7.15965952 -25.94018452 2.07520825 -19.80859375 -1.671875 C-12.81730956 -3.47996574 -6.40064071 -3.67228679 0 0 Z " fill="#112E6A" transform="translate(422.18359375,135.609375)"/>
<path d="M0 0 C7 0 7 0 9.63061523 1.80419922 C10.8324646 3.04194092 10.8324646 3.04194092 12.05859375 4.3046875 C13.37827148 5.64466797 13.37827148 5.64466797 14.72460938 7.01171875 C16.06749023 8.42904297 16.06749023 8.42904297 17.4375 9.875 C18.35982422 10.81214844 19.28214844 11.74929687 20.23242188 12.71484375 C27 19.67778497 27 19.67778497 27 22 C27.87398437 22.14501953 27.87398437 22.14501953 28.765625 22.29296875 C31.46553668 23.14731143 32.75371035 24.32047593 34.75 26.3125 C35.67039062 27.20388672 35.67039062 27.20388672 36.609375 28.11328125 C38 30 38 30 38 34 C36.42578125 35.88671875 36.42578125 35.88671875 34.3125 37.6875 C33.62800781 38.28949219 32.94351563 38.89148438 32.23828125 39.51171875 C29.78832904 41.14074457 27.89462368 41.61979549 25 42 C25 41.34 25 40.68 25 40 C22.66785852 38.79371992 20.50357861 37.8345262 18 37 C18.15082031 37.97839844 18.30164063 38.95679688 18.45703125 39.96484375 C19.3789944 50.26854178 19.3789944 50.26854178 16.75634766 53.56152344 C13.20038527 56.63962248 9.1227234 58.77966439 5 61 C4.34 61.66 3.68 62.32 3 63 C2.01 63 1.02 63 0 63 C0 42.21 0 21.42 0 0 Z " fill="#F6F7FA" transform="translate(109,127)"/>
<path d="M0 0 C8 0 8 0 10.19897461 2.12597656 C10.76108643 3.12081055 11.32319824 4.11564453 11.90234375 5.140625 C12.5564624 6.26033691 13.21058105 7.38004883 13.88452148 8.53369141 C14.56920089 9.77226574 15.25351754 11.01104066 15.9375 12.25 C16.66755452 13.52050367 17.40076291 14.78919979 18.13696289 16.05615234 C19.66974969 18.69904252 21.18853692 21.34930226 22.69921875 24.00488281 C24.90812676 27.86649055 27.20165984 31.67116543 29.53125 35.4609375 C29.8994838 36.05999908 30.26771759 36.65906067 30.64710999 37.27627563 C31.38144477 38.46987964 32.11602583 39.66333216 32.8508606 40.85662842 C39.9137054 52.35053707 46.96266996 63.92533991 53 76 C53.33 50.92 53.66 25.84 54 0 C55.32 0 56.64 0 58 0 C58 27.39 58 54.78 58 83 C56.02 83 54.04 83 52 83 C50.17276036 80.9168812 49.01146329 79.2003571 47.6875 76.8125 C47.27781982 76.11761475 46.86813965 75.42272949 46.44604492 74.70678711 C45.49558596 73.08822596 44.55574318 71.46340474 43.62402344 69.83398438 C41.80625792 66.6619125 39.95604595 63.51011823 38.1015625 60.359375 C35.936095 56.67910891 33.77288618 52.99760896 31.62109375 49.30932617 C26.09511773 39.83809339 20.48525524 30.42113459 14.8215332 21.03149414 C13.95661255 19.59664673 13.95661255 19.59664673 13.07421875 18.1328125 C12.57494873 17.30668457 12.07567871 16.48055664 11.5612793 15.62939453 C9.66882415 12.4422574 7.83901175 9.21827056 6 6 C5.67 31.41 5.34 56.82 5 83 C3.35 83 1.7 83 0 83 C0 55.61 0 28.22 0 0 Z " fill="#18326D" transform="translate(567,108)"/>
<path d="M0 0 C2.64 0 5.28 0 8 0 C8 0.66 8 1.32 8 2 C5.69 2 3.38 2 1 2 C1 22.79 1 43.58 1 65 C5.78145058 62.13112965 10.12411461 58.9866257 14.57421875 55.64453125 C17 54 17 54 19 54 C19 49.05 19 44.1 19 39 C23 40 23 40 26 42 C26 42.66 26 43.32 26 44 C30.380042 42.71175235 32.68378209 40.53345405 35.66796875 37.2421875 C37 36 37 36 39 36 C38.67 34.35 38.34 32.7 38 31 C38.66 31 39.32 31 40 31 C40.01981934 30.16227051 40.03963867 29.32454102 40.06005859 28.46142578 C40.13810612 25.35634166 40.22479635 22.25165461 40.31738281 19.14697266 C40.37454036 17.14113029 40.42168596 15.13501082 40.46875 13.12890625 C40.50742188 11.87207031 40.54609375 10.61523438 40.5859375 9.3203125 C40.63306885 7.57645264 40.63306885 7.57645264 40.68115234 5.79736328 C41 3 41 3 43 1 C44.97119141 0.77294922 44.97119141 0.77294922 47.3515625 0.8046875 C48.20234375 0.81113281 49.053125 0.81757812 49.9296875 0.82421875 C51.26386719 0.84935547 51.26386719 0.84935547 52.625 0.875 C53.97078125 0.88853516 53.97078125 0.88853516 55.34375 0.90234375 C57.56276586 0.9259503 59.78125077 0.9588769 62 1 C62 2.65 62 4.3 62 6 C63.32 5.67 64.64 5.34 66 5 C61.69310692 16.40416758 54.41730487 26.34843979 45 34 C41.78370902 37.44213223 38.78229648 41.08036403 35.73046875 44.66796875 C34.95316406 45.56128906 34.17585938 46.45460937 33.375 47.375 C32.66085938 48.20773438 31.94671875 49.04046875 31.2109375 49.8984375 C28.85353563 52.13921878 27.02199511 52.90152876 24 54 C22.00278636 55.36166997 22.00278636 55.36166997 20.25 56.9375 C19.65703125 57.44152344 19.0640625 57.94554687 18.453125 58.46484375 C16.74909748 60.04853832 16.74909748 60.04853832 16 63 C13.73587514 64.18431147 11.41866912 65.03088514 9.03125 65.9375 C6.65380285 66.88183179 6.65380285 66.88183179 6 70 C4.109375 70.84375 4.109375 70.84375 1.75 71.5 C-1.86710751 72.59032427 -4.84722491 73.86424913 -8 76 C-8 75.01 -8 74.02 -8 73 C-18.23 73 -28.46 73 -39 73 C-39 67.39 -39 61.78 -39 56 C-38.67 56 -38.34 56 -38 56 C-38 61.28 -38 66.56 -38 72 C-33.65818425 71.87996156 -29.31661561 71.75724715 -24.97509766 71.62768555 C-23.4989061 71.58443965 -22.02266785 71.54275744 -20.54638672 71.50268555 C-18.42140652 71.44473154 -16.29665907 71.38111054 -14.171875 71.31640625 C-12.8940918 71.27974854 -11.61630859 71.24309082 -10.29980469 71.20532227 C-6.8487208 71.09096884 -6.8487208 71.09096884 -3 70 C-3 65.38 -3 60.76 -3 56 C-2.67 56 -2.34 56 -2 56 C-1.97421875 56.77085937 -1.9484375 57.54171875 -1.921875 58.3359375 C-1.86515625 59.33882812 -1.8084375 60.34171875 -1.75 61.375 C-1.70359375 62.37273437 -1.6571875 63.37046875 -1.609375 64.3984375 C-1.27839115 67.1526477 -1.27839115 67.1526477 1.046875 68.3515625 C1.69140625 68.56554687 2.3359375 68.77953125 3 69 C3 68.34 3 67.68 3 67 C2.01 67 1.02 67 0 67 C0 44.89 0 22.78 0 0 Z " fill="#6280B8" transform="translate(108,125)"/>
<path d="M0 0 C0.33 0 0.66 0 1 0 C1.22390879 14.14539415 1.40395197 28.29122786 1.5625 42.4375 C1.57523327 43.57193794 1.58796654 44.70637589 1.60108566 45.87519073 C2.22730179 103.04213625 1.88038458 160.20700405 1.5625 217.375 C1.55610205 218.5290513 1.5497041 219.6831026 1.54311228 220.87212515 C1.37627308 250.91483913 1.1953169 280.95745795 1 311 C0.67 311 0.34 311 0 311 C0 244.67 0 178.34 0 110 C-8.58 110 -17.16 110 -26 110 C-26 136.07 -26 162.14 -26 189 C-27.65 189 -29.3 189 -31 189 C-31 162.93 -31 136.86 -31 110 C-39.91 110 -48.82 110 -58 110 C-58 108.68 -58 107.36 -58 106 C-38.86 106 -19.72 106 0 106 C0 71.02 0 36.04 0 0 Z " fill="#2F477C" transform="translate(763,2)"/>
<path d="M0 0 C0.66 0 1.32 0 2 0 C0.78999428 4.17794428 -1.22300744 6.2163679 -4.39355469 9.09912109 C-10.84423551 15.23840275 -12.73474201 20.3578373 -13.19702148 29.27270508 C-13.27424083 34.52326465 -13.23904418 39.75404531 -13 45 C-20.35229759 45.49015317 -20.35229759 45.49015317 -23.3125 43.25 C-23.869375 42.5075 -24.42625 41.765 -25 41 C-25.5775 40.2575 -26.155 39.515 -26.75 38.75 C-27.36875 37.88375 -27.36875 37.88375 -28 37 C-33.27395157 37.38955324 -36.15298311 40.27139025 -40 43.5625 C-45.88574641 48.45889819 -51.84744654 52.58064285 -58.48828125 56.37890625 C-61.22852508 57.91130814 -61.22852508 57.91130814 -63 61 C-65.3828125 61.94921875 -65.3828125 61.94921875 -68.125 62.6875 C-69.03507812 62.93886719 -69.94515625 63.19023437 -70.8828125 63.44921875 C-71.58148438 63.63097656 -72.28015625 63.81273437 -73 64 C-73 64.66 -73 65.32 -73 66 C-80.94384644 70.04160608 -88.73749971 73.32045883 -97.23046875 76.03515625 C-99.92094916 76.90261175 -99.92094916 76.90261175 -102.01953125 78.02734375 C-116.00441125 84.89565759 -134.98345336 85.40341656 -150 83 C-150 82.34 -150 81.68 -150 81 C-151.65 81 -153.3 81 -155 81 C-155.33 80.01 -155.66 79.02 -156 78 C-157.33066073 77.65615279 -158.66440439 77.32415003 -160 77 C-161.703125 75.51171875 -161.703125 75.51171875 -163.25 73.6875 C-163.77078125 73.09324219 -164.2915625 72.49898438 -164.828125 71.88671875 C-166 70 -166 70 -166 66 C-165.34 66 -164.68 66 -164 66 C-163.07510999 67.21354995 -162.20950122 68.47260707 -161.375 69.75 C-157.5421663 75.07076423 -153.07176423 76.97607859 -147 79 C-128.78985886 80.30316379 -113.08283828 78.4816814 -96.13671875 71.734375 C-94 71 -94 71 -91 71 C-91 70.34 -91 69.68 -91 69 C-90.04738281 68.67386719 -89.09476562 68.34773438 -88.11328125 68.01171875 C-86.84625231 67.57060497 -85.57933087 67.12918229 -84.3125 66.6875 C-82.45044922 66.04361328 -82.45044922 66.04361328 -80.55078125 65.38671875 C-77.43027107 64.16803766 -74.8395468 62.74465848 -72 61 C-71.34 61 -70.68 61 -70 61 C-70 60.34 -70 59.68 -70 59 C-68.13256509 57.7168915 -66.20211328 56.52518881 -64.25 55.375 C-63.04848753 54.65399368 -61.8479879 53.9312972 -60.6484375 53.20703125 C-60.03709961 52.83916504 -59.42576172 52.47129883 -58.79589844 52.09228516 C-49.95624407 46.71591027 -41.91132361 40.64901132 -34 34 C-31.59579138 32.00461937 -29.33928357 30.19046524 -26.61328125 28.66015625 C-22.99900352 26.36409043 -20.18275513 23.4786672 -17.1875 20.4375 C-16.26372559 19.50683716 -16.26372559 19.50683716 -15.32128906 18.55737305 C-9.65270762 12.77622508 -4.49871392 6.74807088 0 0 Z " fill="#B5C4DE" transform="translate(182,152)"/>
<path d="M0 0 C16.5 0 33 0 50 0 C50 1.32 50 2.64 50 4 C35.15 4 20.3 4 5 4 C5 14.89 5 25.78 5 37 C16.22 37 27.44 37 39 37 C39 38.32 39 39.64 39 41 C27.78 41 16.56 41 5 41 C5 54.86 5 68.72 5 83 C3.35 83 1.7 83 0 83 C0 55.61 0 28.22 0 0 Z " fill="#17326C" transform="translate(648,108)"/>
<path d="M0 0 C3.98561154 2.62688033 6.23980531 5.28191592 7.75 9.8125 C8.28818855 16.27076265 7.49703632 19.50419854 3.75 24.8125 C-0.21163774 28.41398885 -3.85776443 29.11542224 -9.19140625 29.02734375 C-13.72889622 28.55379167 -16.531041 26.58975298 -19.5625 23.3125 C-22.47032904 19.00460512 -22.77930947 14.88424715 -22.25 9.8125 C-20.53271412 5.11255971 -18.38393334 2.60290501 -14.25 -0.1875 C-9.22141801 -1.863694 -4.90969589 -1.79392735 0 0 Z " fill="#FCFCFD" transform="translate(240.25,138.1875)"/>
<path d="M0 0 C3.125 1.6875 3.125 1.6875 5 4 C5.65890052 8.02661431 5.45673753 10.16264787 3.5 13.75 C-3.27342171 19.84607954 -11.32688703 19.63165439 -19.9765625 19.35546875 C-25.84651177 18.98064719 -29.66057251 17.19321327 -34 13.125 C-35.41265789 10.12310199 -35.53573595 8.28138271 -35 5 C-26.35202001 -5.93715117 -12.10783982 -3.79943556 0 0 Z " fill="#FAFBFC" transform="translate(249,188)"/>
<path d="M0 0 C-2.34155015 5.3694427 -6.65192228 8.99131826 -10.75 13.0625 C-12.0340271 14.34024292 -12.0340271 14.34024292 -13.34399414 15.64379883 C-23.69590077 25.81387247 -34.7787433 34.17050042 -47 42 C-48.02996094 42.67546875 -49.05992188 43.3509375 -50.12109375 44.046875 C-57.739 49 -57.739 49 -60 49 C-60 49.66 -60 50.32 -60 51 C-62.18144224 52.15879664 -64.36903017 53.30187378 -66.5625 54.4375 C-67.17158203 54.76298828 -67.78066406 55.08847656 -68.40820312 55.42382812 C-72.65560614 57.60371221 -76.24162667 58.56519369 -81 59 C-81 59.66 -81 60.32 -81 61 C-83.74806285 61.94350158 -86.49826323 62.87981999 -89.25 63.8125 C-90.00796875 64.07353516 -90.7659375 64.33457031 -91.546875 64.60351562 C-102.49138335 68.29728719 -112.5252647 70.51264552 -124.125 70.4375 C-125.22714844 70.45748047 -126.32929687 70.47746094 -127.46484375 70.49804688 C-135.75476517 70.49312996 -142.96895881 69.32780659 -149.5078125 63.9296875 C-150.30832031 62.91261719 -150.30832031 62.91261719 -151.125 61.875 C-151.68445313 61.19179687 -152.24390625 60.50859375 -152.8203125 59.8046875 C-154 58 -154 58 -154 56 C-154.66 56 -155.32 56 -156 56 C-156.33 56.99 -156.66 57.98 -157 59 C-158.5912689 54.126739 -159.21192221 50.19209404 -159 45 C-156.48916886 46.25541557 -156.12874554 47.50063488 -155 50 C-155.061875 48.081875 -155.061875 48.081875 -155.125 46.125 C-155.1953125 43.9453125 -155.1953125 43.9453125 -155 42 C-154.34 41.34 -153.68 40.68 -153 40 C-151.85818182 44.56727273 -151.85818182 44.56727273 -152.609375 46.859375 C-153.41031356 51.24851829 -150.17386921 55.32585486 -148 59 C-144.95706976 63.05724031 -141.88192956 63.87340087 -137 65 C-137 65.66 -137 66.32 -137 67 C-125.53088119 67.44879161 -115.30410474 67.10730327 -104.27539062 63.70214844 C-101.64467836 62.89035354 -99.0021412 62.12317952 -96.359375 61.3515625 C-94.38453898 60.75812127 -92.41057203 60.16178004 -90.4375 59.5625 C-89.50897217 59.28656006 -88.58044434 59.01062012 -87.6237793 58.72631836 C-81.85970512 56.91062715 -77.79935939 54.65013314 -73 51 C-70.48046875 49.8828125 -70.48046875 49.8828125 -68.1875 49.125 C-63.26034354 47.29706256 -59.39448432 44.65834557 -55.2265625 41.48828125 C-53.05929737 40.03963561 -51.49940886 39.56631486 -49 39 C-48.566875 38.401875 -48.13375 37.80375 -47.6875 37.1875 C-45.74887061 34.6744619 -43.6190598 33.61167012 -40.87915039 32.09106445 C-28.36137681 24.82304703 -17.33538174 13.68607114 -7.3671875 3.3046875 C-4.87535971 0.92677184 -3.47330132 0 0 0 Z " fill="#496CAD" transform="translate(172,162)"/>
<path d="M0 0 C3.91424473 2.70818983 5.6699284 6.04370103 7.1875 10.5 C7.69031338 14.12943398 7.65639867 17.68542945 7.578125 21.34375 C7.57246521 22.35344849 7.56680542 23.36314697 7.56097412 24.40344238 C7.538728 27.60279377 7.48855313 30.80099175 7.4375 34 C7.41741982 36.17967123 7.39917172 38.35936016 7.3828125 40.5390625 C7.3389021 45.85976316 7.27210904 51.17979914 7.1875 56.5 C5.5375 56.5 3.8875 56.5 2.1875 56.5 C2.17291748 55.20376709 2.15833496 53.90753418 2.14331055 52.57202148 C2.08514901 47.74297092 2.00791709 42.91437793 1.92504883 38.08569336 C1.89188339 35.99950613 1.86382557 33.91323098 1.84106445 31.8269043 C1.80736431 28.82042121 1.75504032 25.81473775 1.69921875 22.80859375 C1.69282883 21.88227646 1.6864389 20.95595917 1.67985535 20.00157166 C1.55466339 14.43341193 0.82919246 10.43298553 -1.8125 5.5 C-4.23482614 3.5102321 -5.92474325 3.48704886 -9.0625 3.125 C-16.30374708 3.84912471 -21.58306951 7.64410026 -26.8125 12.5 C-28.8350534 15.5338301 -29.06827087 16.18758864 -29.13134766 19.60424805 C-29.15121735 20.42487228 -29.17108704 21.24549652 -29.19155884 22.09098816 C-29.20311005 22.97232925 -29.21466125 23.85367035 -29.2265625 24.76171875 C-29.24592865 25.66751175 -29.2652948 26.57330475 -29.2852478 27.50654602 C-29.34503542 30.40010151 -29.39142568 33.2936968 -29.4375 36.1875 C-29.47568054 38.14910591 -29.51473231 40.11069506 -29.5546875 42.07226562 C-29.65073632 46.8813744 -29.73477043 51.69056166 -29.8125 56.5 C-31.1325 56.5 -32.4525 56.5 -33.8125 56.5 C-33.8125 37.69 -33.8125 18.88 -33.8125 -0.5 C-32.4925 -0.5 -31.1725 -0.5 -29.8125 -0.5 C-29.4825 2.8 -29.1525 6.1 -28.8125 9.5 C-28.24402344 8.95730469 -27.67554688 8.41460937 -27.08984375 7.85546875 C-19.34773953 0.68206667 -10.68111648 -5.1461482 0 0 Z " fill="#1B3670" transform="translate(364.8125,134.5)"/>
<path d="M0 0 C1.65 0 3.3 0 5 0 C9.08778649 11.43003327 9.08778649 11.43003327 11.00146484 16.79663086 C11.22845062 17.43316086 11.4554364 18.06969086 11.68930054 18.72550964 C12.14670564 20.00822468 12.60408272 21.29094971 13.06143188 22.57368469 C14.36644728 26.23167521 15.67936621 29.88668466 17 33.5390625 C17.54169383 35.04686524 18.08336305 36.55467682 18.625 38.0625 C18.8720166 38.73853271 19.1190332 39.41456543 19.37353516 40.11108398 C20.3704743 42.89966102 21 45.00961701 21 48 C21.66 48 22.32 48 23 48 C23.2475 46.7625 23.495 45.525 23.75 44.25 C25.34988491 37.04484454 27.81237952 30.10887236 30.43359375 23.21875 C32.43950905 17.90272674 34.17177872 12.49888653 35.92578125 7.09570312 C37.89406056 1.10593944 37.89406056 1.10593944 39 0 C40.66617115 -0.04063832 42.33388095 -0.042721 44 0 C43.3146813 2.93564347 42.43069422 5.72820247 41.40527344 8.56225586 C41.08113464 9.46096909 40.75699585 10.35968231 40.42303467 11.28562927 C40.07202698 12.25227005 39.72101929 13.21891083 39.359375 14.21484375 C38.99531555 15.22156631 38.6312561 16.22828888 38.25616455 17.26551819 C37.48373568 19.40009289 36.71033363 21.53431566 35.93603516 23.66821289 C34.7660873 26.8931556 33.59958647 30.11932862 32.43359375 33.34570312 C19.22224556 69.85786377 19.22224556 69.85786377 12.3125 75 C8.00609669 76.86222846 4.67417996 77.08819207 0 77 C-0.495 74.525 -0.495 74.525 -1 72 C0.794375 72.0928125 0.794375 72.0928125 2.625 72.1875 C6.77140532 72.40196924 9.50178331 71.2113561 13 69 C15.02449881 66.25324423 15.02449881 66.25324423 16.4375 63.0625 C16.95183594 62.02222656 17.46617187 60.98195312 17.99609375 59.91015625 C19.09041036 56.7379155 18.95144976 56.06474181 18 53 C17.79761719 52.33967773 17.59523438 51.67935547 17.38671875 50.99902344 C12.37202067 35.65376716 7.21881916 20.23299402 0.88012695 5.375 C0 3 0 3 0 0 Z " fill="#1D3871" transform="translate(509,134)"/>
<path d="M0 0 C5.43286025 2.71643012 8.87357781 6.35290785 11.25 11.9375 C12 15 12 15 12 21 C0.45 21 -11.1 21 -23 21 C-22.02361111 12.21249998 -21.2768319 8.68149265 -14.875 3.1875 C-9.97889072 -0.53780054 -6.04628057 -0.66974185 0 0 Z " fill="#FBFBFC" transform="translate(297,137)"/>
<path d="M0 0 C4.49031308 2.50421307 6.45118593 5.61427889 9.25 9.8125 C9.745 14.7625 9.745 14.7625 10.25 19.8125 C-1.3 19.8125 -12.85 19.8125 -24.75 19.8125 C-24.75 12.45998872 -24.10211054 10.2045954 -19.75 4.8125 C-13.61192063 -1.26554925 -8.23999658 -2.60933225 0 0 Z " fill="#FBFBFC" transform="translate(417.75,138.1875)"/>
<path d="M0 0 C0 1.32 0 2.64 0 4 C-0.75925781 4.01417969 -1.51851563 4.02835937 -2.30078125 4.04296875 C-3.29464844 4.09066406 -4.28851563 4.13835937 -5.3125 4.1875 C-6.29863281 4.22230469 -7.28476562 4.25710937 -8.30078125 4.29296875 C-11.12288106 4.76939409 -11.12288106 4.76939409 -12.8125 7 C-14.38509354 10.9728679 -14.56314304 14.5737043 -14.6875 18.8125 C-14.72166016 19.60076172 -14.75582031 20.38902344 -14.79101562 21.20117188 C-14.87299875 23.13363119 -14.93818845 25.06679035 -15 27 C-10.38 27 -5.76 27 -1 27 C-1 28.32 -1 29.64 -1 31 C-5.62 31 -10.24 31 -15 31 C-15 48.49 -15 65.98 -15 84 C-16.65 84 -18.3 84 -20 84 C-20 66.51 -20 49.02 -20 31 C-23.3 31 -26.6 31 -30 31 C-30 29.68 -30 28.36 -30 27 C-26.7 27 -23.4 27 -20 27 C-20.05220703 25.26363281 -20.05220703 25.26363281 -20.10546875 23.4921875 C-20.13362207 21.9531396 -20.16092056 20.41407589 -20.1875 18.875 C-20.21263672 18.11445312 -20.23777344 17.35390625 -20.26367188 16.5703125 C-20.34283594 10.44829127 -19.00337046 6.45574443 -15.0625 1.625 C-10.24234356 -0.93263403 -5.3473812 -0.30702667 0 0 Z " fill="#122F6A" transform="translate(472,107)"/>
<path d="M0 0 C1.32 0 2.64 0 4 0 C4 6.6 4 13.2 4 20 C8.95 20 13.9 20 19 20 C19 21.32 19 22.64 19 24 C14.05 24 9.1 24 4 24 C4.09367004 30.03257915 4.19979496 36.06476339 4.31738281 42.09692383 C4.35562625 44.14829534 4.39048719 46.19973284 4.421875 48.2512207 C4.46762602 51.20287638 4.52560422 54.15407953 4.5859375 57.10546875 C4.59748871 58.02023483 4.60903992 58.93500092 4.62094116 59.87748718 C4.74996038 66.1734119 4.74996038 66.1734119 7 72 C9.70183055 73.35091528 12.11808206 73.33858058 15.125 73.5625 C16.76855469 73.68818359 16.76855469 73.68818359 18.4453125 73.81640625 C19.28835938 73.87699219 20.13140625 73.93757813 21 74 C21 75.32 21 76.64 21 78 C18.77191841 78.10853983 16.54230068 78.18583307 14.3125 78.25 C13.07113281 78.29640625 11.82976562 78.3428125 10.55078125 78.390625 C6.36478488 77.93011935 4.86694119 77.03740797 2 74 C-0.72328089 69.15657303 -0.25336898 64.05886721 -0.1953125 58.66796875 C-0.1924826 57.67622147 -0.18965271 56.68447418 -0.18673706 55.66267395 C-0.17556804 52.50415841 -0.15046927 49.34592943 -0.125 46.1875 C-0.11496597 44.04232181 -0.10584086 41.89713917 -0.09765625 39.75195312 C-0.07563939 34.50119216 -0.0411319 29.25064462 0 24 C-3.3 24 -6.6 24 -10 24 C-10 22.68 -10 21.36 -10 20 C-6.7 20 -3.4 20 0 20 C0 13.4 0 6.8 0 0 Z " fill="#0A2664" transform="translate(485,114)"/>
<path d="M0 0 C0.33 0 0.66 0 1 0 C1 17.82 1 35.64 1 54 C-2.3 53.67 -5.6 53.34 -9 53 C-9 41.12 -9 29.24 -9 17 C-5.04 16.505 -5.04 16.505 -1 16 C-0.67 10.72 -0.34 5.44 0 0 Z " fill="#1D4998" transform="translate(106,127)"/>
<path d="M0 0 C1.32 0 2.64 0 4 0 C4 27.39 4 54.78 4 83 C2.02 83 0.04 83 -2 83 C-4 80 -4 80 -4 77 C-3.01 77 -2.02 77 -1 77 C-0.67 51.59 -0.34 26.18 0 0 Z " fill="#072161" transform="translate(621,108)"/>
<path d="M0 0 C5.94 0 11.88 0 18 0 C18 8 18 8 15.8125 10.5 C14.4203125 11.7375 14.4203125 11.7375 13 13 C11.61394405 15.09877222 10.35438084 17.23869696 9.11328125 19.42578125 C8.74589844 19.94527344 8.37851563 20.46476562 8 21 C7.34 21 6.68 21 6 21 C5.690625 21.78375 5.38125 22.5675 5.0625 23.375 C4 26 4 26 3 28 C2.01 28 1.02 28 0 28 C0 18.76 0 9.52 0 0 Z " fill="#F9FAFC" transform="translate(150,127)"/>
<path d="M0 0 C2.64 0 5.28 0 8 0 C8 0.66 8 1.32 8 2 C5.69 2 3.38 2 1 2 C1 22.79 1 43.58 1 65 C5.78145058 62.13112965 10.12411461 58.9866257 14.57421875 55.64453125 C17 54 17 54 19 54 C19 49.05 19 44.1 19 39 C19.99 39.33 20.98 39.66 22 40 C21.34 40 20.68 40 20 40 C20 44.95 20 49.9 20 55 C20.99 55.495 20.99 55.495 22 56 C21.195625 56.598125 20.39125 57.19625 19.5625 57.8125 C16.77672016 59.80947276 16.77672016 59.80947276 16 63 C13.73587514 64.18431147 11.41866912 65.03088514 9.03125 65.9375 C6.65380285 66.88183179 6.65380285 66.88183179 6 70 C4.109375 70.84375 4.109375 70.84375 1.75 71.5 C-1.86710751 72.59032427 -4.84722491 73.86424913 -8 76 C-8 75.01 -8 74.02 -8 73 C-18.23 73 -28.46 73 -39 73 C-39 67.39 -39 61.78 -39 56 C-38.67 56 -38.34 56 -38 56 C-38 61.28 -38 66.56 -38 72 C-33.65818425 71.87996156 -29.31661561 71.75724715 -24.97509766 71.62768555 C-23.4989061 71.58443965 -22.02266785 71.54275744 -20.54638672 71.50268555 C-18.42140652 71.44473154 -16.29665907 71.38111054 -14.171875 71.31640625 C-12.8940918 71.27974854 -11.61630859 71.24309082 -10.29980469 71.20532227 C-6.8487208 71.09096884 -6.8487208 71.09096884 -3 70 C-3 65.38 -3 60.76 -3 56 C-2.67 56 -2.34 56 -2 56 C-1.97421875 56.77085937 -1.9484375 57.54171875 -1.921875 58.3359375 C-1.86515625 59.33882812 -1.8084375 60.34171875 -1.75 61.375 C-1.70359375 62.37273437 -1.6571875 63.37046875 -1.609375 64.3984375 C-1.27839115 67.1526477 -1.27839115 67.1526477 1.046875 68.3515625 C1.69140625 68.56554687 2.3359375 68.77953125 3 69 C3 68.34 3 67.68 3 67 C2.01 67 1.02 67 0 67 C0 44.89 0 22.78 0 0 Z " fill="#6280B8" transform="translate(108,125)"/>
<path d="M0 0 C0.66 0 1.32 0 2 0 C2.92489001 1.21354995 3.79049878 2.47260707 4.625 3.75 C8.4578337 9.07076423 12.92823577 10.97607859 19 13 C37.21014114 14.30316379 52.91716172 12.4816814 69.86328125 5.734375 C72 5 72 5 75 5 C75 4.34 75 3.68 75 3 C77.475 2.505 77.475 2.505 80 2 C80 2.99 80 3.98 80 5 C77.25878572 7.5825792 74.59838822 8.60256412 71 9.5625 C68.53975101 10.22631718 66.30686307 10.8447419 64.03125 11.99609375 C50.05368109 18.90423838 31.02321977 19.4044846 16 17 C16 16.34 16 15.68 16 15 C14.35 15 12.7 15 11 15 C10.67 14.01 10.34 13.02 10 12 C8.66933927 11.65615279 7.33559561 11.32415003 6 11 C4.296875 9.51171875 4.296875 9.51171875 2.75 7.6875 C2.22921875 7.09324219 1.7084375 6.49898437 1.171875 5.88671875 C0 4 0 4 0 0 Z " fill="#A3B5D5" transform="translate(16,218)"/>
<path d="M0 0 C4.51087217 3.455754 7.12803206 7.81613184 9.3828125 12.95703125 C9.8203125 16.39453125 9.8203125 16.39453125 6.8203125 23.39453125 C-5.3896875 23.39453125 -17.5996875 23.39453125 -30.1796875 23.39453125 C-29.8496875 22.07453125 -29.5196875 20.75453125 -29.1796875 19.39453125 C-29.1796875 20.38453125 -29.1796875 21.37453125 -29.1796875 22.39453125 C-17.6296875 22.39453125 -6.0796875 22.39453125 5.8203125 22.39453125 C3.90155025 11.94377809 3.90155025 11.94377809 -2.1796875 4.39453125 C-6.52755092 2.12608077 -11.3400682 1.61051292 -16.1796875 2.39453125 C-20.59305366 4.68608676 -23.25281781 7.42235095 -26.1796875 11.39453125 C-26.8396875 12.05453125 -27.4996875 12.71453125 -28.1796875 13.39453125 C-28.8396875 13.39453125 -29.4996875 13.39453125 -30.1796875 13.39453125 C-31.80483218 14.85286483 -31.80483218 14.85286483 -33.1796875 16.39453125 C-31.99234352 9.41888535 -28.33975935 5.12066653 -23.1796875 0.39453125 C-15.96787991 -4.0126845 -7.36267724 -4.21789 0 0 Z " fill="#1B3670" transform="translate(422.1796875,135.60546875)"/>
<path d="M0 0 C6.30749402 0.53453339 10.33992005 1.09598259 14.7890625 5.953125 C21.81892971 14.45839644 22.93591639 23.01218496 22.25585938 33.83642578 C21.55486078 39.76414483 19.62805505 45.66245721 17 51 C15.515 51.495 15.515 51.495 14 52 C13.67 53.98 13.34 55.96 13 58 C12.34 58 11.68 58 11 58 C10.773125 58.680625 10.54625 59.36125 10.3125 60.0625 C8.64427643 63.79614324 6.44270392 66.72163421 4 70 C3.67 69.01 3.34 68.02 3 67 C3.93138068 65.30355661 4.87400871 63.61162287 5.890625 61.96484375 C7.01776661 59.96853308 7.76257707 58.04220407 8.5 55.875 C9.44117383 53.18958553 10.08883547 51.89728399 12 49.6875 C18.22738427 41.31945239 17.73765219 29.96349924 17 20 C16.02712281 13.76832719 13.54918596 9.64085466 8.91796875 5.375 C6.0296508 3.30435251 3.47804332 2.63882428 0 2 C0 1.34 0 0.68 0 0 Z " fill="#BBC8E0" transform="translate(182,81)"/>
<path d="M0 0 C5.66990185 3.24158025 8.25409174 7.29147934 10.6875 13.375 C10.0275 17.005 9.3675 20.635 8.6875 24.375 C-3.5225 24.375 -15.7325 24.375 -28.3125 24.375 C-27.9825 23.715 -27.6525 23.055 -27.3125 22.375 C-15.7625 22.705 -4.2125 23.035 7.6875 23.375 C5.44947428 11.77996875 5.44947428 11.77996875 -2.16796875 4.25 C-6.11760938 2.63848907 -10.13053099 2.83901979 -14.3125 3.375 C-18.79233727 5.61491864 -21.35345248 8.39559126 -24.3125 12.375 C-25.2918879 13.39519573 -26.29145449 14.39649805 -27.3125 15.375 C-28.034375 16.096875 -28.75625 16.81875 -29.5 17.5625 C-30.3971875 18.4596875 -30.3971875 18.4596875 -31.3125 19.375 C-30.82688959 12.90019455 -28.09678025 7.88790791 -23.30859375 3.56640625 C-16.24321022 -1.85949602 -8.46807202 -3.87985809 0 0 Z " fill="#19366F" transform="translate(301.3125,134.625)"/>
<path d="M0 0 C15.84 0 31.68 0 48 0 C48 1.32 48 2.64 48 4 C32.82 4 17.64 4 2 4 C2 14.89 2 25.78 2 37 C1.34 37 0.68 37 0 37 C0 24.79 0 12.58 0 0 Z " fill="#001F5F" transform="translate(650,108)"/>
<path d="M0 0 C1.32 0 2.64 0 4 0 C4.33 3.3 4.66 6.6 5 10 C6.32 8.68 7.64 7.36 9 6 C9.66 6.33 10.32 6.66 11 7 C11 10 11 10 8.5625 12.625 C7.716875 13.40875 6.87125 14.1925 6 15 C3.84543031 17.15456969 4.73973374 22.0711627 4.68359375 25.06640625 C4.66281265 25.97502914 4.64203156 26.88365204 4.62062073 27.81980896 C4.55502328 30.73395946 4.4961932 33.64820304 4.4375 36.5625 C4.39432446 38.53321291 4.35071049 40.50391626 4.30664062 42.47460938 C4.19933157 47.31630988 4.09809325 52.15810437 4 57 C2.68 57 1.36 57 0 57 C0 38.19 0 19.38 0 0 Z " fill="#082463" transform="translate(331,134)"/>
<path d="M0 0 C0.66 0.33 1.32 0.66 2 1 C1.731875 2.11375 1.46375 3.2275 1.1875 4.375 C0.33829043 11.00355245 4.02968352 16.37291137 7.875 21.5 C10.73863666 23.52139058 13.61035664 24.21777461 17 25 C17 25.66 17 26.32 17 27 C27.65188572 27.31884802 37.73516473 27.09118242 48.21044922 24.97924805 C54.69713556 23.69782629 54.69713556 23.69782629 58 25 C49.83272568 30.44484955 39.38484769 30.49910679 29.875 30.4375 C28.77285156 30.45748047 27.67070313 30.47746094 26.53515625 30.49804688 C18.24523483 30.49312996 11.03104119 29.32780659 4.4921875 23.9296875 C3.69167969 22.91261719 3.69167969 22.91261719 2.875 21.875 C2.31554687 21.19179687 1.75609375 20.50859375 1.1796875 19.8046875 C0 18 0 18 0 16 C-0.66 16 -1.32 16 -2 16 C-2.33 16.99 -2.66 17.98 -3 19 C-4.5912689 14.126739 -5.21192221 10.19209404 -5 5 C-2.48916886 6.25541557 -2.12874554 7.50063488 -1 10 C-1.020625 8.72125 -1.04125 7.4425 -1.0625 6.125 C-1.125 2.25 -1.125 2.25 0 0 Z " fill="#4468AA" transform="translate(18,202)"/>
<path d="M0 0 C0.66 0 1.32 0 2 0 C1.34 3.63 0.68 7.26 0 11 C12.21 11 24.42 11 37 11 C37 9.35 37 7.7 37 6 C37.99 5.34 38.98 4.68 40 4 C41 5 41 5 41 14 C27.47 14 13.94 14 0 14 C0 16.31 0 18.62 0 21 C-1.32 21.33 -2.64 21.66 -4 22 C-4.738041 6.07061503 -4.738041 6.07061503 0 0 Z " fill="#052362" transform="translate(392,148)"/>
<path d="M0 0 C-1.58941406 0.30744141 -1.58941406 0.30744141 -3.2109375 0.62109375 C-4.59898822 0.89307666 -5.98700744 1.16522044 -7.375 1.4375 C-8.07367188 1.57220703 -8.77234375 1.70691406 -9.4921875 1.84570312 C-13.35628734 2.5772422 -13.35628734 2.5772422 -17 4 C-16.40050537 3.98952637 -15.80101074 3.97905273 -15.18334961 3.96826172 C-12.4347767 3.92637163 -9.68627126 3.90056997 -6.9375 3.875 C-5.99455078 3.85824219 -5.05160156 3.84148437 -4.08007812 3.82421875 C1.36523938 3.78627229 5.85499388 4.18747357 11 6 C8.39815216 7.30092392 6.52729245 7.09674212 3.6171875 7.0625 C2.53179687 7.05476563 1.44640625 7.04703125 0.328125 7.0390625 C-1.95052385 7.01328593 -4.22916978 6.98724977 -6.5078125 6.9609375 C-18.0780391 6.80165872 -18.0780391 6.80165872 -29.0390625 10.125 C-31.37911406 11.16916643 -33.7644023 11.9793432 -36.1875 12.8125 C-41.55429691 14.71277664 -46.47160758 17.21022886 -51.46875 19.92578125 C-54 21 -54 21 -57 20 C-55.52876855 17.0575371 -53.37191474 16.54262714 -50.4375 15.125 C-49.35082031 14.59648438 -48.26414062 14.06796875 -47.14453125 13.5234375 C-46.10683594 13.02070312 -45.06914063 12.51796875 -44 12 C-42.54054701 11.25218111 -41.08201605 10.50255586 -39.625 9.75 C-37.2474271 8.5488045 -35.12715493 7.71434161 -32.5625 6.875 C-29.84914167 6.28322227 -29.84914167 6.28322227 -29 4 C-26.30812281 3.21177077 -23.67098405 2.54213104 -20.9375 1.9375 C-20.19822266 1.76412109 -19.45894531 1.59074219 -18.69726562 1.41210938 C-4.7358279 -1.77593546 -4.7358279 -1.77593546 0 0 Z " fill="#91A7CD" transform="translate(158,86)"/>
<path d="M0 0 C0 3 0 3 -1 6 C-0.01 5.67 0.98 5.34 2 5 C0.94124926 8.40312738 -0.00902154 11.01353231 -2 14 C-1.979375 15.010625 -1.95875 16.02125 -1.9375 17.0625 C-1.958125 18.031875 -1.97875 19.00125 -2 20 C-2.99 20.66 -3.98 21.32 -5 22 C-4.67 20.68 -4.34 19.36 -4 18 C-6.87490169 20.77290961 -9.36000724 23.66344125 -11.8125 26.8125 C-17.96285929 34.42821335 -24.99668353 41.1767886 -32 48 C-32.66 47.67 -33.32 47.34 -34 47 C-33.49025635 46.49549316 -32.9805127 45.99098633 -32.45532227 45.47119141 C-30.15511905 43.19172966 -27.85877123 40.90842239 -25.5625 38.625 C-24.76005859 37.8309375 -23.95761719 37.036875 -23.13085938 36.21875 C-22.36708984 35.45820313 -21.60332031 34.69765625 -20.81640625 33.9140625 C-20.10943604 33.2123291 -19.40246582 32.5105957 -18.67407227 31.78759766 C-16.92780016 30.09306909 -16.92780016 30.09306909 -16 28 C-17.65 28.66 -19.3 29.32 -21 30 C-19.3759051 26.20142248 -16.93593414 23.42574184 -14.25 20.3125 C-8.82716006 13.9365371 -4.20599086 7.24365092 0 0 Z " fill="#7993C2" transform="translate(188,134)"/>
<path d="M0 0 C0 7.59 0 15.18 0 23 C-1.65 23 -3.3 23 -5 23 C-5 22.34 -5 21.68 -5 21 C-5.86625 20.87625 -5.86625 20.87625 -6.75 20.75 C-9.74522583 19.75159139 -11.11085148 18.51886469 -13 16 C-12.90447484 11.71606392 -11.0394348 9.58778758 -8.05078125 6.65039062 C-7.53902344 6.16763672 -7.02726563 5.68488281 -6.5 5.1875 C-5.98824219 4.68541016 -5.47648438 4.18332031 -4.94921875 3.66601562 C-1.16848427 0 -1.16848427 0 0 0 Z " fill="#FAFAFC" transform="translate(167,173)"/>
<path d="M0 0 C0.33 0 0.66 0 1 0 C1.33 14.19 1.66 28.38 2 43 C2.99 43 3.98 43 5 43 C5.28875 43.804375 5.5775 44.60875 5.875 45.4375 C6.73262568 48.1326468 6.73262568 48.1326468 9 49 C11.0374763 49.22858114 13.08040303 49.41024278 15.125 49.5625 C16.22070312 49.64628906 17.31640625 49.73007813 18.4453125 49.81640625 C19.70988281 49.90728516 19.70988281 49.90728516 21 50 C21 51.32 21 52.64 21 54 C18.77191841 54.10853983 16.54230068 54.18583307 14.3125 54.25 C13.07113281 54.29640625 11.82976562 54.3428125 10.55078125 54.390625 C6.36478488 53.93011935 4.86694119 53.03740797 2 50 C-0.72328089 45.15657303 -0.25336898 40.05886721 -0.1953125 34.66796875 C-0.1924826 33.67622147 -0.18965271 32.68447418 -0.18673706 31.66267395 C-0.17556804 28.50415841 -0.15046927 25.34592943 -0.125 22.1875 C-0.11496597 20.04232181 -0.10584086 17.89713917 -0.09765625 15.75195312 C-0.07563945 10.50120479 -0.04219443 5.25062287 0 0 Z " fill="#1E3A72" transform="translate(485,138)"/>
<path d="M0 0 C0.66 0 1.32 0 2 0 C0.78999428 4.17794428 -1.22300744 6.2163679 -4.39355469 9.09912109 C-10.84423551 15.23840275 -12.73474201 20.3578373 -13.19702148 29.27270508 C-13.27424083 34.52326465 -13.23904418 39.75404531 -13 45 C-15.64 45 -18.28 45 -21 45 C-21.495 43.515 -21.495 43.515 -22 42 C-21.34 42 -20.68 42 -20 42 C-20 42.66 -20 43.32 -20 44 C-18.35 44 -16.7 44 -15 44 C-15.33 36.74 -15.66 29.48 -16 22 C-18.6915625 24.660625 -18.6915625 24.660625 -21.4375 27.375 C-22.00267334 27.93106934 -22.56784668 28.48713867 -23.15014648 29.06005859 C-25.92240553 31.76625976 -25.92240553 31.76625976 -28 35 C-28.66 35 -29.32 35 -30 35 C-28.82966028 30.17234868 -25.98629313 28.05646273 -22.34375 25.0078125 C-13.81384913 17.70053075 -6.23275039 9.34912558 0 0 Z " fill="#D2DAEA" transform="translate(182,152)"/>
<path d="M0 0 C6.27 0 12.54 0 19 0 C19 1.65 19 3.3 19 5 C20.32 4.67 21.64 4.34 23 4 C19.59960206 13.00387059 14.04841926 20.59158114 8 28 C8 25 8 25 10 22 C9.01 22 8.02 22 7 22 C8.51731385 17.44805844 10.93035597 13.65996019 14 10 C14.66 9.67 15.32 9.34 16 9 C16.33 6.36 16.66 3.72 17 1 C11.39 1 5.78 1 0 1 C0 0.67 0 0.34 0 0 Z " fill="#5375B1" transform="translate(151,126)"/>
<path d="M0 0 C0.33 0 0.66 0 1 0 C1.52023425 6.82084906 0.79078026 13.01628469 -0.8125 19.625 C-0.97782227 20.33591797 -1.14314453 21.04683594 -1.31347656 21.77929688 C-1.83203125 23.7890625 -1.83203125 23.7890625 -3 27 C-3.99 27.33 -4.98 27.66 -6 28 C-6.33 29.98 -6.66 31.96 -7 34 C-7.66 34 -8.32 34 -9 34 C-9.226875 34.680625 -9.45375 35.36125 -9.6875 36.0625 C-11.35572357 39.79614324 -13.55729608 42.72163421 -16 46 C-16.495 44.515 -16.495 44.515 -17 43 C-16.06861932 41.30355661 -15.12599129 39.61162287 -14.109375 37.96484375 C-12.66762001 35.41131291 -11.78592379 32.78167939 -10.90625 29.9921875 C-10 28 -10 28 -8.0390625 25.71484375 C-5.57897429 22.43943895 -4.83993329 19.65670039 -3.875 15.6875 C-3.71032227 15.02613037 -3.54564453 14.36476074 -3.37597656 13.68334961 C-2.90667532 11.79150802 -2.45291528 9.89583122 -2 8 C-1.58494236 6.35376015 -1.16870075 4.70781704 -0.75 3.0625 C-0.5025 2.051875 -0.255 1.04125 0 0 Z " fill="#CCD6E8" transform="translate(202,105)"/>
<path d="M0 0 C-2.40881831 5.59988585 -7.07096793 9.43966082 -11.3125 13.6875 C-12.16779297 14.56728516 -13.02308594 15.44707031 -13.90429688 16.35351562 C-14.73638672 17.18947266 -15.56847656 18.02542969 -16.42578125 18.88671875 C-17.56140503 20.03466919 -17.56140503 20.03466919 -18.7199707 21.20581055 C-21.21119135 23.16618966 -22.88249482 23.65796475 -26 24 C-22.12596862 18.30289504 -17.67195732 13.47947454 -12.8125 8.625 C-11.8851001 7.6966333 -11.8851001 7.6966333 -10.93896484 6.74951172 C-4.10766339 0 -4.10766339 0 0 0 Z " fill="#26509D" transform="translate(172,162)"/>
<path d="M0 0 C0 1.32 0 2.64 0 4 C-0.74765625 4.01417969 -1.4953125 4.02835937 -2.265625 4.04296875 C-8.59909431 4.18275622 -8.59909431 4.18275622 -13.6875 7.5625 C-14.120625 8.366875 -14.55375 9.17125 -15 10 C-15.99 9.34 -16.98 8.68 -18 8 C-17.98839844 8.70125 -17.97679687 9.4025 -17.96484375 10.125 C-17.91028816 15.86113102 -18.14381623 21.32778253 -19 27 C-19.33 27 -19.66 27 -20 27 C-20.08144943 24.29105233 -20.14070614 21.58458737 -20.1875 18.875 C-20.21263672 18.11445312 -20.23777344 17.35390625 -20.26367188 16.5703125 C-20.34283594 10.44829127 -19.00337046 6.45574443 -15.0625 1.625 C-10.24234356 -0.93263403 -5.3473812 -0.30702667 0 0 Z " fill="#243F76" transform="translate(472,107)"/>
<path d="M0 0 C-1.58941406 0.30744141 -1.58941406 0.30744141 -3.2109375 0.62109375 C-4.59898822 0.89307666 -5.98700744 1.16522044 -7.375 1.4375 C-8.07367188 1.57220703 -8.77234375 1.70691406 -9.4921875 1.84570312 C-13.35628734 2.5772422 -13.35628734 2.5772422 -17 4 C-16.40050537 3.98952637 -15.80101074 3.97905273 -15.18334961 3.96826172 C-12.4347767 3.92637163 -9.68627126 3.90056997 -6.9375 3.875 C-5.99455078 3.85824219 -5.05160156 3.84148437 -4.08007812 3.82421875 C1.36523938 3.78627229 5.85499388 4.18747357 11 6 C8.43867962 7.28066019 6.65772031 7.09733275 3.79296875 7.0625 C2.73650146 7.05412109 1.68003418 7.04574219 0.59155273 7.03710938 C-0.53178467 7.02486328 -1.65512207 7.01261719 -2.8125 7 C-11.60287227 6.94493111 -20.25458355 7.02635523 -29 8 C-25.6615409 5.29294512 -23.29625631 4.48821094 -19 4 C-19 3.34 -19 2.68 -19 2 C-12.77224366 0.05382614 -6.44933736 -1.90191102 0 0 Z " fill="#9EB1D3" transform="translate(158,86)"/>
<path d="M0 0 C-11.14759306 7.43172871 -26.26061505 5.30133189 -39 5 C-39.33 4.34 -39.66 3.68 -40 3 C-38.90945312 2.96261719 -37.81890625 2.92523438 -36.6953125 2.88671875 C-27.59264839 2.51007083 -18.78967317 1.67759534 -9.84033203 -0.0715332 C-3.31837964 -1.30302865 -3.31837964 -1.30302865 0 0 Z " fill="#2C55A0" transform="translate(76,227)"/>
<path d="M0 0 C11.52164009 -0.18451025 11.52164009 -0.18451025 17 1 C17 1.66 17 2.32 17 3 C15.02 2.67 13.04 2.34 11 2 C11 2.66 11 3.32 11 4 C12.134375 4.12375 13.26875 4.2475 14.4375 4.375 C15.613125 4.58125 16.78875 4.7875 18 5 C18.495 5.99 18.495 5.99 19 7 C15.65657081 7.79605457 13.58060042 8.20753734 10.30078125 7.03515625 C6.40824341 5.81441953 2.84383087 5.7399859 -1.1875 5.8125 C-1.93056396 5.81894531 -2.67362793 5.82539062 -3.43920898 5.83203125 C-9.32386286 5.91354144 -15.15562886 6.29312142 -21 7 C-15.16811888 3.11207926 -8.39753196 3.87470191 -1.625 3.9375 C-0.69816406 3.94201172 0.22867188 3.94652344 1.18359375 3.95117188 C3.45579709 3.96288426 5.72786388 3.97928628 8 4 C8 3.34 8 2.68 8 2 C5.36 1.67 2.72 1.34 0 1 C0 0.67 0 0.34 0 0 Z " fill="#5878B3" transform="translate(171,79)"/>
<path d="M0 0 C0.66 0 1.32 0 2 0 C2.92489001 1.21354995 3.79049878 2.47260707 4.625 3.75 C7.3704163 7.56794994 9.86870678 9.39625888 14.16796875 11.2109375 C16 12 16 12 19 14 C18.67 14.33 18.34 14.66 18 15 C24.6 15.66 31.2 16.32 38 17 C38 17.33 38 17.66 38 18 C35.64575325 18.02726927 33.29183038 18.04696719 30.9375 18.0625 C28.97103516 18.07990234 28.97103516 18.07990234 26.96484375 18.09765625 C23.1836481 18.00452335 19.72079293 17.61448726 16 17 C16 16.34 16 15.68 16 15 C14.35 15 12.7 15 11 15 C10.67 14.01 10.34 13.02 10 12 C8.66933927 11.65615279 7.33559561 11.32415003 6 11 C4.296875 9.51171875 4.296875 9.51171875 2.75 7.6875 C2.22921875 7.09324219 1.7084375 6.49898437 1.171875 5.88671875 C0 4 0 4 0 0 Z " fill="#7F98C5" transform="translate(16,218)"/>
<path d="M0 0 C0.33 0 0.66 0 1 0 C1 8.91 1 17.82 1 27 C1.99 27 2.98 27 4 27 C4.309375 26.21625 4.61875 25.4325 4.9375 24.625 C6 22 6 22 7 20 C8.65 20 10.3 20 12 20 C10.56869725 23.16168368 8.82485862 25.62274483 6.5625 28.25 C5.96566406 28.95640625 5.36882812 29.6628125 4.75390625 30.390625 C3 32 3 32 0 32 C0 31.34 0 30.68 0 30 C-0.99 29.67 -1.98 29.34 -3 29 C-2.34 28.67 -1.68 28.34 -1 28 C-0.67 18.76 -0.34 9.52 0 0 Z " fill="#355DA4" transform="translate(149,128)"/>
<path d="M0 0 C5.94 0 11.88 0 18 0 C18 2.64 18 5.28 18 8 C17.01 8.495 17.01 8.495 16 9 C16.33 6.36 16.66 3.72 17 1 C12.05 1 7.1 1 2 1 C2 8.92 2 16.84 2 25 C2.66 25.33 3.32 25.66 4 26 C3.67 26.66 3.34 27.32 3 28 C2.01 28 1.02 28 0 28 C0 18.76 0 9.52 0 0 Z " fill="#B5C3DD" transform="translate(150,127)"/>
<path d="M0 0 C2 1 2 1 3 3 C2.07316406 3.55429688 1.14632812 4.10859375 0.19140625 4.6796875 C-1.01839009 5.41119226 -2.22801676 6.14297768 -3.4375 6.875 C-4.04916016 7.23980469 -4.66082031 7.60460937 -5.29101562 7.98046875 C-8.71542657 9.92151866 -8.71542657 9.92151866 -11 13 C-17.23076923 16 -17.23076923 16 -21 16 C-18.93506643 11.97881358 -17.07786057 9.98665002 -13 8 C-12.34 8 -11.68 8 -11 8 C-11 7.34 -11 6.68 -11 6 C-10.28972656 5.65066406 -9.57945313 5.30132812 -8.84765625 4.94140625 C-7.92855469 4.48636719 -7.00945312 4.03132813 -6.0625 3.5625 C-5.14597656 3.11003906 -4.22945312 2.65757813 -3.28515625 2.19140625 C-1.09471096 1.19474606 -1.09471096 1.19474606 0 0 Z " fill="#3159A2" transform="translate(100,105)"/>
<path d="M0 0 C1.65 0 3.3 0 5 0 C8.15286387 7.08742953 9.7936791 11.5967504 7 19 C4.92782515 15.89173772 3.71574645 12.98123641 2.375 9.5 C1.92898438 8.3553125 1.48296875 7.210625 1.0234375 6.03125 C0 3 0 3 0 0 Z " fill="#17316C" transform="translate(509,134)"/>
<path d="M0 0 C1.625 1.5625 1.625 1.5625 3 4 C2.3125 7.375 2.3125 7.375 1 11 C0.731875 12.093125 0.46375 13.18625 0.1875 14.3125 C-1 17 -1 17 -3.625 18.375 C-4.800625 18.684375 -4.800625 18.684375 -6 19 C-5.74863281 18.02160156 -5.74863281 18.02160156 -5.4921875 17.0234375 C-4.25314465 11.7065321 -3.56806223 8.13409085 -6 3 C-5.01 3.495 -5.01 3.495 -4 4 C-4 4.99 -4 5.98 -4 7 C-3.34 7 -2.68 7 -2 7 C-2 5.68 -2 4.36 -2 3 C-1.34 3 -0.68 3 0 3 C0 2.01 0 1.02 0 0 Z " fill="#223C74" transform="translate(532,179)"/>
<path d="M0 0 C0.99 0 1.98 0 3 0 C1.27068234 7.00897689 -0.83967342 13.50288191 -4 20 C-4.66 19.67 -5.32 19.34 -6 19 C-5.51574723 11.63601816 -4.14918639 6.22377959 0 0 Z " fill="#052060" transform="translate(539,163)"/>
<path d="M0 0 C0 0.66 0 1.32 0 2 C-4.38461538 5 -4.38461538 5 -7 5 C-7 5.66 -7 6.32 -7 7 C-10.00440021 9.00293347 -11.70993945 9.49271626 -15.1875 10.125 C-16.08855469 10.29257813 -16.98960938 10.46015625 -17.91796875 10.6328125 C-18.60503906 10.75398437 -19.29210937 10.87515625 -20 11 C-17.91245752 5.80875679 -13.87402212 4.25383703 -9 2 C-6.03763269 0.91416988 -3.18549051 0 0 0 Z " fill="#486BAC" transform="translate(119,206)"/>
<path d="M0 0 C0.99 0.33 1.98 0.66 3 1 C2.34 1 1.68 1 1 1 C1 5.95 1 10.9 1 16 C1.66 16.33 2.32 16.66 3 17 C1.7934375 17.8971875 1.7934375 17.8971875 0.5625 18.8125 C-2.22327984 20.80947276 -2.22327984 20.80947276 -3 24 C-6.0625 25.1875 -6.0625 25.1875 -9 26 C-8.34 24.68 -7.68 23.36 -7 22 C-7.99 21.67 -8.98 21.34 -10 21 C-8.71283353 19.99421411 -7.42011342 18.99553202 -6.125 18 C-5.40570313 17.443125 -4.68640625 16.88625 -3.9453125 16.3125 C-2 15 -2 15 0 15 C0 10.05 0 5.1 0 0 Z " fill="#5273B1" transform="translate(127,164)"/>
<path d="M0 0 C0 3 0 3 -1 5 C-0.34 5.33 0.32 5.66 1 6 C0.31550781 6.22429687 -0.36898437 6.44859375 -1.07421875 6.6796875 C-4.76952662 8.34726301 -7.65484933 10.61155231 -10.8125 13.125 C-11.40998047 13.59292969 -12.00746094 14.06085938 -12.62304688 14.54296875 C-14.08616792 15.69005565 -15.54366297 16.84431234 -17 18 C-17.33 17.34 -17.66 16.68 -18 16 C-14.25333462 12.14044075 -10.31478678 8.63380746 -6.1875 5.1875 C-5.59001953 4.68541016 -4.99253906 4.18332031 -4.37695312 3.66601562 C-2.91971152 2.44193268 -1.46010135 1.22067038 0 0 Z " fill="#C0CCE2" transform="translate(153,182)"/>
<path d="M0 0 C0 3.52926446 -0.44282871 3.84022933 -2.78125 6.29296875 C-3.66852783 7.23354126 -3.66852783 7.23354126 -4.57373047 8.19311523 C-5.52723389 9.18033569 -5.52723389 9.18033569 -6.5 10.1875 C-7.13695801 10.85789307 -7.77391602 11.52828613 -8.43017578 12.21899414 C-12.87921966 16.88568502 -17.37638304 21.50561457 -22 26 C-22.66 25.67 -23.32 25.34 -24 25 C-23.49025635 24.49549316 -22.9805127 23.99098633 -22.45532227 23.47119141 C-20.15511905 21.19172966 -17.85877123 18.90842239 -15.5625 16.625 C-14.76005859 15.8309375 -13.95761719 15.036875 -13.13085938 14.21875 C-12.36708984 13.45820313 -11.60332031 12.69765625 -10.81640625 11.9140625 C-10.10943604 11.2123291 -9.40246582 10.5105957 -8.67407227 9.78759766 C-6.92780016 8.09306909 -6.92780016 8.09306909 -6 6 C-7.65 6.66 -9.3 7.32 -11 8 C-9.60667426 4.63279613 -8.0210714 3.0140476 -5 1 C-5.33 2.32 -5.66 3.64 -6 5 C-4.02 3.35 -2.04 1.7 0 0 Z " fill="#97ABD0" transform="translate(178,156)"/>
<path d="M0 0 C4.12521724 3.65145279 5.71339995 8.72201194 6.1875 14.14453125 C6.1875 15.76422714 6.10317488 17.38359358 6 19 C5.34 19 4.68 19 4 19 C3.15321949 17.13103445 2.32313789 15.25449819 1.5 13.375 C1.0359375 12.33085937 0.571875 11.28671875 0.09375 10.2109375 C-1.03378221 6.90082508 -1.28481854 4.46868297 -1 1 C-0.67 0.67 -0.34 0.34 0 0 Z " fill="#0F2A67" transform="translate(524,167)"/>
<path d="M0 0 C0.99 0 1.98 0 3 0 C2.68127273 7.012 -0.26830315 13.11468705 -4 19 C-4.99 19.33 -5.98 19.66 -7 20 C-6.30566946 16.89340768 -5.27624677 14.0654733 -4.0625 11.125 C-2.56877931 7.45316295 -1.19445896 3.78245339 0 0 Z " fill="#375EA4" transform="translate(194,120)"/>
<path d="M0 0 C0.66 0 1.32 0 2 0 C2.33 1.32 2.66 2.64 3 4 C3.66 4 4.32 4 5 4 C5.33 4.99 5.66 5.98 6 7 C5.01 8.485 5.01 8.485 4 10 C4.66 10 5.32 10 6 10 C5.25 11.9375 5.25 11.9375 4 14 C2.68 14.33 1.36 14.66 0 15 C0 10.05 0 5.1 0 0 Z " fill="#234E9C" transform="translate(128,165)"/>
<path d="M0 0 C0.99 0 1.98 0 3 0 C3 6.6 3 13.2 3 20 C2.01 20 1.02 20 0 20 C0 13.4 0 6.8 0 0 Z " fill="#001A5C" transform="translate(486,114)"/>
<path d="M0 0 C1.98 0.99 1.98 0.99 4 2 C4 2.66 4 3.32 4 4 C6.97 3.34 9.94 2.68 13 2 C11.193388 5.61322401 10.33581029 6.83748791 7.375 9.25 C6.74335938 9.77078125 6.11171875 10.2915625 5.4609375 10.828125 C4.97882813 11.21484375 4.49671875 11.6015625 4 12 C4 11.34 4 10.68 4 10 C3.34 10 2.68 10 2 10 C2.33 8.02 2.66 6.04 3 4 C2.34 4 1.68 4 1 4 C0.67 2.68 0.34 1.36 0 0 Z " fill="#4367AA" transform="translate(130,165)"/>
<path d="M0 0 C0 3 0 3 -1 6 C-0.01 5.67 0.98 5.34 2 5 C0.72768281 9.97360357 -1.08584614 12.67296922 -5 16 C-5.66 16 -6.32 16 -7 16 C-5.99586692 9.39070617 -4.21048225 5.20770173 0 0 Z " fill="#7993C3" transform="translate(188,134)"/>
<path d="M0 0 C0.66 0.33 1.32 0.66 2 1 C0.66666667 2 -0.66666667 3 -2 4 C-2.86625 4.7115625 -2.86625 4.7115625 -3.75 5.4375 C-6.94490454 7.65618371 -10.32191372 9.70096337 -14 11 C-14.99 10.67 -15.98 10.34 -17 10 C-15.50107627 7.00215255 -13.16758565 6.44139572 -10.1875 5 C-8.60001953 4.2265625 -8.60001953 4.2265625 -6.98046875 3.4375 C-5.99691406 2.963125 -5.01335937 2.48875 -4 2 C-3.25363281 1.5875 -2.50726563 1.175 -1.73828125 0.75 C-1.16464844 0.5025 -0.59101562 0.255 0 0 Z " fill="#7F98C5" transform="translate(118,96)"/>
<path d="M0 0 C0.66 0 1.32 0 2 0 C0.46473873 5.08190913 -2.67369658 8.42477886 -6.125 12.3125 C-6.68832031 12.95767578 -7.25164062 13.60285156 -7.83203125 14.26757812 C-9.21541508 15.85026301 -10.60691045 17.42585141 -12 19 C-12.33 18.01 -12.66 17.02 -13 16 C-12.39671875 15.34773437 -11.7934375 14.69546875 -11.171875 14.0234375 C-6.00798454 8.48240171 -6.00798454 8.48240171 -1.5625 2.375 C-1.046875 1.59125 -0.53125 0.8075 0 0 Z " fill="#E1E6F1" transform="translate(182,152)"/>
<path d="M0 0 C0.33 0.66 0.66 1.32 1 2 C-1.88211302 2.96070434 -3.69850044 3.10581883 -6.6875 3.0625 C-7.89986328 3.04896484 -7.89986328 3.04896484 -9.13671875 3.03515625 C-10.05904297 3.01775391 -10.05904297 3.01775391 -11 3 C-11 2.67 -11 2.34 -11 2 C-16.61 1.67 -22.22 1.34 -28 1 C-28 0.67 -28 0.34 -28 0 C-24.08375299 -0.19706355 -20.16699634 -0.38099159 -16.25 -0.5625 C-15.13882813 -0.61857422 -14.02765625 -0.67464844 -12.8828125 -0.73242188 C-11.81289063 -0.78076172 -10.74296875 -0.82910156 -9.640625 -0.87890625 C-8.65610352 -0.9260376 -7.67158203 -0.97316895 -6.65722656 -1.02172852 C-4.2018019 -1.00165016 -2.29843953 -0.85026511 0 0 Z " fill="#7590C0" transform="translate(65,232)"/>
<path d="M0 0 C0.33 0 0.66 0 1 0 C1.03738281 0.75925781 1.07476562 1.51851562 1.11328125 2.30078125 C1.17902344 3.29464844 1.24476562 4.28851563 1.3125 5.3125 C1.39951172 6.79169922 1.39951172 6.79169922 1.48828125 8.30078125 C1.8079356 11.37096041 1.8079356 11.37096041 5 14 C0.05 16.97 0.05 16.97 -5 20 C-4.67 18.35 -4.34 16.7 -4 15 C-2.68 14.67 -1.36 14.34 0 14 C0 9.38 0 4.76 0 0 Z " fill="#3B62A6" transform="translate(105,181)"/>
<path d="M0 0 C2.6875 -0.3125 2.6875 -0.3125 5 0 C3.33248852 3.94139078 0.77289351 6.7892812 -2 10 C-3.32 9.34 -4.64 8.68 -6 8 C-5.566875 7.608125 -5.13375 7.21625 -4.6875 6.8125 C-2.84514718 4.99919991 -2.84514718 4.99919991 -1.625 2.3125 C-1.08875 1.549375 -0.5525 0.78625 0 0 Z " fill="#5072B0" transform="translate(156,148)"/>
<path d="M0 0 C0 0.66 0 1.32 0 2 C-8.00986343 6.0660091 -8.00986343 6.0660091 -11.8125 5.8125 C-12.534375 5.544375 -13.25625 5.27625 -14 5 C-15.1446875 4.7215625 -15.1446875 4.7215625 -16.3125 4.4375 C-16.869375 4.293125 -17.42625 4.14875 -18 4 C-12.46076421 1.4150233 -6.11010672 0 0 0 Z " fill="#5A7BB4" transform="translate(86,222)"/>
<path d="M0 0 C0.7578125 1.7109375 0.7578125 1.7109375 1 4 C-0.6953125 6.2890625 -0.6953125 6.2890625 -3.125 8.625 C-3.91132813 9.40101563 -4.69765625 10.17703125 -5.5078125 10.9765625 C-7.96084994 12.96821359 -10.01902244 14.01341312 -13 15 C-8.70214922 9.96836982 -4.36574458 4.97281557 0 0 Z " fill="#CBD5E8" transform="translate(157,154)"/>
<path d="M0 0 C2.14227948 2.04234807 3.88446373 4.12698027 5.5625 6.5625 C6.96531348 8.59461298 8.2431353 10.2431353 10 12 C7.69 12 5.38 12 3 12 C-0.42857143 4.71428571 -0.42857143 4.71428571 0 0 Z " fill="#DFE5F1" transform="translate(18,206)"/>
<path d="M0 0 C0.67578125 1.765625 0.67578125 1.765625 1 4 C-0.14453125 5.921875 -0.14453125 5.921875 -1.8125 7.75 C-2.62654297 8.67039063 -2.62654297 8.67039063 -3.45703125 9.609375 C-5 11 -5 11 -7 11 C-5.85485202 5.58657319 -4.65987191 3.0657052 0 0 Z " fill="#3B61A6" transform="translate(179,150)"/>
<path d="M0 0 C-1.43714007 3.35829104 -3.20977399 5.39970698 -5.9375 7.8125 C-6.62714844 8.43769531 -7.31679687 9.06289062 -8.02734375 9.70703125 C-9.00380859 10.34705078 -9.00380859 10.34705078 -10 11 C-10.99 10.67 -11.98 10.34 -13 10 C-11.21371169 8.32722165 -9.4214925 6.66175557 -7.625 5 C-6.86316406 4.28457031 -6.86316406 4.28457031 -6.0859375 3.5546875 C-2.2265625 0 -2.2265625 0 0 0 Z " fill="#2A549F" transform="translate(159,175)"/>
<path d="M0 0 C0.66 0 1.32 0 2 0 C2.10814997 3.16338666 2.00258484 5.98185601 1 9 C-1.45237931 10.97538375 -4.02049588 12.02945538 -7 13 C-5.39516194 8.33138019 -3.02509806 3.90741833 0 0 Z " fill="#4F71AF" transform="translate(193,139)"/>
<path d="M0 0 C1.25425781 0.00902344 2.50851563 0.01804687 3.80078125 0.02734375 C4.75339844 0.03894531 5.70601562 0.05054687 6.6875 0.0625 C6.6875 0.3925 6.6875 0.7225 6.6875 1.0625 C4.7075 1.3925 2.7275 1.7225 0.6875 2.0625 C0.6875 2.3925 0.6875 2.7225 0.6875 3.0625 C-3.6025 3.0625 -7.8925 3.0625 -12.3125 3.0625 C-12.3125 2.4025 -12.3125 1.7425 -12.3125 1.0625 C-8.15623632 0.05323521 -4.26884906 -0.03989579 0 0 Z " fill="#3B61A6" transform="translate(173.3125,77.9375)"/>
<path d="M0 0 C2.31 0 4.62 0 7 0 C7 1.98 7 3.96 7 6 C4.625 6.1875 4.625 6.1875 2 6 C0 3 0 3 0 0 Z " fill="#062463" transform="translate(617,185)"/>
<path d="M0 0 C0.33 1.32 0.66 2.64 1 4 C1.66 4 2.32 4 3 4 C2.67 5.98 2.34 7.96 2 10 C0.68 10 -0.64 10 -2 10 C-2.33 10.99 -2.66 11.98 -3 13 C-4 11 -4 11 -3.22265625 8.3984375 C-2.83980469 7.40070313 -2.45695313 6.40296875 -2.0625 5.375 C-1.68222656 4.37210938 -1.30195312 3.36921875 -0.91015625 2.3359375 C-0.60980469 1.56507813 -0.30945313 0.79421875 0 0 Z " fill="#2E467B" transform="translate(541,153)"/>
<path d="M0 0 C0.66 0 1.32 0 2 0 C3.4375 1.64453125 3.4375 1.64453125 5 3.8125 C5.7734375 4.87404297 5.7734375 4.87404297 6.5625 5.95703125 C7.73318754 7.62080729 8.87153474 9.30730211 10 11 C5.08351995 9.77087999 2.68940779 8.34442797 0 4 C0 2.68 0 1.36 0 0 Z " fill="#8BA1CA" transform="translate(16,218)"/>
<path d="M0 0 C0.66 0.33 1.32 0.66 2 1 C2 1.99 2 2.98 2 4 C0.59054634 4.56016748 -0.8280031 5.09748502 -2.25 5.625 C-3.43335937 6.07746094 -3.43335937 6.07746094 -4.640625 6.5390625 C-7.49917715 7.09752136 -8.58959839 6.53690745 -11 5 C-8.09399739 3.74335022 -6.20395416 3 -3 3 C-3 2.34 -3 1.68 -3 1 C-2.01 0.67 -1.02 0.34 0 0 Z " fill="#9AAED1" transform="translate(94,220)"/>
<path d="M0 0 C-1.5 2 -1.5 2 -4 4 C-6.75871627 4.35800135 -9.20097524 4.18660165 -12 4 C-7.62086703 -0.52510407 -6.25424506 -1.22365664 0 0 Z " fill="#5A7AB4" transform="translate(125,203)"/>
<path d="M0 0 C0.66 0 1.32 0 2 0 C1.1381848 3.23180698 0.51738545 5.48261455 -1.875 7.875 C-4 9 -4 9 -8 9 C-6.533292 5.13322435 -4.52798328 3.99014441 -1 2 C-0.67 1.34 -0.34 0.68 0 0 Z " fill="#264077" transform="translate(219,183)"/>
<path d="M0 0 C2 1 2 1 3 3 C1.56988027 3.86646667 0.13059381 4.71781829 -1.3125 5.5625 C-2.51326172 6.27599609 -2.51326172 6.27599609 -3.73828125 7.00390625 C-6 8 -6 8 -9 7 C-6.3765992 4.08511023 -3.28183606 2.11496102 0 0 Z " fill="#5676B2" transform="translate(100,105)"/>
<path d="M0 0 C0.66 0.33 1.32 0.66 2 1 C0.86500606 4.29148243 0.00716624 4.9959869 -3.125 6.75 C-4.07375 7.1625 -5.0225 7.575 -6 8 C-6.99 7.34 -7.98 6.68 -9 6 C-6.03 4.02 -3.06 2.04 0 0 Z " fill="#B5C3DD" transform="translate(134,197)"/>
<path d="M0 0 C2 1 2 1 2.6328125 2.84765625 C2.79523437 3.57855469 2.95765625 4.30945313 3.125 5.0625 C3.29257812 5.79597656 3.46015625 6.52945313 3.6328125 7.28515625 C3.75398437 7.85105469 3.87515625 8.41695312 4 9 C3.01 9.495 3.01 9.495 2 10 C1.01 9.67 0.02 9.34 -1 9 C-1.125 2.25 -1.125 2.25 0 0 Z " fill="#0F2A67" transform="translate(517,147)"/>
<path d="M0 0 C11.52164009 -0.18451025 11.52164009 -0.18451025 17 1 C17 1.66 17 2.32 17 3 C10.93107371 3.25287193 5.83799592 2.69832609 0 1 C0 0.67 0 0.34 0 0 Z " fill="#6683B9" transform="translate(171,79)"/>
<path d="M0 0 C-4.61012242 2.95047835 -7.36529617 4.5497272 -13 4 C-12.34 3.67 -11.68 3.34 -11 3 C-11 2.34 -11 1.68 -11 1 C-3.375 -1.125 -3.375 -1.125 0 0 Z " fill="#B6C4DE" transform="translate(88,226)"/>
<path d="M0 0 C0 3 0 3 -1.6875 5.1875 C-4.43403471 7.34018937 -5.60759611 7.26782136 -9 7 C-9.99 7.495 -9.99 7.495 -11 8 C-9.60667426 4.63279613 -8.0210714 3.0140476 -5 1 C-5.33 2.32 -5.66 3.64 -6 5 C-4.02 3.35 -2.04 1.7 0 0 Z " fill="#829AC6" transform="translate(178,156)"/>
<path d="M0 0 C0.99 0.33 1.98 0.66 3 1 C2.47731534 3.76276177 1.89130413 6.3260876 1 9 C0.01 9 -0.98 9 -2 9 C-2.20140476 5.37471432 -1.85776765 3.13498292 0 0 Z " fill="#052060" transform="translate(544,148)"/>
<path d="M0 0 C0.33 1.98 0.66 3.96 1 6 C-0.98 6.66 -2.96 7.32 -5 8 C-4.34 6.68 -3.68 5.36 -3 4 C-3.99 3.67 -4.98 3.34 -6 3 C-2.25 0 -2.25 0 0 0 Z " fill="#738EC0" transform="translate(123,182)"/>
<path d="M0 0 C0.33 0.99 0.66 1.98 1 3 C-0.21484375 5.04296875 -0.21484375 5.04296875 -1.9375 7.1875 C-2.50339844 7.90292969 -3.06929687 8.61835938 -3.65234375 9.35546875 C-4.09707031 9.89816406 -4.54179687 10.44085938 -5 11 C-6 8 -6 8 -5.29296875 6.2109375 C-4.74576172 5.30214844 -4.74576172 5.30214844 -4.1875 4.375 C-3.83042969 3.76398438 -3.47335938 3.15296875 -3.10546875 2.5234375 C-2 1 -2 1 0 0 Z " fill="#E5EAF3" transform="translate(191,140)"/>
<path d="M0 0 C0.33 0.66 0.66 1.32 1 2 C0.67 2.99 0.34 3.98 0 5 C0.99 4.67 1.98 4.34 3 4 C1.73058503 7.91402949 0.48832306 9.79072873 -3 12 C-2 10 -1 8 0 6 C-0.99 6 -1.98 6 -3 6 C-1.125 1.125 -1.125 1.125 0 0 Z " fill="#7F98C5" transform="translate(161,142)"/>
<path d="M0 0 C1.4606285 2.64738916 2 3.89448334 2 7 C1.34 7 0.68 7 0 7 C-0.33 7.66 -0.66 8.32 -1 9 C-1.66 9 -2.32 9 -3 9 C-2.44271087 5.65626525 -1.64826111 2.96687001 0 0 Z " fill="#B8C6DE" transform="translate(193,132)"/>
<path d="M0 0 C5.19591612 0.44033187 8.66335081 0.88303339 13 4 C9.57056481 5.18771723 7.62215325 4.80226223 4.25 3.5625 C3.45078125 3.27503906 2.6515625 2.98757812 1.828125 2.69140625 C1.22484375 2.46324219 0.6215625 2.23507813 0 2 C0 1.34 0 0.68 0 0 Z " fill="#95AACF" transform="translate(182,81)"/>
<path d="M0 0 C0.66 0.33 1.32 0.66 2 1 C-3.90506815 4.82735898 -7.92512658 6.64317031 -15 6 C-12.71172461 3.71172461 -11.72877489 3.57744649 -8.625 3 C-6.0914514 2.52548923 -4.13132703 2.06827109 -1.8359375 0.875 C-1.23007813 0.58625 -0.62421875 0.2975 0 0 Z " fill="#4D70AF" transform="translate(85,227)"/>
<path d="M0 0 C0.66 0.33 1.32 0.66 2 1 C1.01 1.8971875 1.01 1.8971875 0 2.8125 C-2.3373846 4.87501834 -2.3373846 4.87501834 -2 8 C-2.99 8.495 -2.99 8.495 -4 9 C-4 8.34 -4 7.68 -4 7 C-5.65 7.66 -7.3 8.32 -9 9 C-6 6 -3 3 0 0 Z " fill="#5D7DB6" transform="translate(149,180)"/>
<path d="M0 0 C0 3.17370278 -0.30933342 4.3794668 -2 7 C-3.875 8.125 -3.875 8.125 -6 9 C-7.33625722 9.66078654 -8.67002225 10.32666398 -10 11 C-6.79239749 7.19364503 -3.59253891 3.45436433 0 0 Z " fill="#5D7CB6" transform="translate(161,169)"/>
<path d="M0 0 C0.33 0 0.66 0 1 0 C1.02705729 1.77074917 1.04642195 3.54161711 1.0625 5.3125 C1.07410156 6.29863281 1.08570313 7.28476563 1.09765625 8.30078125 C1 11 1 11 0 14 C-0.66 14 -1.32 14 -2 14 C-2.25328119 8.93437617 -1.33583899 4.84241633 0 0 Z " fill="#E6EBF4" transform="translate(202,105)"/>
<path d="M0 0 C0.66 0 1.32 0 2 0 C1.01 2.97 0.02 5.94 -1 9 C-1.66 8.67 -2.32 8.34 -3 8 C-2.45276317 4.62537285 -1.9451 2.91765 0 0 Z " fill="#052060" transform="translate(536,174)"/>
<path d="M0 0 C0.66 0 1.32 0 2 0 C1.4739075 3.78786597 0.61896089 6.17152224 -2 9 C-2.66 9 -3.32 9 -4 9 C-3.67 7.35 -3.34 5.7 -3 4 C-2.34 4 -1.68 4 -1 4 C-0.67 2.68 -0.34 1.36 0 0 Z " fill="#28529D" transform="translate(185,141)"/>
<path d="M0 0 C0.66 0.33 1.32 0.66 2 1 C-0.97 3.97 -3.94 6.94 -7 10 C-7.33 9.34 -7.66 8.68 -8 8 C-5.58443874 4.80800833 -3.31996462 2.25283313 0 0 Z " fill="#DEE2EA" transform="translate(344,141)"/>
<path d="M0 0 C3 1 3 1 4 3 C0.375 6 0.375 6 -3 6 C-2.67 4.68 -2.34 3.36 -2 2 C-1.34 2 -0.68 2 0 2 C0 1.34 0 0.68 0 0 Z " fill="#3D63A8" transform="translate(89,111)"/>
<path d="M0 0 C0.66 0 1.32 0 2 0 C2 0.66 2 1.32 2 2 C2.99 2.33 3.98 2.66 5 3 C3.56656 3.53190541 2.12804633 4.05015258 0.6875 4.5625 C-0.51326172 4.99755859 -0.51326172 4.99755859 -1.73828125 5.44140625 C-4 6 -4 6 -7 5 C-6.030625 4.360625 -5.06125 3.72125 -4.0625 3.0625 C-1.23963731 1.3034741 -1.23963731 1.3034741 0 0 Z " fill="#9FB1D3" transform="translate(122,94)"/>
<path d="M0 0 C0 0.66 0 1.32 0 2 C-4.15267176 5.11450382 -4.15267176 5.11450382 -7.3125 4.6875 C-7.869375 4.460625 -8.42625 4.23375 -9 4 C-6.31059578 0.90718514 -4.07621501 0 0 0 Z " fill="#2B549F" transform="translate(119,206)"/>
<path d="M0 0 C0.66 0.33 1.32 0.66 2 1 C1.814375 2.216875 1.62875 3.43375 1.4375 4.6875 C1.01006818 8.02977939 1.07741117 10.71968417 2 14 C0 13 0 13 -1 10 C-1.47469459 2.94938918 -1.47469459 2.94938918 0 0 Z " fill="#5D7CB6" transform="translate(18,202)"/>
<path d="M0 0 C-0.75 1.9375 -0.75 1.9375 -2 4 C-3.875 4.625 -3.875 4.625 -6 5 C-7.3479743 5.63654342 -8.68596724 6.29605388 -10 7 C-4.65789474 0 -4.65789474 0 0 0 Z " fill="#496DAD" transform="translate(172,162)"/>
<path d="M0 0 C0.99 0 1.98 0 3 0 C1.79618552 2.49361571 0.54571278 4.68143083 -1 7 C-1.66 7 -2.32 7 -3 7 C-2.38722388 4.03824877 -1.74627478 2.61941217 0 0 Z " fill="#2B549F" transform="translate(158,148)"/>
<path d="M0 0 C2.97 0.495 2.97 0.495 6 1 C6.33 2.32 6.66 3.64 7 5 C3.74572241 4.43891766 2.12035493 3.54442592 0 1 C0 0.67 0 0.34 0 0 Z " fill="#3059A2" transform="translate(185,85)"/>
<path d="M0 0 C0.66 0.66 1.32 1.32 2 2 C-0.3125 4.0625 -0.3125 4.0625 -3 6 C-3.99 5.67 -4.98 5.34 -6 5 C-4.02 3.35 -2.04 1.7 0 0 Z " fill="#27519E" transform="translate(119,185)"/>
<path d="M0 0 C2.72426311 2.35277269 3.8141763 4.62496331 5 8 C4.01 8 3.02 8 2 8 C-0.1519437 4.77208445 -0.20086443 3.71599191 0 0 Z " fill="#ADBDDA" transform="translate(18,206)"/>
<path d="M0 0 C0.33 1.32 0.66 2.64 1 4 C1.99 5.485 1.99 5.485 3 7 C2.01 7.33 1.02 7.66 0 8 C-0.99 8.99 -1.98 9.98 -3 11 C-2.01 7.37 -1.02 3.74 0 0 Z " fill="#465C8B" transform="translate(536,167)"/>
<path d="M0 0 C1.39431504 2.78863007 1.25660094 4.92078868 1 8 C0.01 8.66 -0.98 9.32 -2 10 C-2.1953125 3.9453125 -2.1953125 3.9453125 -2 2 C-1.34 1.34 -0.68 0.68 0 0 Z " fill="#9EB1D3" transform="translate(185,146)"/>
<path d="M0 0 C0 0.66 0 1.32 0 2 C-3.22791555 4.1519437 -4.28400809 4.20086443 -8 4 C-5.29881977 1.17603885 -4.05589853 0 0 0 Z " fill="#29539E" transform="translate(86,222)"/>
<path d="M0 0 C-1 3 -1 3 -2.875 4.1875 C-5 5 -5 5 -8 5 C-8 4.34 -8 3.68 -8 3 C-2.25 0 -2.25 0 0 0 Z " fill="#CFD8E9" transform="translate(114,212)"/>
<path d="M0 0 C0.66 0 1.32 0 2 0 C1.34 2.31 0.68 4.62 0 7 C-0.99 6.67 -1.98 6.34 -3 6 C-1.125 1.125 -1.125 1.125 0 0 Z " fill="#021D5D" transform="translate(548,141)"/>
<path d="M0 0 C1.98 1.65 3.96 3.3 6 5 C5.67 5.66 5.34 6.32 5 7 C4.566875 6.505 4.13375 6.01 3.6875 5.5 C2.00259517 3.66781808 2.00259517 3.66781808 -1 4 C-1.33 3.34 -1.66 2.68 -2 2 C-1.34 2 -0.68 2 0 2 C0 1.34 0 0.68 0 0 Z " fill="#5273B0" transform="translate(192,88)"/>
<path d="M0 0 C0.33 1.32 0.66 2.64 1 4 C1.66 4 2.32 4 3 4 C3 4.99 3 5.98 3 7 C1.68 7 0.36 7 -1 7 C-0.67 4.69 -0.34 2.38 0 0 Z " fill="#1F3871" transform="translate(541,153)"/>
<path d="M0 0 C1.65 0 3.3 0 5 0 C3.25 3.875 3.25 3.875 1 5 C0.67 3.35 0.34 1.7 0 0 Z " fill="#294379" transform="translate(509,134)"/>
<path d="M0 0 C0.66 0.33 1.32 0.66 2 1 C2 1.66 2 2.32 2 3 C0.1875 4.0625 0.1875 4.0625 -2 5 C-2.99 4.67 -3.98 4.34 -5 4 C-3.73293765 1.46587529 -2.59334288 1.02161992 0 0 Z " fill="#6F8BBE" transform="translate(106,102)"/>
</svg>
